<svg xmlns="http://www.w3.org/2000/svg" xmlns:xlink="http://www.w3.org/1999/xlink" width="1080" zoomAndPan="magnify" viewBox="0 0 810 809.999993" height="1080" preserveAspectRatio="xMidYMid meet" version="1.2"><g id="af79faffc9"><rect x="0" width="810" y="0" height="809.999993" style="fill:#ffffff;fill-opacity:1;stroke:none;"/><rect x="0" width="810" y="0" height="809.999993" style="fill:#ffffff;fill-opacity:1;stroke:none;"/><path style=" stroke:none;fill-rule:nonzero;fill:#780b0d;fill-opacity:1;" d="M 391.128906 702.011719 C 386.253906 701.652344 375.046875 700.910156 366.222656 700.359375 C 357.402344 699.808594 345.625 698.828125 340.054688 698.183594 C 322.167969 696.109375 295.300781 692.230469 293.097656 691.402344 C 292.457031 691.164062 289.652344 690.605469 286.867188 690.164062 C 271.664062 687.761719 246.300781 680.398438 231.570312 674.109375 C 210.78125 665.234375 201.222656 656.78125 200.503906 646.632812 C 200.203125 642.414062 200.464844 641.476562 202.996094 637.679688 C 204.550781 635.347656 207.722656 631.984375 210.042969 630.207031 C 218.511719 623.722656 237.914062 615.488281 253.800781 611.636719 C 257.4375 610.753906 260.894531 609.628906 261.484375 609.132812 C 262.34375 608.414062 262.175781 606.492188 260.644531 599.484375 C 257 582.785156 255.773438 569.242188 256.335938 551.945312 C 256.890625 534.839844 257.703125 527.933594 260.402344 517.40625 C 263.550781 505.117188 266.882812 500.828125 275.328125 498.191406 C 281.847656 496.160156 287.757812 496.066406 296.382812 497.867188 C 303.632812 499.378906 304.757812 499.875 309.863281 503.796875 C 312.496094 505.820312 314.355469 506.558594 316.898438 506.59375 C 320.792969 506.648438 323.222656 508.007812 327.078125 512.285156 C 328.539062 513.90625 330.539062 515.457031 331.519531 515.726562 C 334.78125 516.625 347.5625 521.40625 354.769531 524.421875 C 362.152344 527.515625 365.503906 528.742188 379.730469 533.5625 C 394.800781 538.667969 404.210938 543.25 406.898438 546.796875 C 408.425781 548.808594 408.992188 553.1875 408.046875 555.695312 C 406.527344 559.730469 404.726562 559.851562 386.484375 557.160156 C 376.851562 555.738281 360.535156 549.730469 344.382812 541.65625 C 338.808594 538.875 333.785156 536.59375 333.222656 536.59375 C 332.65625 536.59375 331.015625 538.992188 329.578125 541.925781 C 328.140625 544.855469 326.195312 548.453125 325.261719 549.917969 C 323.140625 553.238281 323.671875 554.734375 327.453125 556.117188 C 331.484375 557.589844 339.949219 563.480469 345.398438 568.605469 C 349.960938 572.898438 359.984375 585.054688 364.671875 591.980469 L 367.238281 595.769531 L 400.746094 595.945312 L 434.257812 596.121094 L 436.753906 594 C 438.125 592.832031 439.261719 591.433594 439.277344 590.886719 C 439.292969 590.34375 440.019531 588.378906 440.886719 586.523438 C 442.4375 583.210938 442.433594 583.105469 440.828125 580.980469 C 434.601562 572.730469 420.179688 552.855469 416.046875 546.828125 C 413.316406 542.84375 406.117188 532.84375 400.050781 524.613281 C 393.980469 516.378906 388.636719 509.015625 388.175781 508.25 C 385.640625 504.058594 377.183594 492.089844 376.136719 491.210938 C 375.464844 490.648438 374.582031 489.308594 374.175781 488.234375 C 373.496094 486.425781 372.945312 486.277344 366.824219 486.277344 C 350.421875 486.277344 338.125 480.578125 324.378906 466.605469 C 319.453125 461.597656 319.277344 461.507812 314.933594 461.628906 C 307.617188 461.839844 300.34375 459.925781 294.867188 456.351562 C 289.550781 452.878906 286.566406 448.894531 283.785156 441.558594 C 282.210938 437.394531 281.742188 436.925781 277.300781 435.078125 C 274.667969 433.980469 270.695312 432.003906 268.46875 430.683594 C 266.242188 429.367188 264.207031 428.285156 263.945312 428.285156 C 262.828125 428.285156 252.648438 419.460938 247.320312 413.875 C 244.140625 410.542969 241.363281 407.820312 241.140625 407.820312 C 240.105469 407.820312 233.140625 413.347656 228.195312 418.097656 C 215.664062 430.125 208.921875 433.6875 198.644531 433.695312 C 193.277344 433.703125 191.46875 433.292969 186.746094 431.015625 C 177.894531 426.738281 169.492188 418.539062 163.722656 408.539062 C 162.464844 406.355469 159.402344 402.363281 156.921875 399.671875 L 152.410156 394.773438 L 148.691406 395.71875 C 146.644531 396.242188 144.035156 396.429688 142.894531 396.140625 C 139.789062 395.355469 134.179688 391.058594 132.496094 388.183594 C 131.378906 386.273438 130.390625 385.644531 128.5 385.644531 C 125.316406 385.644531 120.304688 383.546875 117.796875 381.167969 C 116.730469 380.15625 115.023438 377.636719 114 375.574219 C 112.980469 373.507812 111.019531 370.707031 109.648438 369.351562 C 107.226562 366.960938 106.878906 366.882812 98.65625 366.875 C 84.414062 366.859375 78.761719 362.824219 78.769531 352.683594 C 78.773438 346.101562 83.277344 340.160156 90.332031 337.441406 C 93.824219 336.09375 94.902344 336.035156 99.359375 336.964844 C 102.144531 337.546875 105.882812 338.773438 107.664062 339.691406 C 109.445312 340.609375 111.214844 341.167969 111.597656 340.929688 C 111.980469 340.691406 112.503906 338.421875 112.765625 335.890625 C 113.492188 328.742188 117.859375 321.621094 122.917969 319.339844 C 126.089844 317.90625 129.546875 317.996094 133.554688 319.617188 C 136.59375 320.84375 137.058594 320.839844 138.953125 319.589844 C 140.09375 318.835938 142.964844 317.984375 145.332031 317.703125 C 150.195312 317.121094 149.824219 317.738281 151.78125 306.890625 C 154.910156 289.535156 158.988281 284.511719 166.824219 288.34375 C 172.066406 290.90625 176.570312 297.265625 177.550781 303.488281 C 178.328125 308.429688 178.160156 309.710938 175.03125 322.613281 C 174.25 325.839844 174.386719 328.296875 175.8125 336.582031 C 177.929688 348.914062 178.066406 358.265625 176.171875 361.960938 C 175.191406 363.878906 174.949219 365.824219 175.304688 368.882812 C 175.835938 373.402344 174.644531 379.851562 172.765625 382.636719 C 172.140625 383.5625 171.628906 384.773438 171.628906 385.328125 C 171.628906 386.21875 185.5625 398.433594 193.582031 404.570312 C 199.671875 409.234375 201.441406 408.535156 216.132812 395.683594 C 226.550781 386.570312 226.519531 386.652344 222.429688 378.351562 C 220.59375 374.625 218.699219 370.230469 218.21875 368.589844 C 217.742188 366.945312 216.488281 362.726562 215.433594 359.207031 C 213.707031 353.453125 213.511719 351.011719 213.476562 334.902344 C 213.433594 314.640625 214.171875 310.863281 219.570312 303.617188 L 222.546875 299.625 L 222.628906 280.164062 C 222.703125 263.304688 222.96875 259.542969 224.621094 251.984375 C 227.660156 238.101562 232.296875 229.046875 241.34375 219.34375 C 244.253906 216.226562 245.265625 214.230469 246.746094 208.683594 C 250.730469 193.757812 256.742188 180.972656 262.0625 176.101562 C 263.496094 174.789062 266.8125 171.464844 269.4375 168.710938 C 280.722656 156.851562 295.355469 149.390625 315.746094 145.085938 C 321.582031 143.855469 326.375 143.414062 332.046875 143.59375 C 339.066406 143.816406 340.472656 143.613281 343.210938 141.980469 C 349.183594 138.421875 353.925781 137.335938 363.691406 137.296875 C 369.949219 137.273438 373.941406 137.664062 375.933594 138.496094 L 378.886719 139.730469 L 378.988281 149.046875 C 379.085938 157.988281 379.214844 158.625 382.226562 164.761719 C 385.800781 172.054688 389.226562 176.0625 394.082031 178.648438 C 396.824219 180.105469 398.96875 180.445312 405.480469 180.453125 C 412.304688 180.460938 414.195312 180.136719 418.144531 178.292969 C 422.753906 176.140625 434.183594 166.03125 434.183594 164.105469 C 434.183594 163.5625 434.988281 162.683594 435.972656 162.152344 C 438.796875 160.625 439.753906 162.566406 440.832031 172.011719 C 442.019531 182.390625 444.726562 188.546875 451.347656 195.914062 C 458.929688 204.355469 468.601562 206.386719 477.648438 201.445312 C 485.734375 197.023438 489.332031 194.472656 494.546875 189.46875 C 499.929688 184.300781 502.964844 182.292969 504.210938 183.070312 C 505.332031 183.769531 506.539062 188.070312 508.054688 196.746094 C 509.488281 204.953125 509.578125 205.242188 512.992188 212.753906 C 517.085938 221.757812 525.625 229.167969 536.335938 233.011719 C 543.34375 235.527344 555.753906 235.550781 564.347656 233.066406 C 568.714844 231.804688 570.285156 231.660156 571.289062 232.425781 C 574.320312 234.738281 581.90625 269.667969 581.929688 281.429688 C 581.933594 283.164062 582.664062 287.65625 583.550781 291.40625 C 586.492188 303.855469 587.09375 310.914062 586.082031 321.191406 C 585.570312 326.386719 584.445312 332.613281 583.582031 335.03125 C 582.082031 339.226562 582.074219 339.664062 583.445312 344.835938 C 584.792969 349.925781 585.109375 350.363281 588.679688 352.097656 C 597.050781 356.164062 614.9375 356.871094 622.617188 353.4375 C 626.648438 351.636719 633.058594 344.828125 636.074219 339.144531 C 637.648438 336.179688 637.796875 334.832031 637.398438 327.25 C 637.082031 321.238281 636.261719 316.546875 634.625 311.449219 C 630.640625 299.007812 631.976562 288.175781 637.644531 287.015625 C 640.25 286.480469 643.03125 281.035156 644.824219 272.953125 C 646.320312 266.195312 645.988281 264.132812 641.679688 253.457031 C 637.601562 243.351562 637.066406 239.6875 638.785156 233.757812 C 641.710938 223.679688 650.519531 219.695312 658.207031 224.972656 C 663.171875 228.378906 665.484375 234.191406 665.496094 243.292969 C 665.5 247.320312 665.746094 250.859375 666.039062 251.15625 C 667.039062 252.167969 671.421875 248.230469 674.710938 243.367188 C 677.660156 239.011719 686.402344 229.96875 695.480469 221.886719 C 702.5 215.636719 703.519531 215.078125 707.910156 215.078125 C 711.46875 215.078125 712.457031 215.460938 714.441406 217.609375 C 717.007812 220.386719 717.84375 223.359375 717.84375 229.71875 C 717.84375 234.304688 715.847656 239.03125 711.71875 244.222656 L 709.199219 247.386719 L 710.988281 249.683594 C 712.386719 251.476562 712.777344 253.171875 712.777344 257.398438 L 712.777344 262.816406 L 715.914062 264.136719 C 719.992188 265.859375 721.867188 267.632812 723.929688 271.71875 C 730.453125 284.628906 715.425781 309.984375 695.667969 319.40625 C 693.601562 320.394531 688.214844 321.3125 680.277344 322.039062 C 672.777344 322.722656 667.535156 323.597656 666.695312 324.304688 C 665.941406 324.9375 664.507812 325.863281 663.511719 326.359375 C 662.078125 327.082031 661.660156 328.144531 661.5 331.511719 C 660.433594 353.511719 647.3125 371.503906 627.339844 378.355469 C 618.90625 381.246094 602.5625 381.109375 595.164062 378.089844 C 593.859375 377.554688 591.328125 377.117188 589.542969 377.117188 C 586.449219 377.117188 586.265625 377.269531 585.738281 380.316406 C 585.4375 382.074219 584.546875 384.734375 583.765625 386.226562 C 582.113281 389.386719 575.472656 397.882812 570.316406 403.4375 C 566.859375 407.160156 566.726562 407.507812 566.726562 412.8125 C 566.726562 417.90625 566.476562 418.660156 563.398438 422.777344 C 560.875 426.15625 558.960938 427.695312 555.460938 429.160156 C 551.796875 430.695312 550.757812 431.566406 550.390625 433.40625 C 549.265625 439.09375 541.726562 444.4375 534.777344 444.472656 C 530.914062 444.492188 528.347656 445.902344 522.738281 451.097656 C 515.90625 457.425781 505.199219 464.152344 497.921875 466.6875 C 496.996094 467.007812 494.144531 468.148438 491.59375 469.214844 C 489.039062 470.28125 482.402344 472.863281 476.847656 474.953125 C 471.292969 477.039062 465.40625 479.8125 463.765625 481.113281 C 462.121094 482.410156 458.023438 485.125 454.65625 487.144531 C 451.289062 489.160156 448.535156 490.90625 448.535156 491.027344 C 448.535156 491.148438 449.898438 494.445312 451.566406 498.355469 C 459.492188 516.964844 459.921875 534.433594 452.648438 542.257812 C 450.167969 544.921875 449.117188 544.800781 446.027344 541.5 C 442.410156 537.632812 439.730469 531.574219 437.21875 521.558594 C 436.035156 516.84375 433.917969 510.261719 432.515625 506.933594 C 431.113281 503.601562 429.5625 498.960938 429.0625 496.621094 C 428.566406 494.277344 427.710938 492.027344 427.160156 491.617188 C 426.613281 491.210938 421.476562 488.851562 415.742188 486.375 C 404.738281 481.621094 396.195312 479.773438 396.195312 482.148438 C 396.195312 484.160156 415.539062 510.558594 430.785156 529.347656 C 441.375 542.398438 451.828125 556.300781 455.082031 561.660156 C 457.644531 565.882812 462.777344 573.390625 465.320312 576.640625 L 466.957031 578.738281 L 471.160156 576.429688 C 476.128906 573.695312 479.222656 573.527344 482.886719 575.78125 C 486.332031 577.90625 487.515625 580.207031 488.136719 586.007812 C 488.695312 591.242188 487.542969 590.503906 499.445312 593.226562 C 502.601562 593.949219 507.097656 595.511719 509.433594 596.695312 C 514.496094 599.265625 515.539062 599.335938 518.476562 597.292969 C 523.246094 593.980469 545.296875 585.640625 553.230469 584.148438 C 561.9375 582.511719 573.820312 584.308594 585.691406 589.050781 C 599.074219 594.394531 604.820312 597.996094 612.835938 606.042969 C 626.222656 619.488281 630.519531 629.902344 629.902344 647.40625 C 629.625 655.339844 629.273438 657.09375 626.957031 662.066406 C 623.800781 668.839844 619.5 673.839844 613.191406 678.070312 C 602.210938 685.433594 591.453125 688.515625 570.949219 690.175781 C 565.144531 690.644531 554.316406 691.984375 546.890625 693.148438 C 524.804688 696.617188 502.230469 699.308594 486.949219 700.296875 C 479.054688 700.804688 467.222656 701.601562 460.652344 702.058594 C 447.0625 703.011719 404.414062 702.980469 391.128906 702.011719 Z M 544.355469 681.667969 C 551.222656 680.347656 559.050781 678.402344 567.148438 676.007812 C 585.109375 670.695312 597.292969 666.820312 603.3125 664.503906 C 606.949219 663.105469 610.558594 661.980469 611.332031 662 C 613.238281 662.054688 592.605469 672.195312 590.589844 672.195312 C 590.253906 672.195312 587.503906 673.121094 584.476562 674.253906 C 581.445312 675.386719 576.121094 677.160156 572.636719 678.195312 C 563.46875 680.921875 563.195312 681.902344 571.792969 681.230469 C 591.785156 679.664062 606.570312 674.199219 614.683594 665.371094 C 615.761719 664.199219 617.652344 661.128906 618.890625 658.550781 C 620.828125 654.496094 621.136719 652.753906 621.15625 645.757812 C 621.199219 631.296875 618.023438 623.960938 606.9375 612.921875 C 599.464844 605.480469 594.96875 602.515625 584.878906 598.378906 C 575.382812 594.484375 571.253906 593.574219 562.507812 593.441406 C 554.472656 593.320312 552.972656 593.558594 546.464844 595.988281 C 542.519531 597.464844 536.273438 599.75 532.585938 601.066406 C 516.722656 606.738281 510.832031 613.621094 495.386719 644.53125 C 489.117188 657.070312 484.496094 664.519531 482.976562 664.519531 C 481.5 664.519531 481.339844 658.175781 482.691406 653.183594 C 485.542969 642.621094 498.980469 616.792969 506.101562 608.179688 C 507.871094 606.035156 509.320312 604.039062 509.320312 603.738281 C 509.320312 602.988281 499.140625 600.007812 492.4375 598.792969 C 480.835938 596.691406 481.375 596.625 476.777344 600.792969 C 471.664062 605.433594 464.980469 608.945312 459.953125 609.640625 C 455.605469 610.242188 447.441406 607.648438 442.796875 604.1875 C 441.265625 603.046875 439.554688 602.289062 438.996094 602.503906 C 436.792969 603.359375 434.625 612.625 434.664062 621.003906 C 434.707031 630.40625 436.171875 636.179688 440.914062 645.699219 C 449.011719 661.949219 470.113281 675.070312 495.8125 679.835938 C 501.152344 680.824219 506.851562 681.96875 508.476562 682.378906 C 512.480469 683.382812 538.070312 682.878906 544.355469 681.667969 Z M 480.558594 673.402344 C 479.160156 671.699219 480.503906 669.210938 482.820312 669.210938 C 485.75 669.210938 485.136719 674.667969 482.199219 674.738281 C 481.90625 674.746094 481.167969 674.144531 480.558594 673.402344 Z M 571.160156 601.660156 C 570.117188 601.457031 569.261719 600.953125 569.261719 600.542969 C 569.261719 600.128906 570.496094 600.214844 572.003906 600.726562 C 576.402344 602.226562 576.050781 602.613281 571.160156 601.660156 Z M 558.78125 599.585938 C 559.339844 598.667969 566.480469 598.609375 567.035156 599.519531 C 567.261719 599.886719 565.394531 600.21875 562.886719 600.253906 C 560.382812 600.289062 558.53125 599.988281 558.78125 599.585938 Z M 343.78125 674.445312 C 347.675781 672.386719 350.789062 670.042969 354.597656 666.300781 C 359.398438 661.582031 365.980469 650.269531 368.675781 642.101562 C 370.582031 636.328125 370.417969 627.242188 368.304688 621.695312 C 361.46875 603.738281 342.949219 578.972656 329.921875 570.367188 C 319.441406 563.445312 312.003906 562.796875 297.984375 567.585938 C 286.628906 571.464844 285.980469 571.511719 287.628906 568.363281 C 290.933594 562.054688 298.355469 556.757812 307.550781 554.15625 C 310.570312 553.300781 313.511719 552.46875 314.09375 552.300781 C 314.734375 552.117188 315.148438 550.511719 315.148438 548.203125 C 315.148438 544.789062 314.855469 544.226562 312.203125 542.570312 C 307.75 539.792969 306.257812 535.832031 306.417969 527.214844 C 306.488281 523.226562 306.929688 518.308594 307.394531 516.28125 C 308.214844 512.714844 308.160156 512.546875 305.6875 511.027344 C 303.398438 509.621094 295.714844 507.558594 288.4375 506.398438 C 285.355469 505.90625 284.183594 506.988281 281.589844 512.714844 C 278.335938 519.90625 276.609375 527.03125 275.039062 539.726562 C 273.472656 552.414062 273.476562 558.296875 275.050781 571.132812 C 276.296875 581.289062 276.960938 585.226562 279.378906 596.71875 C 282.042969 609.386719 286.667969 624.539062 291.488281 636.375 C 300.925781 659.5625 300.664062 659.070312 306.589844 664.617188 C 317.792969 675.101562 322.800781 677.457031 332.980469 677.027344 C 337.980469 676.8125 340.382812 676.238281 343.78125 674.445312 Z M 362.425781 631.238281 C 362.425781 629.820312 361.664062 626.472656 360.738281 623.804688 C 358.613281 617.699219 358.625 617.328125 360.835938 620.992188 C 362.507812 623.765625 364.175781 633.816406 362.964844 633.816406 C 362.667969 633.816406 362.425781 632.65625 362.425781 631.238281 Z M 277.722656 575.257812 C 276.847656 574.375 277.058594 571.722656 278.050781 571.105469 C 279.667969 570.09375 283.066406 571.507812 283.066406 573.191406 C 283.066406 575.308594 279.238281 576.789062 277.722656 575.257812 Z M 289.820312 642.433594 C 289.820312 642.015625 288.722656 639.039062 287.382812 635.824219 C 285.257812 630.734375 282.46875 622.160156 278.398438 608.234375 C 275.96875 599.914062 272.167969 578.207031 271.1875 567.082031 C 269.582031 548.777344 271.738281 528.773438 276.773438 515.257812 C 279.257812 508.59375 279.269531 508.453125 277.289062 508.453125 C 275.316406 508.453125 273.367188 510.617188 271.691406 514.667969 C 266.191406 527.96875 264.804688 569.324219 269.152344 590.480469 C 273.726562 612.742188 279.789062 629.898438 287.09375 641.28125 C 288.339844 643.214844 289.820312 643.84375 289.820312 642.433594 Z M 465.84375 598.78125 C 467.699219 597.683594 471.800781 594.472656 474.953125 591.644531 C 479.542969 587.527344 480.640625 586.070312 480.441406 584.359375 C 480.058594 581.042969 476.765625 581.179688 470.886719 584.757812 C 468.136719 586.429688 465.4375 587.628906 464.894531 587.417969 C 464.351562 587.207031 461.28125 586.769531 458.078125 586.453125 L 452.25 585.871094 L 449.550781 588.980469 C 447.914062 590.863281 446.851562 593 446.859375 594.402344 C 446.875 597.136719 447.398438 598.011719 450.226562 600.03125 C 453.164062 602.132812 461.257812 601.484375 465.84375 598.78125 Z M 323.695312 539.582031 C 325.3125 531.910156 323.246094 518.714844 320.113281 516.722656 C 317.304688 514.933594 316.175781 516.574219 315.542969 523.371094 C 314.769531 531.707031 315.308594 535.550781 317.792969 539.453125 C 320.265625 543.335938 322.894531 543.394531 323.695312 539.582031 Z M 447.625 481.398438 C 449.675781 480.707031 451.953125 479.535156 452.6875 478.792969 C 454.878906 476.578125 463.050781 471.515625 468.421875 469.050781 C 479.457031 463.980469 492.167969 458.988281 494.03125 458.988281 C 496.691406 458.988281 508.417969 451.703125 515.558594 445.613281 C 525.839844 436.847656 525.046875 437.242188 532.421875 437.214844 C 538.980469 437.191406 539.136719 437.140625 541.515625 434.265625 C 542.84375 432.652344 543.933594 430.472656 543.933594 429.417969 C 543.933594 426.839844 546.28125 424.792969 551.59375 422.742188 C 557.285156 420.542969 559.121094 417.671875 559.125 410.960938 C 559.132812 404.855469 559.71875 403.679688 566.257812 396.730469 C 569.128906 393.683594 573.113281 388.980469 575.117188 386.277344 C 578.4375 381.804688 578.835938 380.71875 579.644531 374.003906 C 580.28125 368.699219 580.253906 363.875 579.550781 356.742188 C 578.488281 345.96875 576.984375 340.53125 573.324219 334.226562 C 570.648438 329.617188 570.3125 326.992188 572.296875 326.222656 C 573.171875 325.886719 574.3125 326.546875 575.535156 328.09375 C 578.460938 331.800781 579.398438 330.269531 579.347656 321.847656 C 579.28125 310.34375 577.996094 296.054688 576.933594 294.980469 C 576.214844 294.253906 575.554688 294.273438 574.316406 295.054688 C 570.488281 297.46875 563.527344 294.882812 560.992188 290.101562 C 558.777344 285.921875 560.5 273.449219 564.375 265.609375 C 565.46875 263.398438 568.53125 263.054688 570.105469 264.96875 C 571.636719 266.835938 573.480469 266.535156 573.480469 264.417969 C 573.480469 262.84375 569.339844 249.515625 566.5625 242.15625 C 565.519531 239.394531 563.605469 239.171875 558.179688 241.183594 C 553.613281 242.878906 542.023438 243.015625 535.132812 241.457031 C 532.398438 240.839844 527.316406 238.886719 523.832031 237.121094 C 517.300781 233.804688 516.074219 233.683594 516.074219 236.351562 C 516.074219 237.203125 514.863281 239.101562 513.382812 240.5625 C 509.992188 243.910156 505.714844 244.089844 499.464844 241.152344 C 491.816406 237.554688 490.402344 232.367188 494.628906 223.433594 C 497.214844 217.964844 499.394531 216.683594 503.152344 218.410156 C 505.074219 219.296875 505.234375 219.238281 504.660156 217.878906 C 502.21875 212.097656 500.035156 205.289062 500.035156 203.472656 C 500.035156 202.289062 499.640625 200.578125 499.160156 199.667969 C 498.332031 198.105469 498.039062 198.203125 493.84375 201.402344 C 485.613281 207.679688 482.386719 208.695312 470.910156 208.613281 C 461.898438 208.546875 460.261719 208.300781 456.132812 206.359375 C 447.171875 202.144531 439.046875 193.585938 434.957031 184.042969 C 433.835938 181.429688 432.5 179.285156 431.988281 179.277344 C 431.476562 179.269531 429.199219 180.261719 426.921875 181.484375 C 414.226562 188.3125 400.542969 188.898438 389.429688 183.09375 C 380.792969 178.582031 372.59375 162.566406 372.566406 150.15625 C 372.5625 147.351562 372.117188 145.003906 371.5 144.503906 C 369.898438 143.210938 357.183594 144.15625 352.015625 145.949219 C 346.421875 147.894531 341.386719 151.054688 336.320312 155.792969 C 332.804688 159.082031 329.523438 161.351562 328.289062 161.351562 C 327.164062 161.351562 327.972656 158.242188 330.007812 154.734375 C 331.214844 152.652344 331.878906 150.628906 331.484375 150.238281 C 331.089844 149.847656 328.699219 149.792969 326.175781 150.109375 C 321.949219 150.644531 321.53125 150.898438 320.914062 153.308594 C 319.898438 157.273438 312.664062 164.296875 307.902344 165.933594 C 301.773438 168.042969 297.746094 167.765625 295.269531 165.066406 C 294.128906 163.824219 293.199219 162.480469 293.199219 162.082031 C 293.199219 158.921875 279.550781 167.226562 272.101562 174.917969 C 266.308594 180.898438 258.808594 195.648438 255.582031 207.40625 C 254.359375 211.859375 252.664062 217.457031 251.816406 219.839844 C 250.96875 222.222656 249.261719 227.921875 248.027344 232.507812 C 246.789062 237.089844 245.058594 242.433594 244.179688 244.378906 L 242.578125 247.914062 L 242.742188 240.300781 C 242.839844 235.839844 242.558594 232.566406 242.066406 232.402344 C 240.96875 232.03125 236.371094 240.144531 234.65625 245.46875 C 230.855469 257.277344 230.3125 261.859375 230.308594 282.027344 C 230.304688 302.453125 230.210938 301.558594 235.324219 328.078125 C 237.871094 341.292969 237.90625 340.542969 234.964844 335.328125 C 233.511719 332.75 230.722656 325.90625 228.769531 320.121094 C 226.8125 314.339844 224.839844 309.546875 224.382812 309.472656 C 222.382812 309.152344 221.167969 316.5 220.792969 331.238281 C 220.359375 348.28125 221.0625 354.117188 224.941406 365.605469 C 231.75 385.789062 250.324219 410.234375 267.449219 421.554688 C 273.566406 425.601562 279.425781 428.285156 282.125 428.285156 C 284.5625 428.285156 288.132812 432.429688 288.132812 435.257812 C 288.132812 439.957031 293.449219 448.582031 298.03125 451.3125 C 302.445312 453.941406 310.804688 455.886719 312.304688 454.632812 C 313.15625 453.917969 313.261719 453.332031 312.652344 452.714844 C 312.167969 452.222656 311.773438 450.738281 311.773438 449.410156 C 311.773438 446.386719 314.214844 445.15625 315.515625 447.523438 C 317.609375 451.332031 330.714844 464.773438 336.605469 469.160156 C 350.605469 479.582031 362.3125 481.667969 379.730469 476.851562 C 384.757812 475.464844 389.078125 474.957031 396.617188 474.875 L 406.746094 474.765625 L 417.300781 479.199219 L 427.851562 483.632812 L 435.871094 483.140625 C 440.285156 482.871094 445.570312 482.085938 447.625 481.398438 Z M 349.398438 462.375 C 347.570312 460.976562 345.480469 458.953125 344.753906 457.875 C 344.027344 456.792969 342.574219 455.070312 341.53125 454.039062 C 339.160156 451.699219 339.109375 448.804688 341.386719 445.878906 C 344.207031 442.257812 345.976562 441.664062 350.597656 442.78125 C 354.027344 443.613281 355.355469 444.585938 358.972656 448.90625 C 362.441406 453.046875 363.265625 454.640625 363.257812 457.152344 C 363.242188 460.988281 362.761719 461.730469 359.128906 463.53125 C 355.121094 465.519531 353.21875 465.296875 349.398438 462.375 Z M 432.304688 452.195312 C 429.101562 449.652344 428.105469 445.289062 429.179688 438.492188 C 430.3125 431.339844 431.042969 430.621094 436.207031 431.597656 C 439.292969 432.179688 441.148438 433.242188 443.976562 436.046875 C 447.519531 439.558594 447.691406 439.957031 447.691406 444.667969 C 447.691406 450.148438 445.886719 453.011719 442.414062 453.027344 C 441.371094 453.03125 439.1875 453.257812 437.5625 453.53125 C 435.3125 453.90625 434.058594 453.589844 432.304688 452.195312 Z M 503.746094 421.867188 C 502.402344 420.679688 500.863281 419.359375 500.332031 418.929688 C 497.917969 416.984375 498.019531 402.695312 500.472656 398.777344 C 502.15625 396.09375 507.226562 393.894531 509.234375 394.980469 C 510.824219 395.839844 513.632812 403.296875 514.710938 409.523438 C 515.585938 414.582031 510.460938 424.023438 506.84375 424.023438 C 506.484375 424.023438 505.089844 423.050781 503.746094 421.867188 Z M 402.105469 401.035156 C 396.5625 399.984375 385.023438 395.539062 379.003906 392.136719 C 372.625 388.535156 364.019531 381.695312 359.46875 376.617188 L 356.09375 372.84375 L 352.527344 373.800781 C 347.921875 375.03125 343.269531 374.179688 342.578125 371.976562 C 341.796875 369.484375 342.554688 368.871094 347.160156 368.25 C 353.027344 367.464844 356.132812 365.972656 362.269531 360.984375 C 365.203125 358.597656 367.765625 356.648438 367.96875 356.648438 C 368.171875 356.648438 368.335938 357.960938 368.335938 359.570312 C 368.335938 361.605469 367.417969 363.699219 365.308594 366.492188 L 362.285156 370.492188 L 365.097656 373.460938 C 370.621094 379.285156 382.4375 386.84375 391.128906 390.105469 C 406.4375 395.855469 425.839844 395.492188 439.449219 389.199219 C 444.253906 386.976562 454.574219 379.828125 455.75 377.910156 C 456.011719 377.480469 455.292969 375.878906 454.152344 374.351562 C 451.125 370.296875 449.703125 364.882812 450.945312 362.128906 C 452.429688 358.832031 454.421875 359.902344 456.308594 365.015625 C 458.933594 372.136719 462.324219 374.945312 470.648438 376.90625 C 476.296875 378.234375 477.664062 378.859375 477.664062 380.121094 C 477.664062 383.085938 468.804688 383.753906 463.269531 381.207031 C 461.53125 380.40625 460.808594 380.886719 456.074219 386.003906 C 450.253906 392.285156 443.617188 396.625 435.636719 399.363281 C 431.484375 400.785156 427.820312 401.226562 418.144531 401.460938 C 411.410156 401.625 404.195312 401.433594 402.105469 401.035156 Z M 253.503906 392.003906 C 251.425781 390.875 247.941406 389.195312 245.765625 388.277344 C 241.289062 386.386719 239.621094 384.230469 237.257812 377.28125 C 235.003906 370.648438 234.222656 366.363281 235.027344 365.050781 C 235.917969 363.589844 236.023438 363.808594 237.679688 370.472656 C 238.464844 373.621094 239.972656 378.035156 241.035156 380.28125 C 242.746094 383.898438 243.679688 384.722656 249.183594 387.476562 C 255.210938 390.492188 258.46875 392.871094 257.675781 393.671875 C 257.464844 393.886719 255.585938 393.136719 253.503906 392.003906 Z M 310.589844 381.015625 C 306.183594 379.371094 305.429688 378.078125 305.84375 372.851562 C 306.03125 370.460938 308.699219 367.171875 311.066406 366.410156 C 313.648438 365.585938 321.804688 367.726562 324.039062 369.820312 C 326.894531 372.488281 326.996094 378.210938 324.222656 380.03125 C 321.3125 381.945312 314.414062 382.441406 310.589844 381.015625 Z M 569.261719 374.917969 C 569.261719 374.4375 569.632812 373.667969 570.089844 373.207031 C 570.546875 372.746094 571.277344 369.121094 571.714844 365.148438 L 572.511719 357.929688 L 572.359375 364.75 C 572.25 369.675781 571.796875 372.160156 570.734375 373.683594 C 569.921875 374.84375 569.261719 375.398438 569.261719 374.917969 Z M 553.15625 366.097656 C 550.730469 363.644531 550.6875 363.449219 550.707031 354.371094 C 550.730469 343.472656 551.625 338.859375 554.109375 336.828125 C 557.492188 334.058594 561.875 336.296875 565.164062 342.46875 C 566.703125 345.351562 567.015625 347.1875 566.886719 352.632812 C 566.703125 360.34375 564.886719 364.792969 560.980469 367.097656 C 557.472656 369.164062 556.007812 368.976562 553.15625 366.097656 Z M 412.089844 362.082031 C 409.285156 360.90625 407.386719 358.703125 408.347656 357.730469 C 408.554688 357.523438 411.691406 356.980469 415.320312 356.527344 C 421.871094 355.703125 428.363281 353.457031 429.488281 351.621094 C 431.320312 348.628906 425 343.003906 419.804688 343.003906 C 414.328125 343.003906 412.96875 339.410156 417.691406 337.417969 C 420.347656 336.296875 421.035156 336.339844 425.125 337.886719 C 429.53125 339.550781 433.882812 343.277344 435.773438 347 C 440.726562 356.761719 424.320312 367.210938 412.089844 362.082031 Z M 478.085938 343.304688 C 465.753906 337.289062 456.621094 336.265625 449.144531 340.058594 L 444.863281 342.230469 L 443.164062 340.515625 C 441.632812 338.964844 441.582031 338.582031 442.65625 336.554688 C 443.308594 335.320312 445.183594 333.675781 446.824219 332.898438 C 449.574219 331.59375 449.824219 331.164062 450.074219 327.222656 C 450.652344 318.171875 447.914062 310.039062 440.019531 297.378906 C 436.386719 291.550781 436.296875 291.234375 436.296875 284.273438 L 436.296875 277.140625 L 439.601562 274.253906 C 442.328125 271.875 443.585938 271.367188 446.777344 271.375 C 455.574219 271.394531 464.71875 278.527344 469.902344 289.421875 C 476.941406 304.207031 478.601562 317.800781 475.097656 332.046875 C 474.65625 333.839844 474.890625 334.417969 476.226562 334.847656 C 479.082031 335.761719 485.683594 342.539062 485.683594 344.554688 C 485.683594 345.578125 485.398438 346.410156 485.050781 346.40625 C 484.699219 346.398438 481.566406 345.003906 478.085938 343.304688 Z M 461.96875 293.425781 C 463.085938 291.402344 463.058594 290.945312 461.699219 288.851562 C 460.425781 286.882812 459.757812 286.59375 457.421875 286.976562 C 454.890625 287.390625 454.65625 287.242188 454.65625 285.203125 C 454.65625 282.304688 450.921875 279.042969 447.605469 279.042969 C 444.226562 279.042969 440.9375 282.402344 440.9375 285.855469 C 440.9375 291.65625 446.015625 294.933594 451.0625 292.390625 C 452.691406 291.570312 453.601562 291.445312 453.601562 292.046875 C 453.601562 292.558594 454.246094 293.699219 455.035156 294.578125 C 457.011719 296.789062 460.421875 296.21875 461.96875 293.425781 Z M 351.621094 341.128906 C 348.515625 337.992188 353.214844 330.644531 362.421875 324.226562 C 364.59375 322.714844 364.773438 323.5 356.761719 299.9375 C 350.765625 282.304688 350.078125 279.070312 351.382812 274.667969 C 352.667969 270.335938 355.90625 268.808594 363.796875 268.808594 L 369.449219 268.808594 L 375.070312 274.566406 C 379.429688 279.03125 381.40625 281.9375 383.890625 287.523438 C 388.011719 296.800781 390.800781 308.007812 391.855469 319.539062 C 392.597656 327.605469 392.960938 328.988281 394.867188 331 C 397.457031 333.730469 397.714844 336.179688 395.410156 336.179688 C 394.515625 336.179688 389.882812 334.644531 385.117188 332.769531 C 380.351562 330.894531 375 329.359375 373.226562 329.359375 C 368.21875 329.359375 362.636719 332.472656 359.347656 337.09375 C 355.8125 342.066406 353.660156 343.1875 351.621094 341.128906 Z M 373.542969 291.277344 C 376.855469 288.246094 373.980469 282.546875 369.691406 283.632812 C 366.328125 284.484375 365.359375 289.460938 368.132812 291.621094 C 369.992188 293.070312 371.703125 292.960938 373.542969 291.277344 Z M 364.773438 286.027344 C 370.476562 281.03125 365.109375 271.367188 358.019531 273.863281 C 354.648438 275.050781 353.199219 277.089844 353.164062 280.691406 C 353.113281 286.617188 360.320312 289.929688 364.773438 286.027344 Z M 255.628906 336.015625 C 251.359375 333.570312 251.511719 329.015625 256.019531 324.277344 C 257.855469 322.347656 260.390625 318.851562 261.652344 316.511719 C 263.96875 312.210938 264.800781 311.710938 270.378906 311.257812 C 273.089844 311.039062 273.445312 311.308594 275.183594 314.859375 C 278.820312 322.300781 278.617188 326.242188 274.351562 331.0625 C 269.808594 336.199219 260.328125 338.707031 255.628906 336.015625 Z M 496.015625 304.597656 C 494.96875 304.171875 493.660156 302.828125 493.113281 301.609375 C 491.179688 297.320312 496.816406 290.980469 502.5625 290.980469 C 505.078125 290.980469 509.210938 293.550781 509.820312 295.492188 C 510.710938 298.324219 508.507812 301.902344 504.742188 303.742188 C 500.90625 305.617188 498.992188 305.804688 496.015625 304.597656 Z M 328.136719 277.730469 C 327.007812 275.992188 326.820312 274.203125 327.183594 268.5625 C 327.726562 260.074219 329.746094 255.792969 335.832031 250.234375 C 342.074219 244.53125 347.925781 242.128906 355.675781 242.089844 C 364.210938 242.042969 371.347656 245.480469 378.289062 252.976562 C 382.566406 257.59375 386.238281 264.542969 384.40625 264.542969 C 384.042969 264.542969 379.625 261.5 374.585938 257.777344 C 364.421875 250.273438 358.710938 247.859375 353.429688 248.828125 C 348.414062 249.753906 343.621094 252.324219 339.800781 256.144531 C 335.117188 260.832031 333.378906 265.632812 333.902344 272.433594 C 334.128906 275.363281 334.148438 278.242188 333.945312 278.828125 C 333.296875 280.71875 329.625 280.027344 328.136719 277.730469 Z M 419.773438 268.449219 C 416.660156 254.398438 428.214844 243.011719 445.578125 243.011719 C 452.394531 243.011719 459.121094 246.277344 464.316406 252.113281 C 470.382812 258.925781 473.011719 266.25 469.394531 266.25 C 468.765625 266.25 465.347656 263.164062 461.796875 259.394531 C 453.109375 250.167969 448.121094 248.136719 439.632812 250.375 C 431.105469 252.625 425.542969 258.011719 423.476562 266.023438 C 421.507812 273.652344 421 273.984375 419.773438 268.449219 Z M 257.675781 251.816406 C 255.542969 249.664062 255.207031 248.683594 255.207031 244.609375 C 255.207031 240.464844 255.480469 239.707031 257.441406 238.359375 C 258.667969 237.515625 261.660156 234.8125 264.085938 232.351562 C 267.570312 228.8125 269.066406 227.871094 271.195312 227.871094 C 275.570312 227.871094 277.164062 229.195312 277.128906 232.804688 C 277.09375 236.433594 275.355469 244.148438 273.722656 247.914062 C 271.519531 253.003906 269.675781 254.308594 264.707031 254.308594 C 260.789062 254.308594 259.792969 253.957031 257.675781 251.816406 Z M 343.386719 220.148438 C 341.394531 217.925781 340.722656 209.007812 342.121094 203.347656 C 344.207031 194.921875 350.816406 191.917969 355.683594 197.183594 C 358.570312 200.304688 359.441406 204.808594 358.226562 210.296875 C 356.414062 218.460938 353.386719 221.902344 348.015625 221.902344 C 346.003906 221.902344 344.421875 221.304688 343.386719 220.148438 Z M 264.496094 204.28125 C 264.496094 203.5 265.800781 200.082031 267.394531 196.691406 C 269.40625 192.40625 271.277344 189.792969 273.515625 188.140625 C 275.285156 186.832031 278.152344 184.417969 279.886719 182.78125 C 281.621094 181.140625 283.320312 180.082031 283.664062 180.429688 C 284.867188 181.648438 281.703125 185.6875 276.957031 188.988281 C 272.828125 191.859375 271.738281 193.238281 269.023438 199.007812 C 265.976562 205.488281 264.496094 207.214844 264.496094 204.28125 Z M 393.503906 194.03125 C 394.113281 193.785156 394.839844 193.8125 395.121094 194.097656 C 395.402344 194.378906 394.902344 194.582031 394.011719 194.542969 C 393.03125 194.503906 392.828125 194.300781 393.503906 194.03125 Z M 382.101562 190.136719 C 379.492188 187.230469 377.324219 183.527344 378.234375 183.527344 C 378.679688 183.527344 379.746094 184.84375 380.605469 186.453125 C 382.3125 189.65625 384.289062 190.964844 388.175781 191.46875 C 390.203125 191.734375 390.023438 191.824219 387.265625 191.925781 C 384.667969 192.023438 383.402344 191.582031 382.101562 190.136719 Z M 149.378906 390.335938 C 150.074219 389.632812 151.746094 389.054688 153.089844 389.054688 C 154.570312 389.054688 156.621094 388.09375 158.304688 386.609375 C 159.828125 385.261719 162.597656 383.125 164.453125 381.859375 C 167.109375 380.046875 168.046875 378.714844 168.839844 375.621094 C 170 371.078125 169.640625 369.941406 167.414062 371.144531 C 166.542969 371.613281 164.476562 372 162.820312 372 C 158.5 372 158.957031 370.136719 164.242188 366.171875 C 171.710938 360.570312 172.027344 359.996094 172.039062 352.09375 C 172.042969 348.269531 171.34375 340.722656 170.484375 335.328125 L 168.917969 325.519531 L 171.117188 317.03125 C 173.476562 307.933594 173.789062 304.285156 172.511719 300.890625 C 171.207031 297.425781 165.730469 291.835938 163.644531 291.835938 C 160.203125 291.835938 158.816406 294.65625 155.175781 309.070312 C 154.382812 312.21875 153.183594 315.253906 152.511719 315.816406 C 151.488281 316.675781 151.890625 317.410156 155.066406 320.441406 C 159.03125 324.222656 160.910156 328.726562 162.007812 337.082031 C 163.214844 346.269531 154.621094 355.113281 147.976562 351.523438 C 146.707031 350.835938 145.8125 351.160156 143.597656 353.09375 C 139.105469 357.019531 135.980469 357.722656 131.550781 355.804688 C 125.953125 353.382812 121.242188 344.511719 123.058594 339.8125 C 123.503906 338.664062 124.070312 339.34375 125.492188 342.722656 C 128.722656 350.40625 132.484375 353 137.796875 351.210938 C 144.089844 349.089844 145.242188 341.476562 140.660156 332.261719 C 137.921875 326.753906 131.839844 321.683594 127.976562 321.683594 C 122.832031 321.683594 118.035156 327.652344 116.257812 336.277344 C 115.039062 342.175781 115.054688 342.457031 116.71875 344.246094 C 118.71875 346.394531 118.960938 348.121094 117.257812 348.121094 C 116.601562 348.121094 113.46875 346.925781 110.292969 345.464844 C 103.222656 342.214844 94.761719 341.246094 90.953125 343.246094 C 82.523438 347.671875 81.53125 357.292969 89.171875 360.457031 C 90.644531 361.070312 95.648438 361.847656 100.292969 362.1875 C 111.371094 363.003906 113.289062 364.230469 118.378906 373.769531 C 121.214844 379.082031 123.476562 380.527344 128.933594 380.527344 C 132.902344 380.527344 137.070312 379.035156 142.167969 375.78125 C 146.085938 373.285156 146.304688 373.261719 146.304688 375.308594 C 146.304688 377.097656 141.78125 381.945312 139.398438 382.707031 C 136.28125 383.707031 138.261719 387.460938 143.347656 390.1875 C 146.550781 391.90625 147.792969 391.9375 149.378906 390.335938 Z M 156.125 343.1875 C 157.699219 340.828125 157.921875 339.613281 157.527344 335.511719 C 157.273438 332.832031 156.734375 330.273438 156.328125 329.828125 C 155.921875 329.382812 155.589844 328.34375 155.589844 327.515625 C 155.589844 326.691406 154.550781 325.042969 153.277344 323.851562 C 151.433594 322.125 150.105469 321.6875 146.734375 321.695312 C 139.808594 321.71875 139.632812 322.199219 143.609375 330.34375 C 147.457031 338.21875 148.566406 343.128906 147.269531 346.539062 C 146.796875 347.78125 146.636719 349.023438 146.910156 349.304688 C 147.847656 350.25 154.253906 345.996094 156.125 343.1875 Z M 660.804688 322.558594 C 663.726562 321.433594 663.53125 320.46875 659.933594 318.222656 C 655.992188 315.757812 651.996094 310.140625 651.996094 307.058594 C 651.996094 305.246094 651.589844 304.625 650.40625 304.625 C 648.507812 304.625 643.207031 298.921875 641.246094 294.765625 C 640.476562 293.136719 639.457031 291.933594 638.976562 292.09375 C 637.449219 292.609375 636.816406 298.085938 637.746094 302.808594 C 639.171875 310.054688 646.871094 322.074219 650.542969 322.789062 C 654.113281 323.488281 658.648438 323.386719 660.804688 322.558594 Z M 696.445312 311.023438 C 707.816406 304.683594 719.53125 288.863281 719.53125 279.851562 C 719.53125 276.316406 717.492188 271.691406 715.4375 270.582031 C 711.140625 268.257812 700.234375 270.757812 692.335938 275.871094 C 686.871094 279.410156 686.21875 280.1875 684.546875 285.160156 C 682.234375 292.039062 683.882812 293.167969 695.152344 292.417969 C 702.867188 291.90625 704.335938 292.21875 704.335938 294.378906 C 704.335938 297.335938 702.125 298.015625 692.167969 298.125 C 683.089844 298.222656 682.417969 298.113281 680.367188 296.175781 C 679.171875 295.042969 677.941406 292.765625 677.632812 291.109375 C 677.3125 289.378906 676.097656 287.269531 674.765625 286.140625 C 672.335938 284.078125 669.714844 277.398438 669.738281 273.339844 C 669.75 270.6875 671.140625 266.390625 673.3125 262.296875 C 676.367188 256.539062 686.804688 249.453125 694.957031 247.605469 C 700.582031 246.328125 707.171875 240.847656 710.242188 234.890625 C 711.773438 231.925781 712.011719 230.503906 711.527344 227.21875 C 710.40625 219.605469 708.292969 219.253906 700.792969 225.429688 C 694.222656 230.835938 680.109375 245.429688 678.566406 248.40625 C 677.015625 251.402344 670.992188 256.777344 667.558594 258.226562 C 664.050781 259.707031 660.664062 258.625 660.070312 255.832031 C 659.84375 254.761719 659.546875 249.46875 659.410156 244.074219 C 659.203125 235.867188 658.886719 233.894531 657.476562 231.964844 C 655.148438 228.777344 651.652344 227.367188 649.046875 228.566406 C 642.894531 231.398438 642.277344 240.160156 647.355469 252.605469 C 650.054688 259.226562 650.65625 261.71875 650.636719 266.25 C 650.609375 272.628906 649.398438 277.648438 646.464844 283.554688 C 645.328125 285.839844 644.398438 288.269531 644.398438 288.953125 C 644.398438 290.585938 647.5625 296.917969 649.460938 299.082031 C 650.285156 300.019531 651.1875 301.554688 651.46875 302.496094 C 651.960938 304.132812 660.445312 311.003906 665.285156 313.6875 C 667.144531 314.714844 669.933594 314.902344 679.140625 314.609375 C 690.609375 314.25 690.695312 314.230469 696.445312 311.023438 Z M 683.113281 275.828125 C 688.175781 270.601562 692.632812 267.9375 701.167969 265.050781 L 706.449219 263.265625 L 706.699219 258.46875 C 707 252.644531 706.558594 252.371094 698.515625 253.390625 C 686.839844 254.871094 675.722656 264.484375 675.652344 273.15625 C 675.632812 275.515625 677.195312 280.746094 677.917969 280.746094 C 678.15625 280.746094 680.492188 278.535156 683.113281 275.828125 Z M 507.507812 145.394531 C 502.804688 144.671875 502.136719 142.71875 502.207031 129.832031 C 502.273438 117.113281 502.878906 115.085938 508.078125 110.167969 C 510.136719 108.21875 510.9375 108.054688 518.078125 108.105469 C 527.179688 108.171875 530.074219 109.445312 532.980469 114.667969 C 536.433594 120.871094 533.925781 129.128906 525.992188 137.675781 C 522.316406 141.640625 520.699219 142.699219 516.496094 143.914062 C 509.886719 145.828125 510.097656 145.792969 507.507812 145.394531 Z M 516.335938 137.929688 C 518.746094 136.773438 521.453125 134.832031 522.351562 133.617188 C 523.25 132.398438 524.863281 130.371094 525.9375 129.105469 C 528.007812 126.679688 529.070312 122.824219 528.601562 119.46875 C 528.222656 116.773438 524.503906 115.042969 518.183594 114.625 C 513.566406 114.316406 512.933594 114.488281 511.007812 116.566406 C 509.035156 118.699219 508.878906 119.527344 508.601562 129.4375 C 508.308594 139.824219 508.339844 140.03125 510.128906 140.03125 C 511.136719 140.03125 513.929688 139.085938 516.335938 137.929688 Z M 424.863281 139.144531 C 421.898438 137.980469 420.117188 134.570312 418.957031 127.847656 C 417.234375 117.84375 420.039062 110.703125 426.941406 107.535156 C 432.125 105.160156 435.527344 105.4375 438.546875 108.488281 C 439.949219 109.90625 442.769531 112.226562 444.8125 113.648438 C 449.148438 116.660156 451.261719 120.289062 451.378906 124.941406 C 451.472656 128.433594 449.496094 130.863281 443.816406 134.242188 C 442.464844 135.046875 440.320312 136.558594 439.050781 137.597656 C 436.441406 139.738281 428.5625 140.597656 424.863281 139.144531 Z M 438.46875 128.847656 C 441.683594 126.917969 444.316406 124.859375 444.316406 124.273438 C 444.316406 123.6875 442.902344 121.449219 441.175781 119.296875 C 437.480469 114.699219 433.074219 113.308594 429.554688 115.640625 C 424.589844 118.925781 426.117188 132.355469 431.453125 132.355469 C 432.097656 132.355469 435.253906 130.777344 438.46875 128.847656 Z M 574.304688 134.324219 C 571.410156 132.324219 570.976562 131.511719 570.972656 128.09375 C 570.96875 118.929688 576.300781 117.085938 583.675781 123.695312 C 586.886719 126.574219 587.152344 127.113281 586.59375 129.667969 C 585.484375 134.769531 578.675781 137.347656 574.304688 134.324219 Z M 579.199219 128.785156 C 578.675781 127.203125 576.859375 126.941406 576.859375 128.445312 C 576.859375 129.191406 577.460938 129.796875 578.195312 129.796875 C 578.929688 129.796875 579.382812 129.339844 579.199219 128.785156 Z M 467.953125 91.328125 C 465.222656 90.246094 462.929688 87.257812 462.90625 84.746094 C 462.898438 83.652344 464.042969 81.59375 465.457031 80.164062 C 467.773438 77.824219 468.378906 77.625 471.578125 78.140625 C 476.167969 78.882812 479.777344 82.273438 479.761719 85.824219 C 479.746094 88.914062 479.144531 89.972656 476.664062 91.292969 C 474.460938 92.464844 470.855469 92.480469 467.953125 91.328125 Z M 474.242188 86.371094 C 474.746094 85.550781 472.550781 82.890625 471.375 82.890625 C 471 82.890625 470.246094 83.4375 469.699219 84.101562 C 468.914062 85.058594 469.023438 85.5 470.226562 86.207031 C 472.136719 87.328125 473.621094 87.390625 474.242188 86.371094 Z M 474.242188 86.371094 "/></g></svg>