<svg xmlns="http://www.w3.org/2000/svg" xmlns:xlink="http://www.w3.org/1999/xlink" width="378" zoomAndPan="magnify" viewBox="0 0 283.5 283.500005" height="378" preserveAspectRatio="xMidYMid meet" version="1.2"><defs><clipPath id="13e9162e06"><path d="M 0 0 L 283 0 L 283 283 L 0 283 Z M 0 0 "/></clipPath></defs><g id="383c32c675"><path style=" stroke:none;fill-rule:nonzero;fill:#ffffff;fill-opacity:1;" d="M 0 0 L 283 0 L 283 283 L 0 283 Z M 0 0 "/><g clip-rule="nonzero" clip-path="url(#13e9162e06)"><path style=" stroke:none;fill-rule:nonzero;fill:#e8c6cb;fill-opacity:1;" d="M 0 0 L 283.035156 0 L 283.035156 283.035156 L 0 283.035156 Z M 0 0 "/></g><path style=" stroke:none;fill-rule:nonzero;fill:#780b0d;fill-opacity:1;" d="M 224.574219 163.765625 C 219.625 163.125 215.953125 160.230469 213.496094 155.03125 C 212.210938 152.308594 211.53125 150.21875 210.203125 144.914062 C 208.523438 138.195312 207.898438 136.660156 206.484375 135.796875 C 204.949219 134.859375 204.984375 134.738281 204.984375 140.945312 C 204.984375 147 205.074219 147.527344 206.214844 148.046875 C 206.566406 148.207031 206.800781 148.5 206.800781 148.777344 C 206.800781 149.234375 206.703125 149.242188 201.972656 149.179688 C 197.585938 149.125 197.136719 149.082031 197.070312 148.722656 C 197.019531 148.472656 197.191406 148.25 197.519531 148.121094 C 197.8125 148.011719 198.253906 147.695312 198.503906 147.417969 C 198.945312 146.925781 198.960938 146.546875 199.019531 131.828125 L 199.085938 116.746094 L 198.339844 116.628906 C 197.929688 116.5625 196.46875 116.347656 195.09375 116.144531 C 193.71875 115.945312 188.160156 114.660156 182.742188 113.289062 C 171.71875 110.503906 168.648438 109.902344 165.460938 109.90625 C 159.492188 109.917969 155.03125 112.410156 153.636719 116.519531 L 153.242188 117.679688 L 152.53125 117.082031 C 151.078125 115.859375 150.617188 112.359375 151.570312 109.804688 C 152.242188 108.015625 153.929688 106.335938 156.113281 105.285156 C 158.816406 103.984375 160.449219 103.675781 164.628906 103.660156 C 168.035156 103.652344 168.457031 103.699219 171.214844 104.410156 C 174.875 105.359375 177.8125 106.40625 186.339844 109.800781 C 190.03125 111.269531 194.378906 112.914062 196.003906 113.449219 L 198.957031 114.429688 L 199.140625 113.246094 C 199.242188 112.59375 199.574219 110.886719 199.875 109.449219 C 201.148438 103.386719 204.617188 99.058594 209.40625 97.566406 C 211.332031 96.964844 215.886719 96.859375 217.941406 97.367188 C 221.179688 98.167969 224.28125 100.324219 225.554688 102.660156 C 226.085938 103.644531 226.230469 104.226562 226.308594 105.738281 C 226.398438 107.4375 226.347656 107.730469 225.738281 109.039062 C 223.632812 113.53125 217.050781 116.515625 208.429688 116.882812 C 206.339844 116.96875 205.132812 117.109375 205.070312 117.273438 C 205.015625 117.414062 205 119.625 205.035156 122.1875 L 205.097656 126.839844 L 205.65625 125.703125 C 207.707031 121.523438 212.742188 120.007812 215.757812 122.660156 C 217.351562 124.0625 217.664062 125.871094 216.679688 127.984375 C 216.011719 129.425781 213.078125 132.203125 211.0625 133.304688 C 210.09375 133.835938 209.300781 134.3125 209.300781 134.367188 C 209.300781 134.421875 209.574219 134.898438 209.910156 135.425781 C 210.246094 135.957031 211.476562 138.429688 212.648438 140.929688 C 216.101562 148.292969 217.605469 150.800781 220.128906 153.378906 C 222.679688 155.980469 224.9375 157.167969 227.722656 157.359375 C 230.242188 157.53125 231.382812 157.167969 232.851562 155.726562 C 233.496094 155.09375 234.082031 154.421875 234.152344 154.234375 C 234.261719 153.945312 234.332031 153.953125 234.613281 154.300781 C 235.09375 154.894531 235.261719 156.441406 235 157.832031 C 234.347656 161.261719 232.328125 163.214844 228.851562 163.769531 C 227.199219 164.035156 226.640625 164.035156 224.574219 163.765625 Z M 207.296875 132.132812 C 210.367188 130.515625 212.398438 127.332031 211.199219 126.003906 C 210.335938 125.050781 208.507812 125.699219 206.804688 127.5625 C 205.574219 128.90625 204.984375 130.390625 204.984375 132.125 C 204.984375 133.054688 205.019531 133.113281 205.496094 132.96875 C 205.777344 132.882812 206.585938 132.507812 207.296875 132.132812 Z M 209.082031 115.121094 C 214.523438 114.445312 218.230469 112.417969 219.898438 109.199219 C 220.449219 108.140625 220.539062 107.703125 220.546875 106.039062 C 220.554688 104.375 220.46875 103.925781 219.921875 102.820312 C 219.167969 101.28125 217.867188 99.882812 216.53125 99.171875 C 215.15625 98.445312 212.417969 98.457031 210.734375 99.199219 C 208.511719 100.179688 206.585938 102.8125 205.777344 105.972656 C 205.351562 107.644531 204.992188 111.0625 204.988281 113.484375 L 204.984375 115.359375 L 206.070312 115.359375 C 206.664062 115.359375 208.019531 115.25 209.082031 115.121094 Z M 32.886719 162.191406 C 30.25 161.765625 28.324219 160.792969 26.703125 159.058594 C 24.671875 156.886719 23.914062 154.613281 24.066406 151.152344 C 24.160156 149.074219 24.253906 148.65625 24.992188 147.101562 C 25.992188 144.996094 27.601562 143.308594 29.421875 142.457031 C 30.496094 141.957031 31.121094 141.832031 32.953125 141.765625 C 34.988281 141.695312 35.285156 141.738281 36.410156 142.289062 C 38.664062 143.390625 39.796875 145.328125 39.800781 148.097656 C 39.804688 149.5625 39.710938 149.972656 39.132812 151.027344 C 38.417969 152.335938 37.320312 153.222656 36.121094 153.460938 C 35.421875 153.601562 35.09375 153.304688 35.597656 152.992188 C 36.050781 152.714844 36.355469 150.527344 36.082031 149.511719 C 34.929688 145.226562 28.980469 145.699219 27.089844 150.222656 C 26.511719 151.597656 26.601562 154.214844 27.269531 155.65625 C 28.464844 158.230469 30.523438 159.53125 33.613281 159.65625 C 36.160156 159.757812 37.472656 159.339844 39.058594 157.914062 C 42.675781 154.664062 44.242188 149.539062 46.066406 135.023438 C 46.441406 132.023438 46.75 129.441406 46.75 129.285156 C 46.753906 128.921875 45.160156 128.90625 43.550781 129.253906 C 42.117188 129.558594 40.535156 130.902344 39.886719 132.359375 C 39.054688 134.226562 39.394531 136.660156 40.574219 137.277344 L 41.152344 137.578125 L 40.625 137.863281 C 40.308594 138.03125 39.574219 138.105469 38.789062 138.046875 C 37.171875 137.929688 36.109375 137.199219 35.382812 135.695312 C 34.957031 134.820312 34.890625 134.382812 34.980469 133.015625 C 35.171875 130.089844 36.820312 127.878906 39.894531 126.421875 C 41.351562 125.734375 41.527344 125.703125 44.300781 125.703125 L 47.1875 125.703125 L 47.304688 124.90625 C 48.585938 116.226562 49.789062 110.921875 51.382812 106.949219 C 54.71875 98.640625 59.292969 94.792969 66.65625 94.09375 C 72.578125 93.527344 77.222656 96.773438 77.214844 101.476562 C 77.214844 103.972656 76.160156 106.027344 74.335938 107.097656 C 73.371094 107.664062 73.015625 107.742188 71.421875 107.730469 C 69.359375 107.722656 68.152344 107.246094 67.144531 106.046875 C 66.183594 104.90625 66.082031 102.820312 66.90625 101.207031 C 67.335938 100.371094 67.507812 100.417969 67.988281 101.5 C 68.527344 102.722656 69.246094 103.175781 70.410156 103.019531 C 71.5625 102.863281 71.875 102.601562 72.335938 101.394531 C 72.789062 100.203125 72.527344 98.941406 71.59375 97.832031 C 70.636719 96.695312 69.453125 96.273438 67.214844 96.269531 C 64.242188 96.265625 62.289062 96.898438 60.109375 98.5625 C 55.429688 102.136719 53.261719 109.707031 52.765625 124.226562 L 52.632812 128.203125 L 53.660156 128.960938 C 55.039062 129.976562 56.984375 132.5625 58.050781 134.796875 L 58.917969 136.617188 L 58.976562 123.164062 C 59.011719 114.667969 58.949219 109.496094 58.808594 109.121094 C 58.683594 108.792969 58.21875 108.3125 57.773438 108.050781 C 57.277344 107.757812 56.988281 107.429688 57.03125 107.203125 C 57.097656 106.875 57.664062 106.835938 61.984375 106.835938 C 66.308594 106.835938 66.875 106.875 66.9375 107.203125 C 66.980469 107.425781 66.699219 107.753906 66.214844 108.039062 C 65.664062 108.363281 65.34375 108.773438 65.164062 109.375 C 64.976562 110.007812 64.929688 115.78125 64.996094 130.589844 C 65.082031 150.675781 65.089844 150.960938 65.582031 152.738281 C 66.175781 154.890625 66.925781 156.234375 68.039062 157.152344 C 69.464844 158.328125 71.78125 158.660156 73.070312 157.875 C 74.003906 157.304688 74.027344 157.710938 73.105469 158.574219 C 71.808594 159.785156 68.992188 160.234375 66.257812 159.667969 C 64.703125 159.34375 63.441406 158.609375 62.269531 157.339844 C 60.15625 155.046875 59.339844 152.300781 59.03125 146.480469 C 58.71875 140.53125 57.894531 137.269531 55.976562 134.382812 C 55.203125 133.21875 52.699219 130.707031 52.503906 130.902344 C 52.460938 130.945312 52.273438 133.167969 52.089844 135.84375 C 51.90625 138.519531 51.648438 141.476562 51.515625 142.414062 C 49.878906 154.152344 46.207031 160.113281 39.574219 161.824219 C 37.859375 162.265625 34.5 162.449219 32.886719 162.191406 Z M 110.21875 148.777344 C 108.34375 147.890625 106.074219 145.648438 105.230469 143.847656 C 104.695312 142.699219 104.613281 142.242188 104.613281 140.367188 C 104.613281 138.503906 104.695312 138.03125 105.21875 136.917969 C 107.21875 132.648438 112.363281 130.488281 117.039062 131.953125 C 117.832031 132.199219 118.503906 132.40625 118.535156 132.40625 C 118.71875 132.417969 118.546875 127.824219 118.339844 127.066406 C 118.191406 126.535156 117.695312 125.769531 117.140625 125.214844 C 116.390625 124.464844 115.96875 124.234375 115.09375 124.105469 C 113.867188 123.917969 111.925781 124.273438 111.210938 124.808594 C 110.765625 125.140625 110.769531 125.15625 111.359375 125.652344 C 113.917969 127.808594 111.535156 131.773438 108.59375 130.25 C 107.621094 129.75 107.226562 129.042969 107.226562 127.800781 C 107.226562 126.550781 107.582031 125.738281 108.511719 124.875 C 110.789062 122.757812 116 122.265625 120.058594 123.785156 C 121.585938 124.355469 123.242188 125.855469 123.90625 127.257812 C 124.589844 128.710938 124.722656 130.585938 124.726562 139.019531 L 124.730469 147.109375 L 125.242188 147.566406 C 125.523438 147.820312 125.941406 148.09375 126.167969 148.175781 C 126.40625 148.257812 126.550781 148.492188 126.507812 148.722656 C 126.4375 149.078125 126.039062 149.125 122.511719 149.179688 C 118.710938 149.242188 118.59375 149.230469 118.59375 148.785156 C 118.59375 148.199219 118.507812 148.207031 116.683594 148.890625 C 114.445312 149.734375 112.152344 149.691406 110.21875 148.777344 Z M 116.546875 146.257812 C 120.230469 143.4375 121.355469 141.921875 121.355469 139.773438 C 121.355469 137.320312 119.785156 135.714844 117.417969 135.75 C 116.070312 135.769531 114.917969 136.453125 114.195312 137.667969 L 113.65625 138.570312 L 113.363281 137.863281 C 112.996094 136.972656 111.8125 136.058594 110.699219 135.804688 C 109.058594 135.429688 107.238281 136.324219 106.410156 137.910156 C 105.9375 138.820312 106.007812 140.734375 106.558594 141.871094 C 107.121094 143.035156 109.515625 145.339844 111.933594 147.042969 C 113.972656 148.484375 113.550781 148.554688 116.546875 146.257812 Z M 180.421875 149.132812 C 177.699219 148.128906 175.820312 146.800781 174.671875 145.074219 C 172.425781 141.683594 172.753906 137.601562 175.53125 134.515625 C 178.132812 131.621094 182.925781 130.6875 186.875 132.304688 C 187.277344 132.46875 187.292969 132.332031 187.21875 129.640625 C 187.140625 126.980469 187.097656 126.746094 186.496094 125.839844 C 185.199219 123.882812 182.179688 123.402344 180.027344 124.8125 L 179.457031 125.1875 L 180.164062 125.738281 C 181.59375 126.859375 181.511719 129.050781 180 130.070312 C 178.128906 131.328125 175.882812 130.066406 175.882812 127.753906 C 175.882812 124.359375 180.152344 122.320312 185.714844 123.058594 C 189.242188 123.527344 191.421875 124.882812 192.644531 127.371094 L 193.273438 128.660156 L 193.386719 137.886719 C 193.511719 147.804688 193.492188 147.660156 194.703125 148.121094 C 195.042969 148.25 195.210938 148.472656 195.164062 148.722656 C 195.09375 149.078125 194.6875 149.125 191.167969 149.179688 C 187.441406 149.242188 187.25 149.222656 187.25 148.808594 C 187.25 148.394531 187.195312 148.398438 185.941406 148.910156 C 184.441406 149.527344 181.785156 149.636719 180.421875 149.132812 Z M 185.847656 146.398438 C 189.625 143.550781 190.886719 141.847656 190.886719 139.59375 C 190.886719 137.082031 188.484375 135.183594 186.109375 135.820312 C 185.019531 136.113281 183.664062 137.242188 183.46875 138.019531 L 183.328125 138.574219 L 182.933594 137.925781 C 180.691406 134.242188 175.570312 135.453125 175.550781 139.679688 C 175.542969 141.3125 176.09375 142.425781 177.691406 143.984375 C 179.3125 145.5625 182.703125 148.09375 183.207031 148.09375 C 183.417969 148.09375 184.605469 147.332031 185.847656 146.398438 Z M 70.007812 148.847656 C 69.914062 148.601562 70.011719 148.378906 70.285156 148.222656 C 70.519531 148.089844 70.949219 147.757812 71.238281 147.480469 L 71.761719 146.980469 L 71.761719 125.113281 L 71.238281 124.613281 C 70.949219 124.335938 70.519531 124.003906 70.285156 123.871094 C 70.011719 123.714844 69.914062 123.492188 70.007812 123.246094 C 70.140625 122.90625 70.605469 122.863281 74.027344 122.863281 L 77.898438 122.863281 L 77.898438 125.625 L 78.492188 124.921875 C 79.460938 123.769531 80.917969 123.050781 82.542969 122.917969 C 85.308594 122.695312 87.296875 123.621094 88.601562 125.730469 L 89.082031 126.511719 L 89.746094 125.511719 C 91.003906 123.609375 92.917969 122.738281 95.4375 122.917969 C 98.179688 123.113281 100.070312 124.578125 100.886719 127.140625 C 101.066406 127.703125 101.1875 131.101562 101.257812 137.5 C 101.359375 146.972656 101.359375 147.023438 101.863281 147.503906 C 102.140625 147.765625 102.558594 148.089844 102.789062 148.222656 C 103.066406 148.382812 103.164062 148.601562 103.066406 148.855469 C 102.933594 149.207031 102.472656 149.238281 98.195312 149.179688 C 93.574219 149.121094 93.472656 149.109375 93.402344 148.636719 C 93.351562 148.277344 93.484375 148.113281 93.910156 148.007812 C 95.128906 147.699219 95.175781 147.308594 95.175781 137.707031 C 95.175781 132.050781 95.085938 128.558594 94.925781 127.976562 C 94.542969 126.566406 93.929688 126.042969 92.664062 126.042969 C 91.707031 126.042969 91.507812 126.140625 90.792969 126.929688 C 89.539062 128.316406 89.453125 129.113281 89.535156 138.582031 C 89.605469 146.539062 89.628906 146.933594 90.0625 147.417969 C 90.3125 147.695312 90.753906 148.011719 91.046875 148.121094 C 91.375 148.25 91.542969 148.472656 91.496094 148.722656 C 91.425781 149.085938 91.003906 149.121094 86.539062 149.121094 C 82.074219 149.121094 81.652344 149.085938 81.582031 148.722656 C 81.53125 148.472656 81.703125 148.25 82.03125 148.121094 C 82.324219 148.011719 82.765625 147.695312 83.015625 147.417969 C 83.453125 146.929688 83.46875 146.589844 83.46875 137.671875 C 83.46875 127.847656 83.398438 127.097656 82.378906 126.386719 C 82.109375 126.199219 81.441406 126.042969 80.886719 126.042969 C 80.046875 126.042969 79.769531 126.164062 79.164062 126.808594 C 77.953125 128.09375 77.898438 128.578125 77.898438 138.1875 L 77.898438 146.980469 L 78.457031 147.539062 C 78.765625 147.84375 79.171875 148.097656 79.367188 148.097656 C 79.589844 148.097656 79.71875 148.304688 79.71875 148.664062 L 79.71875 149.234375 L 74.9375 149.234375 C 70.664062 149.234375 70.140625 149.191406 70.007812 148.847656 Z M 128.457031 148.902344 C 128.296875 148.488281 128.527344 148.097656 128.933594 148.097656 C 129.105469 148.097656 129.457031 147.828125 129.714844 147.496094 C 130.179688 146.910156 130.1875 146.679688 130.1875 136.066406 C 130.1875 124.265625 130.210938 124.484375 128.898438 123.984375 C 128.539062 123.847656 128.363281 123.625 128.414062 123.371094 C 128.480469 123.011719 128.929688 122.96875 133.316406 122.914062 L 138.144531 122.851562 L 138.144531 123.425781 C 138.144531 123.789062 138.015625 124 137.792969 124 C 137.601562 124 137.191406 124.25 136.882812 124.554688 L 136.324219 125.113281 L 136.324219 146.980469 L 136.882812 147.539062 C 137.191406 147.84375 137.601562 148.097656 137.792969 148.097656 C 138.015625 148.097656 138.144531 148.304688 138.144531 148.664062 L 138.144531 149.234375 L 133.363281 149.234375 C 129.394531 149.234375 128.5625 149.175781 128.457031 148.902344 Z M 161.570312 149 C 159.902344 148.648438 158.183594 147.664062 156.558594 146.132812 C 152.105469 141.929688 151.195312 134.472656 154.425781 128.660156 C 155.367188 126.96875 157.5625 124.878906 159.289062 124.039062 C 162.566406 122.4375 166.648438 122.566406 168.984375 124.351562 C 171.308594 126.125 171.785156 130.144531 169.824219 131.429688 C 169.132812 131.882812 167.59375 131.859375 166.867188 131.382812 C 166.109375 130.886719 165.578125 129.578125 165.753906 128.640625 C 165.886719 127.945312 166.992188 126.714844 167.734375 126.4375 C 168.246094 126.246094 166.96875 125.128906 165.980469 124.90625 C 164.289062 124.523438 162.496094 125.222656 161.035156 126.839844 C 160.320312 127.636719 159.308594 129.945312 158.925781 131.675781 C 158.390625 134.070312 158.566406 138.847656 159.25 140.59375 C 160.457031 143.679688 162.640625 145.367188 165.425781 145.367188 C 166.796875 145.367188 167.089844 145.285156 168.070312 144.613281 C 168.769531 144.136719 169.460938 143.382812 169.949219 142.566406 C 170.550781 141.554688 170.839844 141.277344 171.28125 141.277344 C 171.804688 141.277344 171.832031 141.332031 171.6875 142.128906 C 171.25 144.535156 169.105469 147.371094 166.90625 148.445312 C 165.558594 149.105469 163.226562 149.347656 161.570312 149 Z M 225.785156 148.917969 C 222.113281 148.023438 219.371094 145.292969 218.011719 141.179688 C 217.464844 139.53125 217.40625 139.007812 217.40625 136.046875 C 217.40625 133.09375 217.464844 132.5625 218.003906 130.933594 C 219.933594 125.101562 224.175781 122.140625 229.230469 123.09375 C 232.34375 123.683594 234.828125 126.195312 236.015625 129.960938 C 236.636719 131.917969 237.226562 136.140625 236.972656 136.800781 C 236.839844 137.148438 236.207031 137.183594 230.109375 137.183594 L 223.398438 137.183594 L 223.398438 137.835938 C 223.398438 138.863281 223.777344 140.609375 224.320312 142.058594 C 224.992188 143.847656 226.753906 145.675781 228.171875 146.054688 C 230.011719 146.546875 232.261719 146.050781 233.414062 144.902344 C 234.035156 144.277344 233.96875 144.074219 233.074219 143.90625 C 230.730469 143.46875 230.410156 139.945312 232.617188 138.898438 C 233.683594 138.394531 234.734375 138.582031 235.65625 139.441406 C 236.289062 140.03125 236.355469 140.226562 236.355469 141.472656 C 236.355469 146.632812 231.226562 150.242188 225.785156 148.917969 Z M 230.773438 133.148438 C 230.488281 128.96875 229.75 126.265625 228.617188 125.242188 C 228.054688 124.730469 227.023438 124.714844 226.273438 125.203125 C 224.976562 126.054688 223.40625 130.886719 223.398438 134.058594 L 223.398438 135.363281 L 230.925781 135.363281 Z M 245.507812 148.980469 C 243.039062 148.570312 240.890625 147.082031 239.898438 145.09375 C 238.464844 142.21875 239.796875 139.003906 242.421875 139.003906 C 243.285156 139.003906 243.570312 139.125 244.222656 139.777344 C 244.882812 140.433594 244.996094 140.703125 244.996094 141.617188 C 244.996094 142.527344 244.882812 142.796875 244.222656 143.457031 C 243.539062 144.140625 243.308594 144.230469 242.261719 144.230469 L 241.070312 144.230469 L 241.636719 144.96875 C 241.945312 145.375 242.648438 145.964844 243.199219 146.277344 C 244.0625 146.769531 244.476562 146.84375 246.246094 146.84375 C 248.082031 146.839844 248.414062 146.769531 249.515625 146.164062 C 250.917969 145.390625 251.804688 144.21875 251.957031 142.941406 C 252.167969 141.148438 250.835938 139.980469 246.949219 138.554688 C 241.492188 136.554688 239.707031 134.609375 239.699219 130.652344 C 239.699219 129.007812 239.785156 128.609375 240.425781 127.304688 C 241.617188 124.882812 243.628906 123.558594 246.878906 123.050781 C 250.09375 122.554688 253.09375 123.449219 254.402344 125.296875 C 255.359375 126.652344 255.640625 127.5 255.664062 129.078125 C 255.679688 130.300781 255.617188 130.472656 254.90625 131.183594 C 254.246094 131.84375 253.976562 131.953125 253.066406 131.953125 C 252.152344 131.953125 251.882812 131.84375 251.222656 131.183594 C 250.5625 130.523438 250.449219 130.253906 250.449219 129.339844 C 250.449219 128.429688 250.5625 128.160156 251.222656 127.5 C 251.917969 126.804688 252.480469 126.597656 253.347656 126.710938 C 253.871094 126.777344 253.644531 126.300781 252.875 125.714844 C 251.585938 124.730469 249.457031 124.519531 247.339844 125.167969 C 246.304688 125.484375 245.078125 126.929688 244.886719 128.0625 C 244.527344 130.171875 246.03125 131.503906 250.429688 132.972656 C 251.753906 133.414062 253.367188 134.082031 254.011719 134.449219 C 256.945312 136.132812 258.164062 139.410156 257.136719 142.859375 C 255.785156 147.414062 251.050781 149.90625 245.507812 148.980469 Z M 131.753906 120.246094 C 129.820312 119.195312 129.847656 116.015625 131.800781 115.007812 C 133.441406 114.15625 135.492188 114.953125 136.089844 116.675781 C 136.386719 117.515625 136.386719 117.75 136.089844 118.589844 C 135.492188 120.3125 133.367188 121.125 131.753906 120.246094 Z M 131.753906 120.246094 "/></g></svg>