<svg xmlns="http://www.w3.org/2000/svg" xmlns:xlink="http://www.w3.org/1999/xlink" width="500" zoomAndPan="magnify" viewBox="0 0 375 374.999991" height="500" preserveAspectRatio="xMidYMid meet" version="1.2"><g id="2b2a0a837b"><path style=" stroke:none;fill-rule:nonzero;fill:#e8c6cb;fill-opacity:1;" d="M 251.621094 242.355469 C 245.542969 241.566406 241.035156 238.011719 238.019531 231.628906 C 236.441406 228.289062 235.605469 225.722656 233.976562 219.207031 C 231.914062 210.957031 231.144531 209.070312 229.40625 208.015625 C 227.519531 206.863281 227.5625 206.714844 227.5625 214.335938 C 227.5625 221.769531 227.675781 222.417969 229.078125 223.054688 C 229.507812 223.25 229.796875 223.613281 229.796875 223.953125 C 229.796875 224.511719 229.675781 224.519531 223.871094 224.449219 C 218.484375 224.378906 217.933594 224.328125 217.847656 223.882812 C 217.789062 223.578125 217.996094 223.304688 218.402344 223.148438 C 218.757812 223.011719 219.300781 222.621094 219.609375 222.28125 C 220.152344 221.675781 220.167969 221.210938 220.246094 203.140625 L 220.320312 184.621094 L 219.40625 184.476562 C 218.902344 184.394531 217.109375 184.128906 215.421875 183.882812 C 213.730469 183.636719 206.90625 182.058594 200.253906 180.375 C 186.71875 176.953125 182.949219 176.214844 179.035156 176.222656 C 171.703125 176.238281 166.230469 179.296875 164.515625 184.34375 L 164.03125 185.769531 L 163.15625 185.03125 C 161.371094 183.53125 160.808594 179.234375 161.980469 176.097656 C 162.800781 173.902344 164.875 171.839844 167.558594 170.546875 C 170.875 168.953125 172.882812 168.570312 178.015625 168.554688 C 182.195312 168.542969 182.710938 168.601562 186.097656 169.476562 C 190.59375 170.636719 194.203125 171.921875 204.671875 176.09375 C 209.203125 177.898438 214.542969 179.914062 216.539062 180.574219 L 220.167969 181.777344 L 220.390625 180.324219 C 220.515625 179.523438 220.921875 177.425781 221.292969 175.660156 C 222.855469 168.214844 227.117188 162.902344 232.996094 161.070312 C 235.359375 160.332031 240.957031 160.203125 243.476562 160.824219 C 247.453125 161.808594 251.261719 164.457031 252.824219 167.328125 C 253.480469 168.53125 253.65625 169.25 253.753906 171.105469 C 253.863281 173.191406 253.800781 173.546875 253.046875 175.15625 C 250.464844 180.675781 242.378906 184.339844 231.796875 184.785156 C 229.230469 184.894531 227.75 185.070312 227.671875 185.269531 C 227.605469 185.445312 227.585938 188.15625 227.628906 191.300781 L 227.703125 197.015625 L 228.390625 195.621094 C 230.910156 190.488281 237.09375 188.625 240.792969 191.882812 C 242.75 193.605469 243.136719 195.824219 241.925781 198.421875 C 241.105469 200.1875 237.503906 203.601562 235.03125 204.953125 C 233.839844 205.605469 232.867188 206.191406 232.867188 206.257812 C 232.867188 206.324219 233.203125 206.910156 233.617188 207.558594 C 234.027344 208.207031 235.539062 211.25 236.976562 214.316406 C 241.214844 223.355469 243.066406 226.433594 246.164062 229.601562 C 249.292969 232.800781 252.070312 234.253906 255.484375 234.488281 C 258.582031 234.699219 259.980469 234.253906 261.785156 232.484375 C 262.578125 231.707031 263.296875 230.882812 263.382812 230.652344 C 263.515625 230.296875 263.601562 230.308594 263.945312 230.734375 C 264.539062 231.464844 264.746094 233.363281 264.421875 235.074219 C 263.621094 239.285156 261.140625 241.679688 256.875 242.363281 C 254.84375 242.6875 254.160156 242.6875 251.621094 242.355469 Z M 230.40625 203.515625 C 234.179688 201.53125 236.671875 197.617188 235.199219 195.992188 C 234.136719 194.816406 231.894531 195.613281 229.800781 197.902344 C 228.292969 199.554688 227.5625 201.375 227.5625 203.503906 C 227.5625 204.644531 227.609375 204.714844 228.191406 204.539062 C 228.539062 204.433594 229.535156 203.972656 230.40625 203.515625 Z M 232.597656 182.625 C 239.277344 181.796875 243.832031 179.304688 245.878906 175.355469 C 246.554688 174.054688 246.664062 173.515625 246.675781 171.472656 C 246.683594 169.429688 246.578125 168.878906 245.910156 167.519531 C 244.984375 165.632812 243.386719 163.914062 241.742188 163.042969 C 240.058594 162.148438 236.695312 162.160156 234.625 163.074219 C 231.898438 164.277344 229.53125 167.507812 228.542969 171.390625 C 228.019531 173.445312 227.574219 177.640625 227.570312 180.613281 L 227.5625 182.917969 L 228.898438 182.917969 C 229.632812 182.917969 231.296875 182.785156 232.597656 182.625 Z M 16.246094 240.421875 C 13.007812 239.902344 10.644531 238.703125 8.65625 236.578125 C 6.15625 233.910156 5.226562 231.121094 5.417969 226.867188 C 5.53125 224.316406 5.648438 223.804688 6.554688 221.894531 C 7.78125 219.308594 9.757812 217.238281 11.992188 216.191406 C 13.308594 215.574219 14.078125 215.425781 16.328125 215.34375 C 18.828125 215.253906 19.191406 215.308594 20.570312 215.984375 C 23.339844 217.339844 24.730469 219.71875 24.738281 223.117188 C 24.742188 224.914062 24.628906 225.421875 23.917969 226.714844 C 23.035156 228.320312 21.6875 229.410156 20.21875 229.703125 C 19.359375 229.875 18.953125 229.515625 19.578125 229.128906 C 20.132812 228.785156 20.503906 226.097656 20.171875 224.855469 C 18.753906 219.59375 11.445312 220.171875 9.125 225.726562 C 8.417969 227.417969 8.527344 230.628906 9.347656 232.398438 C 10.816406 235.5625 13.34375 237.15625 17.136719 237.308594 C 20.265625 237.4375 21.875 236.921875 23.824219 235.167969 C 28.265625 231.183594 30.191406 224.886719 32.429688 207.066406 C 32.890625 203.378906 33.269531 200.207031 33.269531 200.015625 C 33.273438 199.574219 31.316406 199.554688 29.339844 199.976562 C 27.578125 200.355469 25.636719 202.003906 24.839844 203.792969 C 23.820312 206.085938 24.238281 209.074219 25.683594 209.832031 L 26.394531 210.203125 L 25.746094 210.546875 C 25.359375 210.757812 24.460938 210.847656 23.492188 210.777344 C 21.503906 210.636719 20.203125 209.734375 19.308594 207.886719 C 18.789062 206.8125 18.707031 206.273438 18.820312 204.601562 C 19.054688 201.007812 21.078125 198.289062 24.847656 196.503906 C 26.636719 195.65625 26.859375 195.621094 30.261719 195.621094 L 33.804688 195.621094 L 33.949219 194.640625 C 35.519531 183.980469 37 177.46875 38.960938 172.589844 C 43.054688 162.390625 48.671875 157.664062 57.710938 156.804688 C 64.984375 156.113281 70.683594 160.097656 70.679688 165.871094 C 70.675781 168.933594 69.382812 171.457031 67.144531 172.773438 C 65.960938 173.46875 65.523438 173.5625 63.5625 173.554688 C 61.03125 173.539062 59.546875 172.953125 58.308594 171.484375 C 57.132812 170.085938 57.007812 167.519531 58.019531 165.539062 C 58.546875 164.511719 58.757812 164.570312 59.34375 165.898438 C 60.007812 167.402344 60.894531 167.957031 62.324219 167.765625 C 63.738281 167.574219 64.121094 167.253906 64.6875 165.769531 C 65.242188 164.308594 64.921875 162.757812 63.777344 161.394531 C 62.601562 160 61.144531 159.480469 58.398438 159.480469 C 54.75 159.472656 52.347656 160.25 49.675781 162.292969 C 43.925781 166.679688 41.265625 175.976562 40.65625 193.804688 L 40.488281 198.691406 L 41.757812 199.621094 C 43.449219 200.867188 45.835938 204.042969 47.144531 206.785156 L 48.207031 209.019531 L 48.28125 192.503906 C 48.324219 182.070312 48.25 175.71875 48.074219 175.257812 C 47.921875 174.859375 47.351562 174.265625 46.804688 173.941406 C 46.195312 173.582031 45.84375 173.179688 45.894531 172.902344 C 45.972656 172.5 46.667969 172.449219 51.976562 172.449219 C 57.285156 172.449219 57.980469 172.5 58.058594 172.902344 C 58.113281 173.179688 57.765625 173.582031 57.171875 173.929688 C 56.496094 174.328125 56.101562 174.828125 55.878906 175.570312 C 55.648438 176.347656 55.589844 183.433594 55.671875 201.621094 C 55.78125 226.285156 55.789062 226.632812 56.390625 228.816406 C 57.121094 231.457031 58.042969 233.109375 59.40625 234.238281 C 61.160156 235.679688 64.003906 236.085938 65.585938 235.121094 C 66.734375 234.421875 66.761719 234.925781 65.628906 235.980469 C 64.035156 237.46875 60.582031 238.019531 57.226562 237.324219 C 55.3125 236.929688 53.761719 236.023438 52.328125 234.464844 C 49.730469 231.652344 48.726562 228.277344 48.347656 221.132812 C 47.964844 213.828125 46.953125 209.824219 44.601562 206.277344 C 43.648438 204.84375 40.574219 201.765625 40.335938 202.003906 C 40.28125 202.058594 40.054688 204.789062 39.828125 208.070312 C 39.601562 211.355469 39.285156 214.984375 39.121094 216.136719 C 37.109375 230.550781 32.605469 237.875 24.457031 239.972656 C 22.351562 240.515625 18.226562 240.742188 16.246094 240.421875 Z M 111.199219 223.953125 C 108.902344 222.867188 106.113281 220.109375 105.078125 217.902344 C 104.417969 216.488281 104.316406 215.929688 104.316406 213.625 C 104.316406 211.335938 104.421875 210.753906 105.0625 209.390625 C 107.519531 204.144531 113.835938 201.492188 119.578125 203.292969 C 120.550781 203.597656 121.378906 203.847656 121.417969 203.851562 C 121.640625 203.863281 121.429688 198.222656 121.171875 197.296875 C 120.992188 196.640625 120.386719 195.703125 119.703125 195.019531 C 118.78125 194.097656 118.261719 193.816406 117.1875 193.65625 C 115.683594 193.429688 113.296875 193.863281 112.417969 194.523438 C 111.875 194.929688 111.878906 194.949219 112.601562 195.558594 C 115.746094 198.207031 112.820312 203.070312 109.207031 201.203125 C 108.011719 200.585938 107.527344 199.71875 107.527344 198.195312 C 107.527344 196.660156 107.96875 195.664062 109.109375 194.601562 C 111.90625 192.003906 118.300781 191.398438 123.285156 193.265625 C 125.160156 193.964844 127.195312 195.804688 128.007812 197.527344 C 128.851562 199.3125 129.011719 201.613281 129.019531 211.972656 L 129.023438 221.902344 L 129.652344 222.46875 C 129.996094 222.777344 130.507812 223.113281 130.789062 223.214844 C 131.082031 223.316406 131.257812 223.601562 131.203125 223.882812 C 131.117188 224.324219 130.625 224.378906 126.296875 224.449219 C 121.628906 224.523438 121.484375 224.507812 121.484375 223.960938 C 121.484375 223.242188 121.378906 223.25 119.140625 224.09375 C 116.394531 225.125 113.578125 225.078125 111.199219 223.953125 Z M 118.972656 220.859375 C 123.5 217.394531 124.875 215.535156 124.875 212.898438 C 124.875 209.886719 122.949219 207.914062 120.042969 207.957031 C 118.386719 207.980469 116.972656 208.820312 116.085938 210.308594 L 115.425781 211.417969 L 115.0625 210.550781 C 114.609375 209.457031 113.160156 208.335938 111.792969 208.023438 C 109.777344 207.566406 107.546875 208.660156 106.527344 210.609375 C 105.945312 211.722656 106.03125 214.078125 106.707031 215.472656 C 107.398438 216.902344 110.339844 219.730469 113.308594 221.824219 C 115.8125 223.59375 115.292969 223.679688 118.972656 220.859375 Z M 197.40625 224.386719 C 194.0625 223.15625 191.757812 221.527344 190.347656 219.402344 C 187.585938 215.242188 187.992188 210.230469 191.398438 206.441406 C 194.59375 202.886719 200.480469 201.738281 205.332031 203.726562 C 205.824219 203.925781 205.84375 203.757812 205.75 200.457031 C 205.65625 197.1875 205.601562 196.902344 204.863281 195.785156 C 203.273438 193.382812 199.566406 192.792969 196.921875 194.523438 L 196.222656 194.984375 L 197.085938 195.664062 C 198.847656 197.039062 198.746094 199.730469 196.886719 200.984375 C 194.589844 202.527344 191.832031 200.976562 191.832031 198.136719 C 191.832031 193.96875 197.074219 191.464844 203.902344 192.371094 C 208.234375 192.945312 210.910156 194.613281 212.410156 197.667969 L 213.1875 199.25 L 213.328125 210.582031 C 213.476562 222.761719 213.453125 222.582031 214.941406 223.144531 C 215.355469 223.304688 215.566406 223.578125 215.507812 223.882812 C 215.421875 224.324219 214.925781 224.378906 210.601562 224.449219 C 206.023438 224.519531 205.789062 224.5 205.789062 223.992188 C 205.789062 223.480469 205.722656 223.484375 204.183594 224.117188 C 202.34375 224.875 199.082031 225.003906 197.40625 224.386719 Z M 204.066406 221.03125 C 208.707031 217.535156 210.257812 215.445312 210.257812 212.675781 C 210.257812 209.589844 207.304688 207.257812 204.390625 208.042969 C 203.054688 208.402344 201.386719 209.789062 201.148438 210.742188 L 200.976562 211.425781 L 200.492188 210.628906 C 197.738281 206.101562 191.449219 207.59375 191.421875 212.78125 C 191.414062 214.785156 192.09375 216.152344 194.054688 218.066406 C 196.042969 220.003906 200.207031 223.109375 200.824219 223.113281 C 201.085938 223.113281 202.546875 222.179688 204.066406 221.03125 Z M 61.828125 224.042969 C 61.710938 223.738281 61.832031 223.464844 62.167969 223.273438 C 62.457031 223.109375 62.980469 222.699219 63.335938 222.359375 L 63.980469 221.746094 L 63.980469 194.894531 L 63.335938 194.28125 C 62.980469 193.941406 62.457031 193.53125 62.167969 193.367188 C 61.832031 193.175781 61.710938 192.902344 61.828125 192.601562 C 61.988281 192.183594 62.5625 192.128906 66.761719 192.128906 L 71.519531 192.128906 L 71.519531 195.523438 L 72.246094 194.660156 C 73.433594 193.246094 75.222656 192.359375 77.21875 192.199219 C 80.613281 191.929688 83.058594 193.0625 84.660156 195.652344 L 85.25 196.609375 L 86.0625 195.382812 C 87.609375 193.046875 89.960938 191.976562 93.054688 192.199219 C 96.417969 192.4375 98.742188 194.238281 99.746094 197.382812 C 99.964844 198.074219 100.113281 202.246094 100.199219 210.105469 C 100.320312 221.734375 100.324219 221.800781 100.941406 222.386719 C 101.28125 222.710938 101.792969 223.109375 102.082031 223.273438 C 102.421875 223.464844 102.539062 223.738281 102.421875 224.046875 C 102.253906 224.476562 101.691406 224.515625 96.4375 224.449219 C 90.761719 224.375 90.636719 224.359375 90.554688 223.777344 C 90.492188 223.339844 90.65625 223.136719 91.179688 223.007812 C 92.675781 222.628906 92.734375 222.152344 92.730469 210.359375 C 92.730469 203.414062 92.621094 199.128906 92.425781 198.410156 C 91.953125 196.679688 91.203125 196.039062 89.644531 196.039062 C 88.472656 196.039062 88.226562 196.15625 87.347656 197.125 C 85.808594 198.832031 85.703125 199.808594 85.804688 211.433594 C 85.890625 221.203125 85.917969 221.691406 86.453125 222.28125 C 86.757812 222.621094 87.300781 223.011719 87.660156 223.148438 C 88.066406 223.304688 88.273438 223.578125 88.214844 223.882812 C 88.128906 224.332031 87.609375 224.371094 82.125 224.371094 C 76.640625 224.371094 76.125 224.332031 76.039062 223.882812 C 75.980469 223.578125 76.1875 223.304688 76.59375 223.148438 C 76.949219 223.011719 77.492188 222.621094 77.796875 222.28125 C 78.335938 221.683594 78.355469 221.269531 78.355469 210.316406 C 78.355469 198.25 78.269531 197.335938 77.015625 196.457031 C 76.6875 196.226562 75.863281 196.039062 75.1875 196.039062 C 74.152344 196.039062 73.816406 196.1875 73.070312 196.976562 C 71.582031 198.554688 71.519531 199.148438 71.519531 210.949219 L 71.519531 221.746094 L 72.203125 222.429688 C 72.578125 222.808594 73.082031 223.117188 73.320312 223.117188 C 73.59375 223.117188 73.75 223.371094 73.75 223.8125 L 73.75 224.511719 L 67.878906 224.511719 C 62.628906 224.511719 61.988281 224.460938 61.828125 224.042969 Z M 133.597656 224.105469 C 133.398438 223.597656 133.683594 223.117188 134.183594 223.117188 C 134.394531 223.117188 134.824219 222.785156 135.144531 222.378906 C 135.710938 221.660156 135.722656 221.378906 135.722656 208.34375 C 135.722656 193.851562 135.75 194.121094 134.140625 193.507812 C 133.699219 193.339844 133.484375 193.070312 133.542969 192.757812 C 133.628906 192.3125 134.179688 192.261719 139.566406 192.195312 L 145.492188 192.117188 L 145.492188 192.824219 C 145.492188 193.269531 145.335938 193.527344 145.0625 193.527344 C 144.824219 193.527344 144.320312 193.835938 143.945312 194.210938 L 143.261719 194.894531 L 143.261719 221.746094 L 143.945312 222.429688 C 144.320312 222.808594 144.824219 223.117188 145.0625 223.117188 C 145.335938 223.117188 145.492188 223.371094 145.492188 223.8125 L 145.492188 224.511719 L 139.621094 224.511719 C 134.746094 224.511719 133.726562 224.441406 133.597656 224.105469 Z M 174.257812 224.222656 C 172.210938 223.792969 170.101562 222.585938 168.105469 220.703125 C 162.636719 215.546875 161.515625 206.386719 165.484375 199.25 C 166.640625 197.171875 169.335938 194.609375 171.453125 193.574219 C 175.480469 191.609375 180.492188 191.769531 183.363281 193.960938 C 186.214844 196.136719 186.800781 201.074219 184.390625 202.652344 C 183.542969 203.207031 181.652344 203.179688 180.761719 202.59375 C 179.828125 201.984375 179.179688 200.378906 179.394531 199.226562 C 179.554688 198.371094 180.917969 196.859375 181.824219 196.519531 C 182.457031 196.285156 180.886719 194.914062 179.671875 194.640625 C 177.59375 194.167969 175.394531 195.03125 173.601562 197.015625 C 172.722656 197.992188 171.480469 200.828125 171.011719 202.953125 C 170.355469 205.894531 170.570312 211.757812 171.40625 213.902344 C 172.890625 217.695312 175.574219 219.765625 178.992188 219.765625 C 180.675781 219.765625 181.035156 219.664062 182.242188 218.839844 C 183.097656 218.257812 183.949219 217.328125 184.542969 216.328125 C 185.289062 215.082031 185.636719 214.742188 186.179688 214.742188 C 186.824219 214.742188 186.859375 214.808594 186.679688 215.789062 C 186.144531 218.746094 183.511719 222.222656 180.808594 223.546875 C 179.15625 224.355469 176.289062 224.652344 174.257812 224.222656 Z M 253.105469 224.125 C 248.597656 223.027344 245.230469 219.675781 243.5625 214.625 C 242.890625 212.597656 242.816406 211.957031 242.816406 208.320312 C 242.816406 204.691406 242.894531 204.042969 243.554688 202.039062 C 245.921875 194.882812 251.128906 191.246094 257.339844 192.417969 C 261.164062 193.140625 264.210938 196.222656 265.671875 200.847656 C 266.429688 203.25 267.15625 208.433594 266.84375 209.246094 C 266.679688 209.671875 265.90625 209.714844 258.417969 209.714844 L 250.175781 209.714844 L 250.175781 210.515625 C 250.175781 211.78125 250.644531 213.921875 251.308594 215.703125 C 252.132812 217.898438 254.296875 220.144531 256.039062 220.609375 C 258.300781 221.210938 261.0625 220.605469 262.472656 219.191406 C 263.238281 218.425781 263.15625 218.179688 262.054688 217.972656 C 259.179688 217.433594 258.785156 213.109375 261.496094 211.820312 C 262.804688 211.203125 264.097656 211.433594 265.230469 212.488281 C 266.003906 213.214844 266.085938 213.453125 266.085938 214.984375 C 266.085938 221.316406 259.792969 225.753906 253.105469 224.125 Z M 259.234375 204.761719 C 258.878906 199.628906 257.976562 196.308594 256.585938 195.050781 C 255.894531 194.425781 254.625 194.40625 253.707031 195.007812 C 252.113281 196.050781 250.1875 201.988281 250.179688 205.878906 L 250.175781 207.484375 L 259.421875 207.484375 Z M 277.324219 224.203125 C 274.292969 223.695312 271.652344 221.867188 270.4375 219.429688 C 268.679688 215.898438 270.3125 211.949219 273.535156 211.949219 C 274.597656 211.949219 274.945312 212.097656 275.746094 212.898438 C 276.554688 213.710938 276.695312 214.039062 276.695312 215.160156 C 276.695312 216.28125 276.554688 216.609375 275.746094 217.421875 C 274.910156 218.257812 274.625 218.371094 273.335938 218.371094 L 271.878906 218.371094 L 272.570312 219.277344 C 272.953125 219.777344 273.816406 220.5 274.492188 220.882812 C 275.550781 221.484375 276.058594 221.578125 278.230469 221.574219 C 280.488281 221.570312 280.894531 221.488281 282.25 220.742188 C 283.96875 219.796875 285.058594 218.355469 285.246094 216.785156 C 285.503906 214.585938 283.871094 213.152344 279.09375 211.402344 C 272.394531 208.945312 270.203125 206.554688 270.195312 201.699219 C 270.191406 199.675781 270.296875 199.1875 271.085938 197.589844 C 272.546875 194.613281 275.019531 192.984375 279.007812 192.363281 C 282.953125 191.75 286.640625 192.851562 288.246094 195.121094 C 289.421875 196.78125 289.769531 197.828125 289.792969 199.765625 C 289.8125 201.261719 289.738281 201.476562 288.867188 202.347656 C 288.054688 203.15625 287.726562 203.296875 286.605469 203.296875 C 285.484375 203.296875 285.152344 203.15625 284.34375 202.347656 C 283.535156 201.535156 283.394531 201.207031 283.394531 200.085938 C 283.394531 198.964844 283.535156 198.636719 284.34375 197.824219 C 285.195312 196.972656 285.886719 196.714844 286.953125 196.855469 C 287.59375 196.9375 287.3125 196.355469 286.371094 195.636719 C 284.785156 194.425781 282.175781 194.167969 279.574219 194.960938 C 278.300781 195.347656 276.796875 197.125 276.5625 198.515625 C 276.125 201.109375 277.96875 202.742188 283.367188 204.546875 C 284.996094 205.089844 286.972656 205.90625 287.765625 206.359375 C 291.371094 208.425781 292.867188 212.449219 291.605469 216.6875 C 289.945312 222.277344 284.132812 225.335938 277.324219 224.203125 Z M 137.648438 188.921875 C 135.269531 187.628906 135.304688 183.726562 137.703125 182.484375 C 139.71875 181.441406 142.238281 182.421875 142.972656 184.53125 C 143.332031 185.566406 143.332031 185.851562 142.972656 186.886719 C 142.234375 189 139.625 189.996094 137.648438 188.921875 Z M 137.648438 188.921875 "/><path style=" stroke:none;fill-rule:nonzero;fill:#e8c6cb;fill-opacity:1;" d="M 318.660156 235.757812 C 317.878906 235.699219 316.078125 235.582031 314.660156 235.492188 C 313.238281 235.402344 311.347656 235.246094 310.449219 235.140625 C 307.574219 234.808594 303.257812 234.183594 302.902344 234.050781 C 302.800781 234.015625 302.347656 233.925781 301.902344 233.855469 C 299.457031 233.46875 295.378906 232.285156 293.011719 231.273438 C 289.667969 229.84375 288.132812 228.488281 288.015625 226.855469 C 287.96875 226.175781 288.011719 226.027344 288.417969 225.414062 C 288.667969 225.039062 289.175781 224.5 289.550781 224.214844 C 290.914062 223.171875 294.03125 221.847656 296.585938 221.230469 C 297.167969 221.085938 297.726562 220.90625 297.820312 220.828125 C 297.957031 220.710938 297.929688 220.402344 297.683594 219.277344 C 297.097656 216.589844 296.902344 214.414062 296.992188 211.632812 C 297.082031 208.882812 297.210938 207.773438 297.644531 206.082031 C 298.152344 204.105469 298.6875 203.414062 300.046875 202.992188 C 301.09375 202.664062 302.042969 202.648438 303.429688 202.941406 C 304.597656 203.183594 304.777344 203.261719 305.597656 203.894531 C 306.019531 204.21875 306.320312 204.335938 306.726562 204.34375 C 307.355469 204.351562 307.746094 204.570312 308.367188 205.257812 C 308.601562 205.519531 308.921875 205.765625 309.078125 205.8125 C 309.605469 205.957031 311.65625 206.722656 312.816406 207.207031 C 314.003906 207.707031 314.542969 207.902344 316.828125 208.679688 C 319.253906 209.5 320.765625 210.234375 321.195312 210.804688 C 321.441406 211.128906 321.535156 211.832031 321.382812 212.234375 C 321.136719 212.882812 320.847656 212.902344 317.914062 212.472656 C 316.367188 212.242188 313.742188 211.277344 311.148438 209.980469 C 310.25 209.53125 309.445312 209.164062 309.351562 209.164062 C 309.261719 209.164062 309 209.550781 308.765625 210.023438 C 308.535156 210.492188 308.222656 211.070312 308.074219 211.308594 C 307.734375 211.839844 307.816406 212.082031 308.425781 212.304688 C 309.074219 212.539062 310.433594 213.488281 311.308594 214.3125 C 312.042969 215 313.65625 216.957031 314.410156 218.070312 L 314.820312 218.679688 L 325.59375 218.734375 L 325.996094 218.394531 C 326.21875 218.207031 326.398438 217.980469 326.402344 217.894531 C 326.40625 217.804688 326.523438 217.492188 326.660156 217.191406 C 326.910156 216.660156 326.910156 216.644531 326.652344 216.300781 C 325.652344 214.972656 323.332031 211.78125 322.667969 210.8125 C 322.230469 210.167969 321.070312 208.5625 320.097656 207.238281 C 319.121094 205.914062 318.261719 204.730469 318.1875 204.609375 C 317.78125 203.933594 316.421875 202.011719 316.25 201.871094 C 316.144531 201.777344 316.003906 201.5625 315.9375 201.390625 C 315.828125 201.101562 315.738281 201.078125 314.753906 201.078125 C 312.117188 201.078125 310.140625 200.160156 307.929688 197.914062 C 307.140625 197.109375 307.109375 197.09375 306.414062 197.113281 C 305.238281 197.148438 304.066406 196.839844 303.1875 196.265625 C 302.332031 195.707031 301.851562 195.066406 301.40625 193.886719 C 301.152344 193.21875 301.078125 193.144531 300.363281 192.84375 C 299.941406 192.667969 299.300781 192.351562 298.941406 192.140625 C 298.585938 191.925781 298.257812 191.753906 298.214844 191.753906 C 298.035156 191.753906 296.398438 190.335938 295.542969 189.4375 C 295.03125 188.902344 294.585938 188.464844 294.550781 188.464844 C 294.382812 188.464844 293.261719 189.351562 292.46875 190.117188 C 290.453125 192.050781 289.371094 192.621094 287.71875 192.625 C 286.855469 192.625 286.5625 192.558594 285.804688 192.191406 C 284.382812 191.503906 283.03125 190.1875 282.105469 188.578125 C 281.902344 188.226562 281.410156 187.585938 281.011719 187.152344 L 280.285156 186.367188 L 279.6875 186.519531 C 279.359375 186.601562 278.9375 186.632812 278.753906 186.585938 C 278.257812 186.460938 277.355469 185.769531 277.082031 185.304688 C 276.90625 185 276.746094 184.898438 276.441406 184.898438 C 275.929688 184.898438 275.125 184.5625 274.722656 184.179688 C 274.550781 184.015625 274.273438 183.613281 274.109375 183.28125 C 273.945312 182.949219 273.632812 182.496094 273.410156 182.277344 C 273.023438 181.894531 272.964844 181.882812 271.644531 181.882812 C 269.355469 181.878906 268.445312 181.230469 268.445312 179.597656 C 268.449219 178.542969 269.171875 177.585938 270.304688 177.148438 C 270.867188 176.933594 271.039062 176.921875 271.757812 177.074219 C 272.203125 177.167969 272.804688 177.363281 273.09375 177.511719 C 273.378906 177.660156 273.664062 177.75 273.722656 177.710938 C 273.785156 177.671875 273.871094 177.308594 273.910156 176.898438 C 274.027344 175.75 274.730469 174.605469 275.542969 174.238281 C 276.054688 174.007812 276.609375 174.023438 277.253906 174.285156 C 277.742188 174.480469 277.816406 174.480469 278.121094 174.28125 C 278.304688 174.15625 278.765625 174.023438 279.148438 173.976562 C 279.929688 173.882812 279.871094 173.980469 280.183594 172.238281 C 280.6875 169.449219 281.34375 168.640625 282.601562 169.257812 C 283.445312 169.667969 284.167969 170.691406 284.328125 171.691406 C 284.453125 172.484375 284.425781 172.691406 283.921875 174.765625 C 283.796875 175.285156 283.820312 175.679688 284.046875 177.011719 C 284.386719 178.992188 284.410156 180.496094 284.105469 181.089844 C 283.949219 181.398438 283.910156 181.710938 283.964844 182.203125 C 284.050781 182.929688 283.859375 183.96875 283.558594 184.414062 C 283.457031 184.5625 283.375 184.757812 283.375 184.847656 C 283.375 184.992188 285.617188 186.953125 286.902344 187.941406 C 287.882812 188.691406 288.167969 188.578125 290.53125 186.511719 C 292.203125 185.046875 292.199219 185.0625 291.542969 183.726562 C 291.246094 183.125 290.941406 182.421875 290.863281 182.15625 C 290.789062 181.894531 290.585938 181.214844 290.417969 180.648438 C 290.140625 179.722656 290.109375 179.332031 290.101562 176.742188 C 290.097656 173.484375 290.214844 172.875 291.082031 171.710938 L 291.558594 171.070312 L 291.574219 167.941406 C 291.585938 165.230469 291.628906 164.625 291.894531 163.410156 C 292.382812 161.179688 293.128906 159.722656 294.582031 158.164062 C 295.050781 157.664062 295.214844 157.339844 295.449219 156.449219 C 296.089844 154.050781 297.058594 151.996094 297.914062 151.210938 C 298.144531 151 298.675781 150.464844 299.097656 150.023438 C 300.914062 148.117188 303.265625 146.917969 306.542969 146.226562 C 307.480469 146.027344 308.253906 145.957031 309.164062 145.988281 C 310.292969 146.023438 310.519531 145.988281 310.957031 145.726562 C 311.917969 145.15625 312.679688 144.980469 314.25 144.972656 C 315.257812 144.96875 315.898438 145.03125 316.21875 145.167969 L 316.695312 145.363281 L 316.710938 146.863281 C 316.726562 148.300781 316.746094 148.402344 317.230469 149.390625 C 317.804688 150.5625 318.355469 151.207031 319.136719 151.621094 C 319.578125 151.855469 319.921875 151.910156 320.96875 151.910156 C 322.066406 151.914062 322.371094 151.859375 323.003906 151.566406 C 323.746094 151.21875 325.582031 149.59375 325.582031 149.285156 C 325.582031 149.195312 325.714844 149.054688 325.871094 148.96875 C 326.324219 148.722656 326.480469 149.035156 326.652344 150.554688 C 326.84375 152.222656 327.277344 153.214844 328.34375 154.398438 C 329.5625 155.753906 331.117188 156.082031 332.570312 155.285156 C 333.871094 154.574219 334.449219 154.164062 335.289062 153.359375 C 336.152344 152.53125 336.640625 152.207031 336.839844 152.332031 C 337.019531 152.445312 337.214844 153.136719 337.460938 154.53125 C 337.691406 155.851562 337.703125 155.898438 338.253906 157.105469 C 338.910156 158.550781 340.285156 159.742188 342.003906 160.359375 C 343.132812 160.765625 345.128906 160.769531 346.507812 160.371094 C 347.210938 160.167969 347.464844 160.144531 347.625 160.265625 C 348.113281 160.640625 349.332031 166.253906 349.335938 168.144531 C 349.335938 168.421875 349.453125 169.144531 349.597656 169.75 C 350.070312 171.75 350.164062 172.886719 350.003906 174.535156 C 349.921875 175.371094 349.738281 176.375 349.601562 176.761719 C 349.359375 177.4375 349.359375 177.507812 349.578125 178.339844 C 349.796875 179.15625 349.847656 179.226562 350.421875 179.503906 C 351.765625 180.160156 354.640625 180.273438 355.875 179.722656 C 356.523438 179.429688 357.554688 178.335938 358.039062 177.421875 C 358.292969 176.945312 358.316406 176.730469 358.253906 175.511719 C 358.203125 174.542969 358.070312 173.789062 357.808594 172.972656 C 357.164062 170.96875 357.378906 169.230469 358.292969 169.042969 C 358.710938 168.957031 359.15625 168.082031 359.445312 166.78125 C 359.6875 165.695312 359.632812 165.363281 358.941406 163.648438 C 358.285156 162.023438 358.199219 161.433594 358.476562 160.480469 C 358.945312 158.859375 360.363281 158.21875 361.597656 159.070312 C 362.394531 159.617188 362.769531 160.550781 362.769531 162.015625 C 362.769531 162.660156 362.808594 163.230469 362.855469 163.277344 C 363.019531 163.441406 363.722656 162.808594 364.25 162.027344 C 364.726562 161.324219 366.128906 159.871094 367.589844 158.574219 C 368.71875 157.566406 368.882812 157.476562 369.589844 157.476562 C 370.160156 157.476562 370.320312 157.539062 370.636719 157.886719 C 371.050781 158.332031 371.183594 158.808594 371.183594 159.832031 C 371.183594 160.570312 370.863281 161.328125 370.199219 162.164062 L 369.796875 162.671875 L 370.082031 163.042969 C 370.308594 163.328125 370.371094 163.601562 370.371094 164.28125 L 370.371094 165.152344 L 370.875 165.363281 C 371.53125 165.640625 371.832031 165.925781 372.164062 166.582031 C 373.210938 168.660156 370.796875 172.734375 367.621094 174.25 C 367.289062 174.410156 366.421875 174.558594 365.144531 174.671875 C 363.941406 174.785156 363.097656 174.925781 362.960938 175.039062 C 362.839844 175.140625 362.609375 175.289062 362.449219 175.367188 C 362.21875 175.484375 362.152344 175.65625 362.125 176.195312 C 361.957031 179.734375 359.847656 182.625 356.636719 183.726562 C 355.28125 184.191406 352.652344 184.167969 351.464844 183.683594 C 351.253906 183.597656 350.847656 183.527344 350.558594 183.527344 C 350.0625 183.527344 350.03125 183.550781 349.949219 184.042969 C 349.898438 184.324219 349.757812 184.753906 349.628906 184.992188 C 349.363281 185.5 348.296875 186.867188 347.46875 187.757812 C 346.914062 188.359375 346.890625 188.414062 346.890625 189.265625 C 346.890625 190.085938 346.851562 190.207031 346.355469 190.867188 C 345.949219 191.410156 345.644531 191.660156 345.082031 191.894531 C 344.492188 192.140625 344.324219 192.28125 344.265625 192.578125 C 344.085938 193.492188 342.871094 194.351562 341.753906 194.355469 C 341.132812 194.359375 340.722656 194.585938 339.820312 195.421875 C 338.722656 196.4375 337 197.519531 335.832031 197.925781 C 335.679688 197.980469 335.222656 198.160156 334.8125 198.332031 C 334.402344 198.503906 333.335938 198.921875 332.441406 199.253906 C 331.550781 199.589844 330.601562 200.035156 330.339844 200.246094 C 330.074219 200.453125 329.417969 200.890625 328.875 201.214844 C 328.332031 201.539062 327.890625 201.820312 327.890625 201.839844 C 327.890625 201.859375 328.109375 202.390625 328.378906 203.019531 C 329.652344 206.007812 329.722656 208.816406 328.550781 210.074219 C 328.152344 210.503906 327.984375 210.484375 327.488281 209.953125 C 326.90625 209.332031 326.476562 208.359375 326.070312 206.75 C 325.882812 205.992188 325.542969 204.933594 325.316406 204.398438 C 325.089844 203.863281 324.839844 203.117188 324.761719 202.738281 C 324.679688 202.363281 324.542969 202 324.453125 201.933594 C 324.367188 201.871094 323.539062 201.488281 322.617188 201.09375 C 320.851562 200.328125 319.476562 200.03125 319.476562 200.414062 C 319.476562 200.734375 322.585938 204.980469 325.039062 208 C 326.738281 210.097656 328.421875 212.332031 328.941406 213.195312 C 329.355469 213.875 330.179688 215.082031 330.589844 215.601562 L 330.851562 215.941406 L 331.527344 215.570312 C 332.328125 215.128906 332.824219 215.101562 333.414062 215.464844 C 333.96875 215.808594 334.15625 216.175781 334.257812 217.109375 C 334.347656 217.949219 334.160156 217.832031 336.074219 218.269531 C 336.582031 218.386719 337.304688 218.636719 337.679688 218.828125 C 338.496094 219.242188 338.664062 219.25 339.132812 218.921875 C 339.902344 218.390625 343.445312 217.050781 344.722656 216.808594 C 346.121094 216.546875 348.03125 216.835938 349.941406 217.597656 C 352.089844 218.457031 353.015625 219.035156 354.304688 220.328125 C 356.457031 222.492188 357.148438 224.164062 357.046875 226.980469 C 357.003906 228.253906 356.945312 228.535156 356.574219 229.335938 C 356.066406 230.425781 355.375 231.230469 354.359375 231.910156 C 352.597656 233.09375 350.867188 233.589844 347.570312 233.855469 C 346.636719 233.929688 344.894531 234.144531 343.703125 234.332031 C 340.152344 234.890625 336.523438 235.324219 334.066406 235.480469 C 332.796875 235.5625 330.894531 235.691406 329.839844 235.765625 C 327.652344 235.917969 320.796875 235.914062 318.660156 235.757812 Z M 343.296875 232.488281 C 344.398438 232.273438 345.65625 231.960938 346.960938 231.578125 C 349.847656 230.722656 351.804688 230.101562 352.773438 229.726562 C 353.359375 229.503906 353.9375 229.324219 354.0625 229.324219 C 354.367188 229.335938 351.050781 230.964844 350.726562 230.964844 C 350.671875 230.964844 350.230469 231.113281 349.746094 231.296875 C 349.257812 231.476562 348.402344 231.761719 347.839844 231.929688 C 346.367188 232.367188 346.324219 232.523438 347.707031 232.417969 C 350.917969 232.164062 353.296875 231.285156 354.601562 229.867188 C 354.773438 229.679688 355.078125 229.1875 355.277344 228.769531 C 355.589844 228.121094 355.636719 227.839844 355.640625 226.714844 C 355.648438 224.390625 355.136719 223.210938 353.355469 221.4375 C 352.15625 220.238281 351.433594 219.761719 349.808594 219.097656 C 348.28125 218.472656 347.621094 218.324219 346.214844 218.304688 C 344.921875 218.285156 344.679688 218.324219 343.632812 218.714844 C 343 218.949219 341.996094 219.316406 341.402344 219.53125 C 338.851562 220.441406 337.90625 221.546875 335.421875 226.515625 C 334.414062 228.53125 333.671875 229.730469 333.425781 229.730469 C 333.191406 229.730469 333.164062 228.710938 333.382812 227.90625 C 333.839844 226.210938 336 222.058594 337.144531 220.671875 C 337.429688 220.328125 337.664062 220.007812 337.664062 219.960938 C 337.664062 219.839844 336.027344 219.359375 334.949219 219.164062 C 333.082031 218.828125 333.171875 218.816406 332.429688 219.484375 C 331.609375 220.230469 330.535156 220.796875 329.726562 220.910156 C 329.027344 221.003906 327.714844 220.589844 326.96875 220.03125 C 326.722656 219.847656 326.445312 219.726562 326.359375 219.761719 C 326.003906 219.898438 325.65625 221.386719 325.660156 222.734375 C 325.667969 224.246094 325.902344 225.175781 326.664062 226.707031 C 327.96875 229.316406 331.359375 231.425781 335.492188 232.191406 C 336.347656 232.351562 337.265625 232.535156 337.527344 232.601562 C 338.171875 232.761719 342.285156 232.683594 343.296875 232.488281 Z M 333.039062 231.160156 C 332.8125 230.886719 333.03125 230.484375 333.402344 230.484375 C 333.875 230.484375 333.773438 231.363281 333.300781 231.375 C 333.253906 231.375 333.136719 231.277344 333.039062 231.160156 Z M 347.605469 219.625 C 347.4375 219.59375 347.296875 219.511719 347.296875 219.445312 C 347.296875 219.378906 347.496094 219.394531 347.738281 219.476562 C 348.445312 219.714844 348.390625 219.777344 347.605469 219.625 Z M 345.613281 219.292969 C 345.703125 219.144531 346.851562 219.136719 346.941406 219.28125 C 346.976562 219.339844 346.675781 219.394531 346.273438 219.398438 C 345.871094 219.40625 345.574219 219.355469 345.613281 219.292969 Z M 311.050781 231.328125 C 311.675781 230.996094 312.175781 230.617188 312.789062 230.015625 C 313.5625 229.257812 314.621094 227.441406 315.050781 226.128906 C 315.359375 225.199219 315.332031 223.738281 314.992188 222.847656 C 313.894531 219.960938 310.917969 215.976562 308.824219 214.59375 C 307.136719 213.480469 305.941406 213.378906 303.6875 214.148438 C 301.863281 214.769531 301.757812 214.777344 302.023438 214.273438 C 302.554688 213.257812 303.746094 212.40625 305.226562 211.988281 C 305.710938 211.851562 306.183594 211.71875 306.277344 211.691406 C 306.382812 211.660156 306.449219 211.402344 306.449219 211.03125 C 306.449219 210.484375 306.398438 210.390625 305.972656 210.125 C 305.257812 209.679688 305.019531 209.042969 305.042969 207.65625 C 305.054688 207.015625 305.125 206.226562 305.199219 205.898438 C 305.332031 205.328125 305.324219 205.300781 304.925781 205.054688 C 304.558594 204.828125 303.324219 204.496094 302.152344 204.3125 C 301.65625 204.230469 301.46875 204.40625 301.050781 205.328125 C 300.53125 206.480469 300.25 207.628906 300 209.667969 C 299.746094 211.707031 299.75 212.65625 300 214.71875 C 300.203125 216.351562 300.308594 216.984375 300.695312 218.832031 C 301.125 220.867188 301.867188 223.304688 302.644531 225.207031 C 304.160156 228.933594 304.117188 228.855469 305.070312 229.746094 C 306.871094 231.433594 307.679688 231.8125 309.3125 231.742188 C 310.117188 231.707031 310.503906 231.613281 311.050781 231.328125 Z M 314.046875 224.378906 C 314.046875 224.152344 313.925781 223.613281 313.777344 223.183594 C 313.433594 222.203125 313.4375 222.144531 313.792969 222.734375 C 314.0625 223.179688 314.328125 224.796875 314.132812 224.796875 C 314.085938 224.796875 314.046875 224.609375 314.046875 224.378906 Z M 300.429688 215.378906 C 300.289062 215.238281 300.324219 214.8125 300.484375 214.714844 C 300.742188 214.550781 301.289062 214.777344 301.289062 215.046875 C 301.289062 215.390625 300.675781 215.628906 300.429688 215.378906 Z M 302.375 226.179688 C 302.375 226.113281 302.199219 225.632812 301.984375 225.117188 C 301.640625 224.300781 301.195312 222.921875 300.539062 220.683594 C 300.148438 219.34375 299.539062 215.855469 299.378906 214.066406 C 299.121094 211.125 299.46875 207.910156 300.277344 205.734375 C 300.675781 204.664062 300.679688 204.640625 300.359375 204.640625 C 300.042969 204.640625 299.730469 204.988281 299.460938 205.640625 C 298.578125 207.777344 298.355469 214.425781 299.054688 217.828125 C 299.789062 221.40625 300.761719 224.164062 301.9375 225.996094 C 302.136719 226.304688 302.375 226.40625 302.375 226.179688 Z M 330.671875 219.164062 C 330.972656 218.988281 331.632812 218.46875 332.136719 218.015625 C 332.875 217.351562 333.050781 217.121094 333.019531 216.84375 C 332.957031 216.3125 332.429688 216.332031 331.484375 216.90625 C 331.042969 217.175781 330.609375 217.371094 330.519531 217.335938 C 330.433594 217.300781 329.941406 217.230469 329.425781 217.179688 L 328.488281 217.085938 L 328.054688 217.585938 C 327.789062 217.890625 327.621094 218.234375 327.621094 218.457031 C 327.625 218.898438 327.707031 219.039062 328.164062 219.363281 C 328.636719 219.703125 329.9375 219.597656 330.671875 219.164062 Z M 307.820312 209.644531 C 308.082031 208.414062 307.75 206.292969 307.246094 205.972656 C 306.792969 205.683594 306.613281 205.945312 306.511719 207.039062 C 306.386719 208.378906 306.472656 208.996094 306.871094 209.625 C 307.269531 210.25 307.691406 210.257812 307.820312 209.644531 Z M 327.742188 200.292969 C 328.074219 200.179688 328.441406 199.992188 328.558594 199.875 C 328.910156 199.515625 330.222656 198.703125 331.085938 198.308594 C 332.863281 197.492188 334.90625 196.6875 335.203125 196.6875 C 335.632812 196.6875 337.515625 195.519531 338.664062 194.539062 C 340.316406 193.128906 340.191406 193.195312 341.375 193.1875 C 342.429688 193.183594 342.457031 193.175781 342.839844 192.714844 C 343.050781 192.457031 343.226562 192.105469 343.226562 191.9375 C 343.226562 191.519531 343.605469 191.191406 344.457031 190.863281 C 345.375 190.507812 345.667969 190.046875 345.667969 188.96875 C 345.671875 187.988281 345.765625 187.796875 346.816406 186.679688 C 347.277344 186.191406 347.917969 185.433594 348.242188 185 C 348.773438 184.28125 348.839844 184.105469 348.96875 183.027344 C 349.070312 182.175781 349.066406 181.398438 348.953125 180.253906 C 348.78125 178.519531 348.539062 177.644531 347.953125 176.632812 C 347.523438 175.890625 347.46875 175.46875 347.785156 175.347656 C 347.925781 175.292969 348.109375 175.398438 348.308594 175.648438 C 348.777344 176.242188 348.929688 175.996094 348.921875 174.640625 C 348.910156 172.792969 348.703125 170.496094 348.53125 170.324219 C 348.417969 170.207031 348.3125 170.210938 348.113281 170.335938 C 347.496094 170.722656 346.375 170.308594 345.96875 169.539062 C 345.613281 168.867188 345.890625 166.863281 346.511719 165.601562 C 346.6875 165.246094 347.179688 165.191406 347.433594 165.5 C 347.679688 165.796875 347.976562 165.75 347.976562 165.410156 C 347.976562 165.15625 347.3125 163.015625 346.863281 161.832031 C 346.699219 161.386719 346.390625 161.351562 345.515625 161.675781 C 344.78125 161.945312 342.921875 161.96875 341.8125 161.71875 C 341.371094 161.621094 340.554688 161.304688 339.996094 161.023438 C 338.945312 160.488281 338.75 160.46875 338.75 160.898438 C 338.75 161.035156 338.554688 161.339844 338.316406 161.574219 C 337.769531 162.113281 337.082031 162.140625 336.078125 161.667969 C 334.847656 161.089844 334.621094 160.257812 335.300781 158.820312 C 335.714844 157.941406 336.066406 157.734375 336.671875 158.015625 C 336.980469 158.15625 337.003906 158.148438 336.914062 157.929688 C 336.519531 157 336.167969 155.902344 336.167969 155.613281 C 336.167969 155.421875 336.105469 155.148438 336.027344 155 C 335.894531 154.75 335.847656 154.765625 335.175781 155.28125 C 333.851562 156.289062 333.332031 156.453125 331.488281 156.4375 C 330.039062 156.429688 329.777344 156.386719 329.113281 156.078125 C 327.671875 155.398438 326.367188 154.023438 325.707031 152.488281 C 325.527344 152.070312 325.3125 151.722656 325.230469 151.722656 C 325.148438 151.722656 324.78125 151.882812 324.417969 152.078125 C 322.375 153.175781 320.175781 153.269531 318.390625 152.335938 C 317 151.609375 315.683594 149.035156 315.679688 147.042969 C 315.675781 146.589844 315.605469 146.210938 315.507812 146.132812 C 315.25 145.925781 313.203125 146.078125 312.375 146.367188 C 311.476562 146.679688 310.664062 147.183594 309.851562 147.949219 C 309.285156 148.476562 308.757812 148.839844 308.558594 148.839844 C 308.378906 148.839844 308.507812 148.339844 308.835938 147.777344 C 309.03125 147.441406 309.136719 147.117188 309.074219 147.054688 C 309.011719 146.992188 308.625 146.984375 308.21875 147.035156 C 307.539062 147.121094 307.472656 147.160156 307.375 147.546875 C 307.210938 148.1875 306.046875 149.3125 305.28125 149.578125 C 304.296875 149.917969 303.648438 149.871094 303.25 149.4375 C 303.070312 149.238281 302.917969 149.023438 302.917969 148.957031 C 302.917969 148.449219 300.726562 149.785156 299.527344 151.023438 C 298.597656 151.984375 297.390625 154.355469 296.871094 156.246094 C 296.675781 156.960938 296.402344 157.859375 296.265625 158.242188 C 296.128906 158.625 295.855469 159.542969 295.65625 160.28125 C 295.457031 161.015625 295.179688 161.875 295.039062 162.1875 L 294.78125 162.757812 L 294.808594 161.53125 C 294.824219 160.816406 294.777344 160.289062 294.699219 160.261719 C 294.523438 160.203125 293.78125 161.507812 293.507812 162.363281 C 292.894531 164.261719 292.808594 165 292.808594 168.242188 C 292.808594 171.523438 292.792969 171.382812 293.613281 175.644531 C 294.023438 177.769531 294.03125 177.648438 293.558594 176.808594 C 293.324219 176.394531 292.875 175.292969 292.5625 174.363281 C 292.246094 173.433594 291.929688 172.664062 291.855469 172.652344 C 291.535156 172.601562 291.339844 173.78125 291.277344 176.152344 C 291.207031 178.890625 291.320312 179.832031 291.945312 181.675781 C 293.039062 184.921875 296.027344 188.851562 298.78125 190.671875 C 299.761719 191.320312 300.703125 191.753906 301.136719 191.753906 C 301.53125 191.753906 302.105469 192.417969 302.105469 192.875 C 302.105469 193.628906 302.960938 195.015625 303.695312 195.457031 C 304.40625 195.878906 305.75 196.191406 305.988281 195.988281 C 306.128906 195.875 306.144531 195.78125 306.046875 195.679688 C 305.96875 195.601562 305.90625 195.363281 305.90625 195.148438 C 305.90625 194.664062 306.296875 194.464844 306.507812 194.847656 C 306.84375 195.457031 308.949219 197.621094 309.898438 198.324219 C 312.148438 200 314.03125 200.335938 316.828125 199.5625 C 317.636719 199.335938 318.332031 199.257812 319.542969 199.242188 L 321.171875 199.226562 L 322.871094 199.9375 L 324.566406 200.652344 L 325.855469 200.574219 C 326.5625 200.527344 327.414062 200.402344 327.742188 200.292969 Z M 311.953125 197.234375 C 311.660156 197.007812 311.324219 196.683594 311.207031 196.511719 C 311.089844 196.335938 310.855469 196.058594 310.6875 195.894531 C 310.308594 195.519531 310.300781 195.050781 310.664062 194.582031 C 311.117188 194 311.402344 193.902344 312.144531 194.085938 C 312.699219 194.21875 312.910156 194.375 313.492188 195.066406 C 314.050781 195.734375 314.183594 195.992188 314.179688 196.394531 C 314.179688 197.011719 314.101562 197.128906 313.519531 197.417969 C 312.875 197.738281 312.566406 197.703125 311.953125 197.234375 Z M 325.28125 195.597656 C 324.765625 195.1875 324.605469 194.488281 324.78125 193.394531 C 324.960938 192.246094 325.078125 192.128906 325.910156 192.285156 C 326.40625 192.378906 326.703125 192.550781 327.15625 193 C 327.726562 193.566406 327.753906 193.628906 327.753906 194.386719 C 327.753906 195.269531 327.464844 195.726562 326.90625 195.730469 C 326.738281 195.730469 326.386719 195.769531 326.125 195.8125 C 325.765625 195.871094 325.5625 195.820312 325.28125 195.597656 Z M 336.765625 190.722656 C 336.550781 190.53125 336.304688 190.320312 336.21875 190.25 C 335.828125 189.9375 335.847656 187.640625 336.242188 187.011719 C 336.511719 186.578125 337.328125 186.226562 337.648438 186.398438 C 337.902344 186.539062 338.355469 187.738281 338.527344 188.738281 C 338.671875 189.550781 337.847656 191.066406 337.265625 191.066406 C 337.207031 191.066406 336.984375 190.914062 336.765625 190.722656 Z M 320.425781 187.371094 C 319.535156 187.203125 317.679688 186.488281 316.710938 185.941406 C 315.6875 185.363281 314.304688 184.265625 313.574219 183.445312 L 313.03125 182.839844 L 312.457031 182.996094 C 311.714844 183.191406 310.96875 183.054688 310.855469 182.703125 C 310.730469 182.300781 310.851562 182.203125 311.59375 182.101562 C 312.535156 181.976562 313.035156 181.734375 314.023438 180.933594 C 314.496094 180.550781 314.90625 180.238281 314.9375 180.238281 C 314.972656 180.238281 314.996094 180.449219 314.996094 180.707031 C 314.996094 181.035156 314.851562 181.371094 314.511719 181.820312 L 314.023438 182.464844 L 314.476562 182.941406 C 315.363281 183.875 317.265625 185.089844 318.660156 185.617188 C 321.125 186.539062 324.242188 186.480469 326.429688 185.46875 C 327.203125 185.113281 328.863281 183.964844 329.050781 183.65625 C 329.09375 183.585938 328.976562 183.328125 328.792969 183.082031 C 328.308594 182.429688 328.078125 181.5625 328.277344 181.117188 C 328.515625 180.589844 328.835938 180.761719 329.140625 181.582031 C 329.5625 182.726562 330.109375 183.179688 331.445312 183.492188 C 332.355469 183.707031 332.574219 183.808594 332.574219 184.011719 C 332.574219 184.488281 331.148438 184.59375 330.257812 184.183594 C 329.980469 184.054688 329.863281 184.132812 329.101562 184.957031 C 328.167969 185.964844 327.101562 186.664062 325.816406 187.105469 C 325.148438 187.332031 324.5625 187.402344 323.003906 187.441406 C 321.921875 187.46875 320.761719 187.4375 320.425781 187.371094 Z M 296.539062 185.921875 C 296.203125 185.738281 295.644531 185.46875 295.292969 185.320312 C 294.574219 185.019531 294.304688 184.671875 293.925781 183.554688 C 293.5625 182.488281 293.4375 181.800781 293.566406 181.585938 C 293.710938 181.351562 293.726562 181.386719 293.992188 182.460938 C 294.121094 182.964844 294.363281 183.675781 294.53125 184.035156 C 294.808594 184.617188 294.957031 184.75 295.84375 185.191406 C 296.8125 185.679688 297.335938 186.058594 297.207031 186.1875 C 297.175781 186.222656 296.871094 186.101562 296.539062 185.921875 Z M 305.714844 184.15625 C 305.007812 183.890625 304.886719 183.683594 304.953125 182.84375 C 304.980469 182.457031 305.410156 181.929688 305.792969 181.808594 C 306.207031 181.671875 307.515625 182.019531 307.875 182.355469 C 308.335938 182.785156 308.351562 183.703125 307.90625 183.996094 C 307.4375 184.304688 306.328125 184.382812 305.714844 184.15625 Z M 347.296875 183.175781 C 347.296875 183.097656 347.359375 182.972656 347.433594 182.898438 C 347.503906 182.824219 347.625 182.242188 347.695312 181.605469 L 347.820312 180.441406 L 347.796875 181.539062 C 347.777344 182.332031 347.707031 182.730469 347.535156 182.976562 C 347.40625 183.160156 347.296875 183.25 347.296875 183.175781 Z M 344.710938 181.757812 C 344.320312 181.363281 344.3125 181.332031 344.316406 179.871094 C 344.320312 178.121094 344.464844 177.378906 344.863281 177.050781 C 345.40625 176.605469 346.109375 176.964844 346.640625 177.957031 C 346.886719 178.421875 346.9375 178.714844 346.917969 179.589844 C 346.886719 180.832031 346.59375 181.546875 345.96875 181.917969 C 345.402344 182.25 345.167969 182.21875 344.710938 181.757812 Z M 322.03125 181.109375 C 321.582031 180.921875 321.277344 180.566406 321.429688 180.410156 C 321.464844 180.378906 321.96875 180.289062 322.550781 180.21875 C 323.605469 180.085938 324.648438 179.722656 324.828125 179.429688 C 325.121094 178.949219 324.105469 178.042969 323.273438 178.042969 C 322.390625 178.042969 322.171875 177.464844 322.933594 177.144531 C 323.359375 176.964844 323.46875 176.972656 324.128906 177.222656 C 324.835938 177.488281 325.535156 178.085938 325.839844 178.6875 C 326.636719 180.253906 323.996094 181.933594 322.03125 181.109375 Z M 332.640625 178.09375 C 330.660156 177.125 329.191406 176.960938 327.988281 177.570312 L 327.300781 177.917969 L 327.027344 177.644531 C 326.78125 177.394531 326.773438 177.332031 326.945312 177.007812 C 327.050781 176.808594 327.351562 176.542969 327.617188 176.417969 C 328.058594 176.210938 328.097656 176.140625 328.136719 175.507812 C 328.230469 174.050781 327.789062 172.746094 326.519531 170.707031 C 325.9375 169.773438 325.921875 169.722656 325.921875 168.601562 L 325.921875 167.457031 L 326.453125 166.992188 C 326.894531 166.609375 327.09375 166.527344 327.609375 166.527344 C 329.023438 166.53125 330.492188 167.679688 331.324219 169.429688 C 332.457031 171.804688 332.722656 173.992188 332.160156 176.28125 C 332.089844 176.570312 332.128906 176.664062 332.34375 176.734375 C 332.800781 176.878906 333.863281 177.96875 333.863281 178.292969 C 333.863281 178.457031 333.816406 178.589844 333.761719 178.589844 C 333.703125 178.589844 333.199219 178.367188 332.640625 178.09375 Z M 330.050781 170.074219 C 330.230469 169.75 330.226562 169.675781 330.007812 169.335938 C 329.800781 169.023438 329.695312 168.976562 329.320312 169.035156 C 328.914062 169.101562 328.875 169.078125 328.875 168.75 C 328.875 168.285156 328.273438 167.761719 327.742188 167.761719 C 327.199219 167.761719 326.667969 168.300781 326.667969 168.855469 C 326.667969 169.789062 327.484375 170.316406 328.296875 169.90625 C 328.558594 169.773438 328.707031 169.753906 328.707031 169.851562 C 328.707031 169.933594 328.808594 170.117188 328.9375 170.257812 C 329.253906 170.613281 329.800781 170.523438 330.050781 170.074219 Z M 312.308594 177.742188 C 311.8125 177.238281 312.566406 176.058594 314.046875 175.023438 C 314.394531 174.78125 314.425781 174.910156 313.136719 171.121094 C 312.171875 168.285156 312.0625 167.765625 312.273438 167.058594 C 312.480469 166.363281 313 166.117188 314.269531 166.117188 L 315.175781 166.117188 L 316.082031 167.042969 C 316.78125 167.757812 317.097656 168.226562 317.5 169.125 C 318.160156 170.617188 318.609375 172.417969 318.777344 174.269531 C 318.898438 175.570312 318.957031 175.789062 319.261719 176.113281 C 319.679688 176.554688 319.722656 176.945312 319.351562 176.945312 C 319.207031 176.945312 318.460938 176.699219 317.695312 176.398438 C 316.929688 176.097656 316.070312 175.851562 315.785156 175.851562 C 314.980469 175.851562 314.082031 176.351562 313.554688 177.09375 C 312.984375 177.894531 312.636719 178.074219 312.308594 177.742188 Z M 315.835938 169.726562 C 316.367188 169.242188 315.90625 168.324219 315.214844 168.5 C 314.675781 168.636719 314.519531 169.4375 314.964844 169.785156 C 315.265625 170.015625 315.539062 170 315.835938 169.726562 Z M 314.425781 168.882812 C 315.34375 168.082031 314.480469 166.527344 313.339844 166.929688 C 312.796875 167.121094 312.5625 167.445312 312.558594 168.027344 C 312.550781 168.980469 313.710938 169.511719 314.425781 168.882812 Z M 296.878906 176.921875 C 296.191406 176.527344 296.21875 175.796875 296.941406 175.035156 C 297.238281 174.722656 297.644531 174.160156 297.847656 173.785156 C 298.21875 173.09375 298.351562 173.011719 299.25 172.941406 C 299.6875 172.90625 299.742188 172.949219 300.023438 173.519531 C 300.605469 174.714844 300.574219 175.347656 299.890625 176.125 C 299.160156 176.949219 297.632812 177.351562 296.878906 176.921875 Z M 335.523438 171.871094 C 335.355469 171.800781 335.144531 171.585938 335.058594 171.390625 C 334.746094 170.699219 335.652344 169.679688 336.578125 169.679688 C 336.980469 169.679688 337.644531 170.09375 337.742188 170.40625 C 337.886719 170.859375 337.53125 171.4375 336.925781 171.730469 C 336.308594 172.035156 336.003906 172.0625 335.523438 171.871094 Z M 308.535156 167.550781 C 308.355469 167.269531 308.324219 166.984375 308.382812 166.078125 C 308.46875 164.710938 308.792969 164.023438 309.773438 163.128906 C 310.777344 162.214844 311.714844 161.828125 312.960938 161.820312 C 314.335938 161.8125 315.480469 162.367188 316.597656 163.570312 C 317.285156 164.3125 317.875 165.429688 317.582031 165.429688 C 317.523438 165.429688 316.8125 164.941406 316.003906 164.34375 C 314.367188 163.136719 313.449219 162.746094 312.601562 162.902344 C 311.796875 163.050781 311.023438 163.464844 310.410156 164.082031 C 309.65625 164.832031 309.378906 165.605469 309.460938 166.699219 C 309.5 167.167969 309.5 167.632812 309.46875 167.726562 C 309.363281 168.03125 308.773438 167.917969 308.535156 167.550781 Z M 323.265625 166.058594 C 322.765625 163.800781 324.625 161.96875 327.414062 161.96875 C 328.511719 161.96875 329.59375 162.492188 330.425781 163.433594 C 331.402344 164.527344 331.824219 165.703125 331.246094 165.703125 C 331.144531 165.703125 330.59375 165.207031 330.023438 164.601562 C 328.625 163.117188 327.824219 162.792969 326.460938 163.152344 C 325.089844 163.515625 324.195312 164.378906 323.863281 165.667969 C 323.546875 166.894531 323.464844 166.949219 323.265625 166.058594 Z M 297.207031 163.382812 C 296.867188 163.039062 296.8125 162.878906 296.8125 162.226562 C 296.8125 161.558594 296.855469 161.4375 297.171875 161.222656 C 297.367188 161.085938 297.847656 160.652344 298.238281 160.253906 C 298.800781 159.6875 299.039062 159.535156 299.382812 159.535156 C 300.085938 159.535156 300.339844 159.746094 300.335938 160.328125 C 300.328125 160.910156 300.050781 162.152344 299.789062 162.757812 C 299.433594 163.574219 299.136719 163.785156 298.339844 163.785156 C 297.707031 163.785156 297.546875 163.726562 297.207031 163.382812 Z M 310.988281 158.292969 C 310.667969 157.9375 310.558594 156.503906 310.785156 155.59375 C 311.117188 154.238281 312.179688 153.753906 312.964844 154.601562 C 313.425781 155.101562 313.566406 155.828125 313.371094 156.710938 C 313.082031 158.023438 312.59375 158.574219 311.730469 158.574219 C 311.40625 158.574219 311.152344 158.480469 310.988281 158.292969 Z M 298.304688 155.742188 C 298.304688 155.617188 298.515625 155.066406 298.769531 154.523438 C 299.09375 153.832031 299.394531 153.414062 299.753906 153.148438 C 300.039062 152.9375 300.5 152.550781 300.777344 152.285156 C 301.058594 152.023438 301.332031 151.851562 301.386719 151.910156 C 301.578125 152.105469 301.070312 152.753906 300.308594 153.285156 C 299.644531 153.746094 299.46875 153.96875 299.03125 154.894531 C 298.542969 155.9375 298.304688 156.214844 298.304688 155.742188 Z M 319.042969 154.09375 C 319.140625 154.054688 319.257812 154.058594 319.304688 154.105469 C 319.347656 154.152344 319.269531 154.183594 319.125 154.175781 C 318.96875 154.171875 318.933594 154.136719 319.042969 154.09375 Z M 317.210938 153.46875 C 316.792969 153 316.441406 152.40625 316.589844 152.40625 C 316.660156 152.40625 316.832031 152.617188 316.96875 152.875 C 317.246094 153.390625 317.5625 153.601562 318.1875 153.683594 C 318.511719 153.726562 318.484375 153.738281 318.042969 153.757812 C 317.625 153.773438 317.421875 153.703125 317.210938 153.46875 Z M 279.796875 185.652344 C 279.910156 185.539062 280.179688 185.445312 280.394531 185.445312 C 280.632812 185.445312 280.960938 185.292969 281.234375 185.054688 C 281.476562 184.835938 281.921875 184.492188 282.222656 184.289062 C 282.648438 184 282.800781 183.785156 282.925781 183.285156 C 283.113281 182.558594 283.054688 182.375 282.699219 182.566406 C 282.558594 182.644531 282.226562 182.703125 281.960938 182.703125 C 281.265625 182.703125 281.335938 182.40625 282.1875 181.769531 C 283.386719 180.867188 283.4375 180.773438 283.441406 179.503906 C 283.441406 178.890625 283.328125 177.675781 283.191406 176.808594 L 282.941406 175.234375 L 283.292969 173.867188 C 283.671875 172.40625 283.722656 171.820312 283.515625 171.273438 C 283.308594 170.714844 282.425781 169.816406 282.089844 169.816406 C 281.539062 169.816406 281.316406 170.269531 280.730469 172.589844 C 280.601562 173.09375 280.410156 173.582031 280.300781 173.671875 C 280.136719 173.8125 280.203125 173.929688 280.710938 174.417969 C 281.351562 175.023438 281.652344 175.75 281.828125 177.089844 C 282.023438 178.570312 280.640625 179.992188 279.574219 179.414062 C 279.367188 179.304688 279.226562 179.355469 278.867188 179.664062 C 278.148438 180.296875 277.644531 180.410156 276.933594 180.101562 C 276.03125 179.710938 275.273438 178.285156 275.566406 177.53125 C 275.636719 177.347656 275.730469 177.453125 275.957031 178 C 276.476562 179.234375 277.082031 179.648438 277.9375 179.363281 C 278.949219 179.023438 279.132812 177.796875 278.398438 176.316406 C 277.957031 175.429688 276.980469 174.617188 276.359375 174.617188 C 275.53125 174.617188 274.757812 175.574219 274.472656 176.960938 C 274.277344 177.910156 274.28125 177.957031 274.546875 178.242188 C 274.871094 178.589844 274.90625 178.867188 274.632812 178.867188 C 274.527344 178.867188 274.023438 178.675781 273.515625 178.4375 C 272.378906 177.917969 271.019531 177.761719 270.40625 178.082031 C 269.050781 178.792969 268.890625 180.339844 270.121094 180.851562 C 270.355469 180.949219 271.160156 181.074219 271.90625 181.128906 C 273.6875 181.257812 273.996094 181.457031 274.816406 182.988281 C 275.269531 183.84375 275.632812 184.074219 276.511719 184.074219 C 277.148438 184.074219 277.820312 183.835938 278.640625 183.3125 C 279.269531 182.910156 279.304688 182.90625 279.304688 183.238281 C 279.304688 183.523438 278.578125 184.304688 278.195312 184.425781 C 277.691406 184.585938 278.011719 185.191406 278.828125 185.628906 C 279.34375 185.90625 279.542969 185.910156 279.796875 185.652344 Z M 280.882812 178.074219 C 281.136719 177.695312 281.171875 177.5 281.109375 176.839844 C 281.066406 176.410156 280.980469 175.996094 280.914062 175.925781 C 280.851562 175.855469 280.796875 175.6875 280.796875 175.554688 C 280.796875 175.421875 280.628906 175.15625 280.425781 174.964844 C 280.128906 174.6875 279.914062 174.617188 279.371094 174.617188 C 278.257812 174.621094 278.230469 174.699219 278.871094 176.007812 C 279.488281 177.273438 279.667969 178.0625 279.457031 178.613281 C 279.382812 178.8125 279.355469 179.011719 279.402344 179.054688 C 279.550781 179.207031 280.582031 178.523438 280.882812 178.074219 Z M 362.015625 174.757812 C 362.484375 174.574219 362.453125 174.421875 361.875 174.058594 C 361.242188 173.664062 360.597656 172.761719 360.597656 172.265625 C 360.597656 171.972656 360.535156 171.875 360.34375 171.875 C 360.039062 171.875 359.1875 170.957031 358.871094 170.289062 C 358.746094 170.027344 358.582031 169.832031 358.507812 169.859375 C 358.261719 169.941406 358.160156 170.824219 358.308594 171.582031 C 358.539062 172.746094 359.773438 174.679688 360.367188 174.792969 C 360.941406 174.90625 361.667969 174.890625 362.015625 174.757812 Z M 367.746094 172.902344 C 369.574219 171.882812 371.457031 169.339844 371.457031 167.890625 C 371.457031 167.324219 371.128906 166.578125 370.796875 166.402344 C 370.109375 166.027344 368.355469 166.429688 367.085938 167.25 C 366.207031 167.820312 366.101562 167.945312 365.832031 168.746094 C 365.460938 169.851562 365.726562 170.03125 367.535156 169.910156 C 368.777344 169.828125 369.011719 169.878906 369.011719 170.226562 C 369.011719 170.703125 368.65625 170.8125 367.058594 170.828125 C 365.597656 170.84375 365.488281 170.828125 365.160156 170.515625 C 364.96875 170.332031 364.769531 169.96875 364.722656 169.703125 C 364.667969 169.421875 364.472656 169.082031 364.257812 168.902344 C 363.871094 168.570312 363.449219 167.496094 363.453125 166.84375 C 363.453125 166.417969 363.675781 165.726562 364.027344 165.070312 C 364.515625 164.144531 366.195312 163.003906 367.503906 162.707031 C 368.410156 162.5 369.46875 161.621094 369.964844 160.664062 C 370.210938 160.1875 370.246094 159.957031 370.167969 159.429688 C 369.988281 158.207031 369.648438 158.148438 368.445312 159.140625 C 367.386719 160.011719 365.117188 162.359375 364.871094 162.835938 C 364.621094 163.316406 363.652344 164.179688 363.101562 164.414062 C 362.535156 164.652344 361.992188 164.480469 361.898438 164.03125 C 361.859375 163.859375 361.8125 163.007812 361.792969 162.140625 C 361.757812 160.820312 361.707031 160.503906 361.480469 160.191406 C 361.105469 159.679688 360.542969 159.453125 360.125 159.648438 C 359.136719 160.101562 359.035156 161.511719 359.851562 163.511719 C 360.289062 164.574219 360.382812 164.976562 360.378906 165.703125 C 360.375 166.730469 360.183594 167.535156 359.710938 168.484375 C 359.527344 168.855469 359.378906 169.246094 359.378906 169.355469 C 359.378906 169.617188 359.886719 170.636719 360.191406 170.984375 C 360.324219 171.132812 360.46875 171.378906 360.515625 171.53125 C 360.59375 171.792969 361.957031 172.898438 362.734375 173.332031 C 363.035156 173.496094 363.484375 173.527344 364.964844 173.480469 C 366.808594 173.421875 366.820312 173.417969 367.746094 172.902344 Z M 365.601562 167.246094 C 366.414062 166.402344 367.132812 165.976562 368.503906 165.511719 L 369.351562 165.226562 L 369.394531 164.453125 C 369.441406 163.515625 369.371094 163.472656 368.078125 163.636719 C 366.199219 163.875 364.414062 165.421875 364.402344 166.816406 C 364.398438 167.195312 364.648438 168.035156 364.765625 168.035156 C 364.804688 168.035156 365.179688 167.679688 365.601562 167.246094 Z M 337.371094 146.277344 C 336.613281 146.160156 336.507812 145.84375 336.519531 143.773438 C 336.53125 141.730469 336.628906 141.402344 337.460938 140.613281 C 337.792969 140.300781 337.921875 140.273438 339.070312 140.28125 C 340.535156 140.292969 341 140.496094 341.464844 141.335938 C 342.019531 142.332031 341.617188 143.660156 340.34375 145.035156 C 339.75 145.671875 339.492188 145.84375 338.816406 146.039062 C 337.753906 146.34375 337.789062 146.339844 337.371094 146.277344 Z M 338.789062 145.074219 C 339.179688 144.890625 339.613281 144.578125 339.757812 144.382812 C 339.902344 144.1875 340.160156 143.859375 340.335938 143.65625 C 340.667969 143.265625 340.835938 142.648438 340.761719 142.109375 C 340.699219 141.675781 340.101562 141.398438 339.085938 141.328125 C 338.34375 141.28125 338.242188 141.308594 337.933594 141.640625 C 337.617188 141.984375 337.589844 142.117188 337.546875 143.710938 C 337.5 145.378906 337.503906 145.414062 337.792969 145.414062 C 337.953125 145.414062 338.402344 145.261719 338.789062 145.074219 Z M 324.085938 145.269531 C 323.609375 145.082031 323.320312 144.535156 323.136719 143.453125 C 322.859375 141.847656 323.308594 140.699219 324.417969 140.191406 C 325.253906 139.808594 325.800781 139.851562 326.285156 140.34375 C 326.511719 140.570312 326.964844 140.945312 327.292969 141.171875 C 327.988281 141.65625 328.328125 142.238281 328.347656 142.988281 C 328.363281 143.550781 328.046875 143.941406 327.132812 144.484375 C 326.914062 144.613281 326.570312 144.855469 326.367188 145.023438 C 325.945312 145.367188 324.679688 145.503906 324.085938 145.269531 Z M 326.273438 143.617188 C 326.789062 143.304688 327.210938 142.972656 327.210938 142.878906 C 327.210938 142.785156 326.984375 142.425781 326.707031 142.082031 C 326.113281 141.339844 325.40625 141.117188 324.839844 141.492188 C 324.042969 142.019531 324.289062 144.179688 325.144531 144.179688 C 325.25 144.179688 325.753906 143.925781 326.273438 143.617188 Z M 348.109375 144.496094 C 347.644531 144.175781 347.574219 144.042969 347.574219 143.496094 C 347.574219 142.019531 348.429688 141.726562 349.617188 142.789062 C 350.132812 143.25 350.175781 143.335938 350.085938 143.746094 C 349.90625 144.566406 348.8125 144.980469 348.109375 144.496094 Z M 348.894531 143.605469 C 348.8125 143.351562 348.519531 143.308594 348.519531 143.550781 C 348.519531 143.671875 348.617188 143.769531 348.734375 143.769531 C 348.851562 143.769531 348.925781 143.695312 348.894531 143.605469 Z M 331.011719 137.585938 C 330.574219 137.410156 330.203125 136.929688 330.203125 136.527344 C 330.199219 136.351562 330.382812 136.019531 330.609375 135.789062 C 330.984375 135.414062 331.082031 135.382812 331.59375 135.464844 C 332.332031 135.582031 332.914062 136.128906 332.910156 136.699219 C 332.90625 137.195312 332.8125 137.367188 332.414062 137.578125 C 332.058594 137.765625 331.480469 137.769531 331.011719 137.585938 Z M 332.023438 136.789062 C 332.105469 136.65625 331.75 136.226562 331.5625 136.226562 C 331.503906 136.226562 331.382812 136.316406 331.292969 136.421875 C 331.167969 136.574219 331.183594 136.648438 331.378906 136.761719 C 331.683594 136.941406 331.921875 136.949219 332.023438 136.789062 Z M 332.023438 136.789062 "/></g></svg>