<svg xmlns="http://www.w3.org/2000/svg" xmlns:xlink="http://www.w3.org/1999/xlink" width="120" zoomAndPan="magnify" viewBox="0 0 90 30.000001" height="40" preserveAspectRatio="xMidYMid meet" version="1.2"><defs><clipPath id="3f8f7f7604"><path d="M 61 2 L 83.648438 2 L 83.648438 24 L 61 24 Z M 61 2 "/></clipPath></defs><g id="1494a800a9"><path style=" stroke:none;fill-rule:nonzero;fill:#780b0d;fill-opacity:1;" d="M 58.335938 24.910156 C 57.089844 24.746094 56.164062 24.015625 55.546875 22.707031 C 55.222656 22.023438 55.050781 21.496094 54.714844 20.160156 C 54.292969 18.464844 54.136719 18.078125 53.78125 17.863281 C 53.390625 17.625 53.402344 17.597656 53.402344 19.160156 C 53.402344 20.683594 53.425781 20.816406 53.710938 20.949219 C 53.800781 20.988281 53.859375 21.0625 53.859375 21.132812 C 53.859375 21.246094 53.835938 21.25 52.644531 21.234375 C 51.539062 21.21875 51.425781 21.210938 51.40625 21.117188 C 51.394531 21.054688 51.4375 21 51.519531 20.96875 C 51.59375 20.941406 51.707031 20.859375 51.769531 20.789062 C 51.878906 20.664062 51.882812 20.570312 51.898438 16.863281 L 51.914062 13.0625 L 51.726562 13.035156 C 51.625 13.015625 51.257812 12.960938 50.910156 12.910156 C 50.5625 12.863281 49.164062 12.539062 47.796875 12.191406 C 45.019531 11.492188 44.246094 11.339844 43.445312 11.339844 C 41.941406 11.34375 40.816406 11.972656 40.464844 13.007812 L 40.367188 13.300781 L 40.1875 13.148438 C 39.820312 12.839844 39.703125 11.957031 39.945312 11.3125 C 40.113281 10.863281 40.539062 10.441406 41.089844 10.175781 C 41.769531 9.847656 42.183594 9.769531 43.234375 9.765625 C 44.09375 9.765625 44.199219 9.777344 44.894531 9.957031 C 45.816406 10.195312 46.558594 10.457031 48.703125 11.3125 C 49.632812 11.683594 50.730469 12.097656 51.140625 12.234375 L 51.882812 12.480469 L 51.929688 12.183594 C 51.953125 12.019531 52.039062 11.585938 52.113281 11.226562 C 52.433594 9.699219 53.308594 8.609375 54.515625 8.230469 C 55 8.082031 56.148438 8.054688 56.664062 8.179688 C 57.480469 8.382812 58.261719 8.925781 58.582031 9.515625 C 58.71875 9.761719 58.753906 9.910156 58.773438 10.289062 C 58.796875 10.71875 58.785156 10.792969 58.628906 11.121094 C 58.097656 12.253906 56.441406 13.003906 54.269531 13.097656 C 53.742188 13.121094 53.4375 13.15625 53.421875 13.195312 C 53.410156 13.230469 53.40625 13.789062 53.414062 14.433594 L 53.429688 15.605469 L 53.570312 15.320312 C 54.085938 14.265625 55.355469 13.886719 56.117188 14.554688 C 56.515625 14.90625 56.59375 15.363281 56.347656 15.894531 C 56.179688 16.257812 55.441406 16.957031 54.933594 17.234375 C 54.6875 17.367188 54.488281 17.488281 54.488281 17.503906 C 54.488281 17.515625 54.558594 17.636719 54.640625 17.769531 C 54.726562 17.902344 55.039062 18.527344 55.332031 19.15625 C 56.203125 21.011719 56.582031 21.640625 57.21875 22.292969 C 57.859375 22.949219 58.429688 23.246094 59.128906 23.292969 C 59.765625 23.335938 60.050781 23.246094 60.421875 22.882812 C 60.585938 22.722656 60.730469 22.554688 60.75 22.507812 C 60.777344 22.433594 60.792969 22.4375 60.867188 22.523438 C 60.988281 22.675781 61.03125 23.0625 60.960938 23.414062 C 60.796875 24.277344 60.289062 24.769531 59.414062 24.910156 C 58.996094 24.976562 58.859375 24.976562 58.335938 24.910156 Z M 53.984375 16.941406 C 54.757812 16.53125 55.269531 15.730469 54.96875 15.394531 C 54.75 15.15625 54.289062 15.320312 53.859375 15.789062 C 53.550781 16.128906 53.402344 16.5 53.402344 16.9375 C 53.402344 17.171875 53.410156 17.1875 53.53125 17.148438 C 53.601562 17.128906 53.804688 17.035156 53.984375 16.941406 Z M 54.433594 12.652344 C 55.804688 12.484375 56.738281 11.972656 57.160156 11.164062 C 57.296875 10.894531 57.320312 10.785156 57.320312 10.367188 C 57.324219 9.945312 57.300781 9.835938 57.164062 9.554688 C 56.976562 9.167969 56.648438 8.816406 56.308594 8.636719 C 55.964844 8.453125 55.273438 8.457031 54.851562 8.644531 C 54.289062 8.890625 53.804688 9.554688 53.601562 10.347656 C 53.496094 10.769531 53.402344 11.632812 53.402344 12.242188 L 53.402344 12.714844 L 53.675781 12.714844 C 53.824219 12.714844 54.167969 12.6875 54.433594 12.652344 Z M 10.046875 24.511719 C 9.382812 24.40625 8.898438 24.160156 8.488281 23.722656 C 7.976562 23.175781 7.785156 22.601562 7.824219 21.730469 C 7.847656 21.207031 7.871094 21.101562 8.058594 20.710938 C 8.308594 20.179688 8.714844 19.753906 9.175781 19.539062 C 9.445312 19.414062 9.601562 19.382812 10.0625 19.367188 C 10.578125 19.347656 10.652344 19.359375 10.933594 19.5 C 11.503906 19.777344 11.785156 20.265625 11.789062 20.960938 C 11.789062 21.332031 11.765625 21.433594 11.621094 21.699219 C 11.441406 22.027344 11.164062 22.253906 10.863281 22.3125 C 10.6875 22.347656 10.601562 22.273438 10.730469 22.195312 C 10.84375 22.125 10.921875 21.574219 10.851562 21.316406 C 10.5625 20.238281 9.0625 20.355469 8.585938 21.496094 C 8.441406 21.84375 8.464844 22.503906 8.632812 22.863281 C 8.933594 23.515625 9.449219 23.839844 10.230469 23.871094 C 10.871094 23.898438 11.203125 23.792969 11.601562 23.433594 C 12.511719 22.617188 12.90625 21.324219 13.367188 17.667969 C 13.460938 16.910156 13.539062 16.261719 13.539062 16.222656 C 13.539062 16.132812 13.136719 16.128906 12.734375 16.214844 C 12.371094 16.292969 11.972656 16.628906 11.808594 16.996094 C 11.601562 17.46875 11.6875 18.078125 11.984375 18.234375 L 12.128906 18.3125 L 11.996094 18.382812 C 11.917969 18.425781 11.730469 18.445312 11.535156 18.429688 C 11.125 18.402344 10.859375 18.214844 10.675781 17.835938 C 10.570312 17.617188 10.550781 17.507812 10.574219 17.164062 C 10.621094 16.425781 11.039062 15.867188 11.8125 15.5 C 12.179688 15.328125 12.222656 15.320312 12.921875 15.320312 L 13.648438 15.320312 L 13.679688 15.121094 C 14 12.933594 14.304688 11.597656 14.707031 10.59375 C 15.546875 8.503906 16.699219 7.53125 18.554688 7.355469 C 20.046875 7.214844 21.214844 8.03125 21.214844 9.214844 C 21.214844 9.84375 20.949219 10.363281 20.488281 10.632812 C 20.246094 10.773438 20.15625 10.792969 19.753906 10.792969 C 19.234375 10.789062 18.929688 10.671875 18.675781 10.367188 C 18.433594 10.082031 18.410156 9.554688 18.617188 9.148438 C 18.726562 8.9375 18.769531 8.949219 18.890625 9.222656 C 19.023438 9.53125 19.207031 9.644531 19.5 9.605469 C 19.789062 9.566406 19.867188 9.5 19.984375 9.195312 C 20.097656 8.894531 20.03125 8.578125 19.796875 8.296875 C 19.558594 8.011719 19.257812 7.90625 18.695312 7.90625 C 17.945312 7.902344 17.453125 8.0625 16.90625 8.480469 C 15.726562 9.382812 15.179688 11.289062 15.054688 14.949219 L 15.019531 15.949219 L 15.28125 16.140625 C 15.628906 16.394531 16.117188 17.046875 16.386719 17.609375 L 16.605469 18.070312 L 16.617188 14.679688 C 16.628906 12.539062 16.613281 11.238281 16.578125 11.140625 C 16.546875 11.058594 16.429688 10.9375 16.316406 10.871094 C 16.191406 10.800781 16.117188 10.714844 16.128906 10.660156 C 16.144531 10.578125 16.289062 10.566406 17.378906 10.566406 C 18.464844 10.566406 18.609375 10.578125 18.625 10.660156 C 18.636719 10.714844 18.566406 10.796875 18.441406 10.871094 C 18.304688 10.953125 18.222656 11.054688 18.179688 11.207031 C 18.128906 11.367188 18.117188 12.820312 18.136719 16.550781 C 18.15625 21.609375 18.160156 21.683594 18.28125 22.128906 C 18.433594 22.671875 18.621094 23.011719 18.902344 23.242188 C 19.261719 23.539062 19.84375 23.621094 20.167969 23.425781 C 20.40625 23.28125 20.410156 23.382812 20.179688 23.601562 C 19.851562 23.90625 19.144531 24.019531 18.453125 23.875 C 18.0625 23.792969 17.742188 23.609375 17.449219 23.289062 C 16.917969 22.710938 16.710938 22.019531 16.632812 20.554688 C 16.554688 19.054688 16.347656 18.234375 15.863281 17.507812 C 15.667969 17.210938 15.039062 16.582031 14.988281 16.628906 C 14.976562 16.640625 14.929688 17.199219 14.882812 17.875 C 14.839844 18.546875 14.773438 19.292969 14.738281 19.53125 C 14.328125 22.488281 13.402344 23.988281 11.730469 24.417969 C 11.300781 24.53125 10.453125 24.578125 10.046875 24.511719 Z M 29.527344 21.132812 C 29.054688 20.910156 28.484375 20.34375 28.273438 19.890625 C 28.136719 19.601562 28.117188 19.488281 28.117188 19.015625 C 28.117188 18.542969 28.136719 18.425781 28.269531 18.144531 C 28.773438 17.070312 30.066406 16.523438 31.246094 16.894531 C 31.445312 16.957031 31.617188 17.007812 31.625 17.007812 C 31.667969 17.011719 31.625 15.855469 31.574219 15.664062 C 31.535156 15.527344 31.410156 15.335938 31.273438 15.195312 C 31.082031 15.007812 30.976562 14.949219 30.757812 14.917969 C 30.449219 14.871094 29.957031 14.960938 29.777344 15.09375 C 29.667969 15.179688 29.667969 15.183594 29.816406 15.308594 C 30.460938 15.851562 29.859375 16.847656 29.117188 16.464844 C 28.875 16.339844 28.773438 16.160156 28.773438 15.847656 C 28.773438 15.535156 28.863281 15.328125 29.097656 15.113281 C 29.671875 14.578125 30.984375 14.453125 32.007812 14.835938 C 32.390625 14.980469 32.808594 15.359375 32.976562 15.710938 C 33.148438 16.078125 33.183594 16.550781 33.183594 18.675781 L 33.183594 20.710938 L 33.3125 20.828125 C 33.382812 20.890625 33.488281 20.960938 33.546875 20.980469 C 33.605469 21.003906 33.644531 21.0625 33.632812 21.117188 C 33.613281 21.207031 33.511719 21.21875 32.625 21.234375 C 31.667969 21.25 31.636719 21.246094 31.636719 21.132812 C 31.636719 20.988281 31.617188 20.988281 31.15625 21.160156 C 30.59375 21.375 30.015625 21.363281 29.527344 21.132812 Z M 31.121094 20.5 C 32.050781 19.789062 32.332031 19.40625 32.332031 18.863281 C 32.332031 18.246094 31.9375 17.84375 31.34375 17.851562 C 31 17.855469 30.710938 18.027344 30.53125 18.332031 L 30.394531 18.5625 L 30.320312 18.382812 C 30.226562 18.160156 29.929688 17.929688 29.648438 17.863281 C 29.234375 17.769531 28.777344 17.996094 28.570312 18.394531 C 28.449219 18.625 28.46875 19.105469 28.605469 19.394531 C 28.746094 19.6875 29.351562 20.265625 29.960938 20.695312 C 30.472656 21.058594 30.367188 21.078125 31.121094 20.5 Z M 47.214844 21.222656 C 46.527344 20.96875 46.054688 20.636719 45.765625 20.199219 C 45.199219 19.347656 45.28125 18.316406 45.980469 17.539062 C 46.636719 16.8125 47.84375 16.574219 48.839844 16.984375 C 48.941406 17.023438 48.945312 16.988281 48.925781 16.3125 C 48.90625 15.640625 48.894531 15.582031 48.742188 15.355469 C 48.417969 14.859375 47.65625 14.738281 47.113281 15.09375 L 46.96875 15.191406 L 47.148438 15.328125 C 47.507812 15.613281 47.488281 16.164062 47.105469 16.421875 C 46.636719 16.738281 46.070312 16.417969 46.070312 15.835938 C 46.070312 14.980469 47.144531 14.46875 48.546875 14.652344 C 49.4375 14.769531 49.984375 15.113281 50.292969 15.738281 L 50.453125 16.0625 L 50.480469 18.390625 C 50.511719 20.886719 50.507812 20.851562 50.8125 20.96875 C 50.898438 21 50.941406 21.054688 50.925781 21.117188 C 50.910156 21.207031 50.808594 21.21875 49.921875 21.234375 C 48.980469 21.25 48.933594 21.246094 48.933594 21.140625 C 48.933594 21.035156 48.917969 21.035156 48.605469 21.167969 C 48.226562 21.320312 47.558594 21.347656 47.214844 21.222656 Z M 48.582031 20.535156 C 49.53125 19.816406 49.851562 19.386719 49.851562 18.820312 C 49.851562 18.1875 49.246094 17.707031 48.648438 17.867188 C 48.371094 17.941406 48.03125 18.226562 47.980469 18.421875 L 47.945312 18.5625 L 47.847656 18.398438 C 47.28125 17.46875 45.992188 17.777344 45.988281 18.839844 C 45.984375 19.253906 46.125 19.53125 46.527344 19.925781 C 46.933594 20.324219 47.789062 20.960938 47.914062 20.960938 C 47.96875 20.960938 48.269531 20.769531 48.582031 20.535156 Z M 19.398438 21.152344 C 19.375 21.089844 19.398438 21.03125 19.46875 20.992188 C 19.527344 20.960938 19.636719 20.875 19.707031 20.804688 L 19.839844 20.679688 L 19.839844 15.171875 L 19.707031 15.046875 C 19.636719 14.976562 19.527344 14.890625 19.46875 14.859375 C 19.398438 14.820312 19.375 14.761719 19.398438 14.699219 C 19.429688 14.613281 19.550781 14.605469 20.410156 14.605469 L 21.386719 14.605469 L 21.386719 15.300781 L 21.535156 15.121094 C 21.78125 14.832031 22.148438 14.652344 22.554688 14.617188 C 23.253906 14.5625 23.753906 14.796875 24.082031 15.328125 L 24.203125 15.523438 L 24.371094 15.273438 C 24.6875 14.792969 25.171875 14.574219 25.804688 14.617188 C 26.496094 14.667969 26.972656 15.035156 27.175781 15.683594 C 27.222656 15.824219 27.253906 16.679688 27.269531 18.292969 C 27.296875 20.679688 27.296875 20.691406 27.421875 20.8125 C 27.492188 20.878906 27.597656 20.960938 27.65625 20.992188 C 27.726562 21.03125 27.75 21.089844 27.726562 21.152344 C 27.691406 21.242188 27.578125 21.25 26.5 21.234375 C 25.335938 21.21875 25.308594 21.214844 25.292969 21.097656 C 25.277344 21.007812 25.3125 20.964844 25.417969 20.9375 C 25.726562 20.863281 25.738281 20.761719 25.738281 18.34375 C 25.738281 16.917969 25.714844 16.039062 25.675781 15.894531 C 25.578125 15.539062 25.425781 15.40625 25.105469 15.40625 C 24.863281 15.40625 24.8125 15.429688 24.632812 15.628906 C 24.320312 15.980469 24.296875 16.179688 24.316406 18.5625 C 24.335938 20.570312 24.339844 20.667969 24.449219 20.789062 C 24.511719 20.859375 24.625 20.941406 24.699219 20.96875 C 24.78125 21 24.824219 21.054688 24.8125 21.117188 C 24.792969 21.210938 24.6875 21.21875 23.5625 21.21875 C 22.4375 21.21875 22.332031 21.210938 22.3125 21.117188 C 22.300781 21.054688 22.34375 21 22.425781 20.96875 C 22.5 20.941406 22.613281 20.859375 22.675781 20.789062 C 22.785156 20.667969 22.789062 20.582031 22.789062 18.335938 C 22.789062 15.859375 22.769531 15.671875 22.515625 15.492188 C 22.445312 15.445312 22.277344 15.40625 22.140625 15.40625 C 21.925781 15.40625 21.859375 15.4375 21.707031 15.597656 C 21.398438 15.921875 21.386719 16.042969 21.386719 18.464844 L 21.386719 20.679688 L 21.527344 20.820312 C 21.605469 20.898438 21.707031 20.960938 21.757812 20.960938 C 21.8125 20.960938 21.84375 21.011719 21.84375 21.105469 L 21.84375 21.246094 L 20.640625 21.246094 C 19.5625 21.246094 19.429688 21.238281 19.398438 21.152344 Z M 34.121094 21.164062 C 34.082031 21.058594 34.140625 20.960938 34.242188 20.960938 C 34.285156 20.960938 34.375 20.894531 34.441406 20.808594 C 34.554688 20.664062 34.558594 20.605469 34.558594 17.929688 C 34.558594 14.957031 34.566406 15.011719 34.234375 14.886719 C 34.144531 14.851562 34.097656 14.796875 34.113281 14.734375 C 34.128906 14.640625 34.242188 14.632812 35.347656 14.617188 L 36.5625 14.601562 L 36.5625 14.746094 C 36.5625 14.839844 36.53125 14.890625 36.476562 14.890625 C 36.425781 14.890625 36.324219 14.953125 36.246094 15.03125 L 36.105469 15.171875 L 36.105469 20.679688 L 36.246094 20.820312 C 36.324219 20.898438 36.425781 20.960938 36.476562 20.960938 C 36.53125 20.960938 36.5625 21.011719 36.5625 21.105469 L 36.5625 21.246094 L 35.359375 21.246094 C 34.359375 21.246094 34.148438 21.234375 34.121094 21.164062 Z M 42.464844 21.1875 C 42.042969 21.101562 41.613281 20.851562 41.203125 20.464844 C 40.082031 19.40625 39.851562 17.527344 40.664062 16.0625 C 40.902344 15.640625 41.457031 15.113281 41.890625 14.898438 C 42.714844 14.496094 43.742188 14.53125 44.332031 14.980469 C 44.917969 15.425781 45.039062 16.4375 44.542969 16.761719 C 44.371094 16.875 43.980469 16.871094 43.796875 16.75 C 43.609375 16.625 43.472656 16.296875 43.519531 16.058594 C 43.550781 15.882812 43.832031 15.574219 44.015625 15.503906 C 44.148438 15.457031 43.824219 15.175781 43.574219 15.117188 C 43.148438 15.023438 42.699219 15.199219 42.332031 15.605469 C 42.148438 15.804688 41.894531 16.390625 41.796875 16.824219 C 41.664062 17.429688 41.707031 18.632812 41.878906 19.070312 C 42.183594 19.847656 42.734375 20.273438 43.4375 20.273438 C 43.78125 20.273438 43.855469 20.253906 44.101562 20.082031 C 44.277344 19.964844 44.453125 19.773438 44.574219 19.566406 C 44.726562 19.3125 44.800781 19.242188 44.910156 19.242188 C 45.042969 19.242188 45.050781 19.257812 45.011719 19.457031 C 44.902344 20.0625 44.363281 20.777344 43.808594 21.050781 C 43.46875 21.214844 42.882812 21.277344 42.464844 21.1875 Z M 58.640625 21.167969 C 57.714844 20.941406 57.027344 20.253906 56.683594 19.21875 C 56.546875 18.804688 56.53125 18.671875 56.53125 17.925781 C 56.53125 17.179688 56.546875 17.046875 56.683594 16.636719 C 57.167969 15.167969 58.234375 14.421875 59.507812 14.664062 C 60.292969 14.8125 60.917969 15.445312 61.21875 16.390625 C 61.375 16.886719 61.523438 17.949219 61.460938 18.113281 C 61.425781 18.203125 61.265625 18.210938 59.730469 18.210938 L 58.039062 18.210938 L 58.039062 18.375 C 58.039062 18.636719 58.136719 19.074219 58.273438 19.441406 C 58.441406 19.890625 58.886719 20.351562 59.242188 20.445312 C 59.707031 20.570312 60.273438 20.445312 60.5625 20.15625 C 60.71875 20 60.703125 19.949219 60.476562 19.90625 C 59.886719 19.796875 59.804688 18.90625 60.363281 18.644531 C 60.632812 18.515625 60.898438 18.5625 61.128906 18.78125 C 61.289062 18.929688 61.304688 18.980469 61.304688 19.292969 C 61.304688 20.59375 60.011719 21.5 58.640625 21.167969 Z M 59.898438 17.195312 C 59.824219 16.140625 59.640625 15.460938 59.355469 15.203125 C 59.214844 15.074219 58.953125 15.070312 58.765625 15.195312 C 58.4375 15.410156 58.042969 16.625 58.039062 17.425781 L 58.039062 17.753906 L 59.9375 17.753906 Z M 63.609375 21.183594 C 62.988281 21.082031 62.445312 20.707031 62.199219 20.207031 C 61.835938 19.480469 62.171875 18.671875 62.832031 18.671875 C 63.050781 18.671875 63.121094 18.699219 63.285156 18.863281 C 63.453125 19.03125 63.480469 19.097656 63.480469 19.328125 C 63.480469 19.558594 63.453125 19.625 63.285156 19.792969 C 63.113281 19.964844 63.054688 19.988281 62.792969 19.988281 L 62.492188 19.988281 L 62.632812 20.171875 C 62.710938 20.277344 62.890625 20.425781 63.027344 20.503906 C 63.246094 20.625 63.351562 20.644531 63.796875 20.644531 C 64.257812 20.644531 64.34375 20.625 64.621094 20.472656 C 64.972656 20.28125 65.195312 19.984375 65.234375 19.664062 C 65.289062 19.210938 64.953125 18.917969 63.972656 18.558594 C 62.597656 18.054688 62.148438 17.5625 62.148438 16.566406 C 62.148438 16.152344 62.167969 16.050781 62.328125 15.722656 C 62.628906 15.113281 63.136719 14.78125 63.957031 14.652344 C 64.765625 14.527344 65.519531 14.75 65.851562 15.21875 C 66.089844 15.558594 66.164062 15.773438 66.167969 16.171875 C 66.171875 16.476562 66.15625 16.523438 65.976562 16.699219 C 65.8125 16.867188 65.742188 16.894531 65.515625 16.894531 C 65.285156 16.894531 65.214844 16.867188 65.050781 16.699219 C 64.882812 16.535156 64.855469 16.464844 64.855469 16.234375 C 64.855469 16.007812 64.882812 15.9375 65.050781 15.773438 C 65.222656 15.597656 65.367188 15.542969 65.585938 15.574219 C 65.714844 15.589844 65.660156 15.46875 65.464844 15.324219 C 65.140625 15.074219 64.605469 15.023438 64.070312 15.183594 C 63.808594 15.265625 63.5 15.628906 63.453125 15.914062 C 63.363281 16.445312 63.742188 16.78125 64.851562 17.152344 C 65.183594 17.261719 65.589844 17.429688 65.753906 17.523438 C 66.492188 17.949219 66.796875 18.773438 66.539062 19.640625 C 66.199219 20.789062 65.007812 21.417969 63.609375 21.183594 Z M 34.953125 13.945312 C 34.464844 13.679688 34.472656 12.878906 34.964844 12.625 C 35.378906 12.410156 35.894531 12.613281 36.046875 13.046875 C 36.121094 13.257812 36.121094 13.316406 36.046875 13.527344 C 35.894531 13.960938 35.359375 14.167969 34.953125 13.945312 Z M 34.953125 13.945312 "/><g clip-rule="nonzero" clip-path="url(#3f8f7f7604)"><path style=" stroke:none;fill-rule:nonzero;fill:#780b0d;fill-opacity:1;" d="M 72.089844 23.554688 C 71.929688 23.542969 71.558594 23.519531 71.269531 23.5 C 70.976562 23.480469 70.589844 23.449219 70.40625 23.429688 C 69.816406 23.359375 68.929688 23.230469 68.859375 23.203125 C 68.835938 23.195312 68.742188 23.179688 68.652344 23.164062 C 68.152344 23.085938 67.3125 22.84375 66.828125 22.632812 C 66.140625 22.339844 65.828125 22.0625 65.804688 21.726562 C 65.792969 21.589844 65.800781 21.558594 65.886719 21.433594 C 65.9375 21.355469 66.042969 21.246094 66.117188 21.1875 C 66.398438 20.972656 67.039062 20.699219 67.5625 20.574219 C 67.679688 20.542969 67.796875 20.507812 67.816406 20.492188 C 67.84375 20.46875 67.835938 20.40625 67.789062 20.171875 C 67.667969 19.621094 67.625 19.175781 67.644531 18.605469 C 67.664062 18.042969 67.691406 17.8125 67.777344 17.464844 C 67.882812 17.0625 67.992188 16.917969 68.269531 16.832031 C 68.488281 16.765625 68.679688 16.761719 68.964844 16.820312 C 69.203125 16.871094 69.242188 16.886719 69.410156 17.015625 C 69.496094 17.082031 69.558594 17.109375 69.640625 17.109375 C 69.769531 17.109375 69.851562 17.15625 69.976562 17.296875 C 70.027344 17.351562 70.09375 17.402344 70.125 17.410156 C 70.234375 17.441406 70.652344 17.597656 70.890625 17.699219 C 71.136719 17.800781 71.246094 17.839844 71.714844 18 C 72.210938 18.167969 72.523438 18.320312 72.609375 18.433594 C 72.660156 18.5 72.679688 18.644531 72.648438 18.730469 C 72.597656 18.863281 72.539062 18.867188 71.9375 18.777344 C 71.621094 18.730469 71.082031 18.53125 70.550781 18.265625 C 70.363281 18.175781 70.199219 18.097656 70.179688 18.097656 C 70.164062 18.097656 70.109375 18.179688 70.0625 18.273438 C 70.011719 18.371094 69.949219 18.488281 69.917969 18.539062 C 69.847656 18.648438 69.867188 18.699219 69.992188 18.742188 C 70.125 18.792969 70.402344 18.984375 70.582031 19.15625 C 70.734375 19.296875 71.0625 19.699219 71.21875 19.925781 L 71.304688 20.050781 L 72.40625 20.054688 L 73.511719 20.0625 L 73.59375 19.992188 C 73.640625 19.953125 73.679688 19.90625 73.679688 19.890625 C 73.679688 19.871094 73.703125 19.808594 73.730469 19.746094 C 73.78125 19.636719 73.78125 19.632812 73.730469 19.5625 C 73.523438 19.289062 73.050781 18.636719 72.914062 18.4375 C 72.824219 18.304688 72.585938 17.976562 72.386719 17.703125 C 72.183594 17.433594 72.007812 17.1875 71.992188 17.164062 C 71.910156 17.027344 71.632812 16.632812 71.597656 16.601562 C 71.574219 16.582031 71.546875 16.539062 71.53125 16.503906 C 71.507812 16.445312 71.492188 16.441406 71.289062 16.441406 C 70.75 16.441406 70.34375 16.25 69.890625 15.789062 C 69.726562 15.625 69.722656 15.621094 69.578125 15.625 C 69.335938 15.632812 69.097656 15.570312 68.914062 15.453125 C 68.742188 15.335938 68.640625 15.207031 68.550781 14.964844 C 68.5 14.828125 68.484375 14.8125 68.335938 14.75 C 68.25 14.714844 68.117188 14.648438 68.046875 14.605469 C 67.972656 14.5625 67.90625 14.527344 67.894531 14.527344 C 67.859375 14.527344 67.523438 14.234375 67.347656 14.050781 C 67.242188 13.941406 67.152344 13.851562 67.144531 13.851562 C 67.109375 13.851562 66.878906 14.035156 66.71875 14.191406 C 66.304688 14.585938 66.082031 14.703125 65.742188 14.707031 C 65.566406 14.707031 65.503906 14.691406 65.351562 14.617188 C 65.058594 14.476562 64.78125 14.207031 64.589844 13.875 C 64.550781 13.804688 64.449219 13.671875 64.367188 13.582031 L 64.21875 13.421875 L 64.09375 13.453125 C 64.027344 13.46875 63.941406 13.476562 63.902344 13.464844 C 63.800781 13.441406 63.617188 13.300781 63.5625 13.203125 C 63.523438 13.140625 63.492188 13.121094 63.429688 13.121094 C 63.324219 13.121094 63.160156 13.050781 63.074219 12.972656 C 63.039062 12.9375 62.984375 12.855469 62.949219 12.789062 C 62.917969 12.71875 62.851562 12.628906 62.808594 12.582031 C 62.726562 12.503906 62.714844 12.5 62.445312 12.5 C 61.976562 12.5 61.789062 12.367188 61.789062 12.03125 C 61.789062 11.816406 61.9375 11.621094 62.171875 11.53125 C 62.285156 11.484375 62.320312 11.484375 62.46875 11.515625 C 62.558594 11.535156 62.683594 11.574219 62.742188 11.605469 C 62.800781 11.636719 62.859375 11.652344 62.871094 11.644531 C 62.882812 11.636719 62.902344 11.5625 62.910156 11.480469 C 62.933594 11.242188 63.078125 11.007812 63.246094 10.933594 C 63.347656 10.886719 63.464844 10.890625 63.59375 10.941406 C 63.695312 10.984375 63.710938 10.984375 63.773438 10.941406 C 63.8125 10.917969 63.90625 10.890625 63.984375 10.878906 C 64.144531 10.859375 64.132812 10.878906 64.195312 10.523438 C 64.300781 9.949219 64.433594 9.785156 64.691406 9.910156 C 64.867188 9.996094 65.015625 10.207031 65.046875 10.410156 C 65.070312 10.574219 65.066406 10.617188 64.964844 11.042969 C 64.9375 11.148438 64.941406 11.230469 64.988281 11.503906 C 65.058594 11.910156 65.0625 12.21875 65 12.339844 C 64.96875 12.402344 64.960938 12.464844 64.972656 12.566406 C 64.988281 12.714844 64.949219 12.929688 64.890625 13.019531 C 64.867188 13.050781 64.851562 13.089844 64.851562 13.109375 C 64.851562 13.140625 65.3125 13.542969 65.574219 13.746094 C 65.777344 13.898438 65.835938 13.875 66.320312 13.453125 C 66.664062 13.152344 66.660156 13.152344 66.527344 12.878906 C 66.464844 12.757812 66.402344 12.613281 66.386719 12.558594 C 66.371094 12.503906 66.332031 12.363281 66.296875 12.25 C 66.238281 12.058594 66.234375 11.976562 66.230469 11.445312 C 66.230469 10.777344 66.253906 10.652344 66.433594 10.414062 L 66.53125 10.285156 L 66.535156 9.640625 C 66.535156 9.085938 66.542969 8.960938 66.597656 8.710938 C 66.699219 8.253906 66.851562 7.957031 67.152344 7.636719 C 67.246094 7.53125 67.28125 7.464844 67.328125 7.285156 C 67.460938 6.792969 67.660156 6.371094 67.835938 6.210938 C 67.882812 6.164062 67.992188 6.054688 68.078125 5.964844 C 68.449219 5.574219 68.933594 5.328125 69.605469 5.1875 C 69.796875 5.144531 69.957031 5.132812 70.140625 5.136719 C 70.375 5.144531 70.421875 5.136719 70.511719 5.082031 C 70.707031 4.964844 70.863281 4.929688 71.1875 4.929688 C 71.390625 4.929688 71.523438 4.941406 71.589844 4.96875 L 71.6875 5.007812 L 71.691406 5.316406 C 71.695312 5.613281 71.699219 5.632812 71.796875 5.835938 C 71.914062 6.074219 72.027344 6.207031 72.1875 6.292969 C 72.277344 6.339844 72.347656 6.351562 72.5625 6.351562 C 72.789062 6.351562 72.851562 6.34375 72.980469 6.28125 C 73.132812 6.210938 73.511719 5.878906 73.511719 5.8125 C 73.511719 5.796875 73.539062 5.765625 73.570312 5.75 C 73.664062 5.699219 73.695312 5.761719 73.730469 6.074219 C 73.769531 6.417969 73.859375 6.621094 74.078125 6.863281 C 74.328125 7.140625 74.644531 7.207031 74.945312 7.046875 C 75.210938 6.898438 75.328125 6.816406 75.5 6.648438 C 75.679688 6.480469 75.78125 6.414062 75.820312 6.4375 C 75.859375 6.460938 75.898438 6.605469 75.949219 6.890625 C 75.996094 7.160156 75.996094 7.171875 76.109375 7.417969 C 76.246094 7.714844 76.527344 7.960938 76.878906 8.085938 C 77.109375 8.167969 77.519531 8.171875 77.804688 8.089844 C 77.949219 8.046875 78 8.042969 78.03125 8.066406 C 78.132812 8.144531 78.382812 9.296875 78.382812 9.683594 C 78.382812 9.742188 78.40625 9.886719 78.4375 10.011719 C 78.535156 10.421875 78.554688 10.65625 78.519531 10.996094 C 78.503906 11.164062 78.46875 11.371094 78.4375 11.449219 C 78.390625 11.589844 78.386719 11.605469 78.433594 11.773438 C 78.476562 11.941406 78.488281 11.957031 78.605469 12.015625 C 78.882812 12.148438 79.472656 12.171875 79.726562 12.058594 C 79.859375 12 80.070312 11.773438 80.167969 11.585938 C 80.222656 11.488281 80.226562 11.445312 80.214844 11.195312 C 80.203125 10.996094 80.175781 10.839844 80.121094 10.671875 C 79.992188 10.261719 80.035156 9.90625 80.222656 9.867188 C 80.308594 9.851562 80.398438 9.671875 80.457031 9.402344 C 80.507812 9.179688 80.496094 9.113281 80.355469 8.761719 C 80.21875 8.425781 80.203125 8.304688 80.257812 8.109375 C 80.355469 7.777344 80.644531 7.648438 80.898438 7.820312 C 81.0625 7.933594 81.140625 8.125 81.140625 8.425781 C 81.140625 8.558594 81.148438 8.675781 81.15625 8.683594 C 81.191406 8.71875 81.335938 8.589844 81.445312 8.429688 C 81.542969 8.285156 81.828125 7.984375 82.128906 7.71875 C 82.359375 7.511719 82.394531 7.496094 82.539062 7.496094 C 82.65625 7.496094 82.6875 7.507812 82.753906 7.578125 C 82.839844 7.667969 82.867188 7.769531 82.867188 7.976562 C 82.867188 8.128906 82.800781 8.285156 82.664062 8.457031 L 82.582031 8.558594 L 82.640625 8.636719 C 82.6875 8.695312 82.699219 8.75 82.699219 8.890625 L 82.699219 9.070312 L 82.804688 9.113281 C 82.9375 9.167969 83 9.226562 83.066406 9.363281 C 83.28125 9.789062 82.785156 10.625 82.136719 10.9375 C 82.066406 10.96875 81.890625 11 81.628906 11.023438 C 81.378906 11.046875 81.207031 11.074219 81.179688 11.097656 C 81.15625 11.117188 81.105469 11.148438 81.074219 11.164062 C 81.027344 11.1875 81.011719 11.222656 81.007812 11.335938 C 80.972656 12.058594 80.539062 12.652344 79.882812 12.878906 C 79.601562 12.976562 79.0625 12.972656 78.820312 12.871094 C 78.777344 12.851562 78.695312 12.839844 78.636719 12.839844 C 78.53125 12.839844 78.527344 12.84375 78.507812 12.945312 C 78.5 13.003906 78.46875 13.089844 78.445312 13.140625 C 78.390625 13.242188 78.171875 13.523438 78 13.707031 C 77.886719 13.828125 77.882812 13.839844 77.882812 14.015625 C 77.882812 14.183594 77.875 14.210938 77.773438 14.34375 C 77.6875 14.457031 77.625 14.507812 77.511719 14.554688 C 77.390625 14.605469 77.355469 14.636719 77.34375 14.695312 C 77.304688 14.882812 77.058594 15.058594 76.828125 15.0625 C 76.703125 15.0625 76.617188 15.109375 76.429688 15.277344 C 76.207031 15.488281 75.851562 15.710938 75.613281 15.792969 C 75.582031 15.804688 75.488281 15.839844 75.40625 15.875 C 75.320312 15.910156 75.101562 15.996094 74.917969 16.066406 C 74.734375 16.132812 74.539062 16.226562 74.488281 16.269531 C 74.433594 16.3125 74.296875 16.402344 74.1875 16.46875 C 74.074219 16.535156 73.984375 16.59375 73.984375 16.597656 C 73.984375 16.601562 74.027344 16.707031 74.085938 16.835938 C 74.34375 17.453125 74.359375 18.027344 74.121094 18.285156 C 74.039062 18.375 74.003906 18.371094 73.902344 18.261719 C 73.78125 18.132812 73.695312 17.933594 73.609375 17.601562 C 73.570312 17.449219 73.503906 17.230469 73.457031 17.121094 C 73.410156 17.011719 73.359375 16.859375 73.34375 16.78125 C 73.324219 16.703125 73.296875 16.628906 73.277344 16.617188 C 73.261719 16.601562 73.089844 16.523438 72.902344 16.441406 C 72.539062 16.285156 72.257812 16.226562 72.257812 16.304688 C 72.257812 16.371094 72.894531 17.242188 73.398438 17.859375 C 73.746094 18.289062 74.09375 18.75 74.199219 18.925781 C 74.285156 19.066406 74.453125 19.3125 74.539062 19.417969 L 74.59375 19.488281 L 74.730469 19.414062 C 74.894531 19.324219 74.996094 19.316406 75.117188 19.390625 C 75.230469 19.460938 75.269531 19.539062 75.289062 19.730469 C 75.308594 19.902344 75.269531 19.878906 75.664062 19.96875 C 75.765625 19.992188 75.914062 20.042969 75.992188 20.082031 C 76.160156 20.164062 76.195312 20.167969 76.289062 20.101562 C 76.449219 19.992188 77.175781 19.714844 77.4375 19.667969 C 77.722656 19.613281 78.117188 19.671875 78.507812 19.828125 C 78.949219 20.003906 79.140625 20.125 79.402344 20.390625 C 79.84375 20.832031 79.988281 21.175781 79.964844 21.753906 C 79.957031 22.015625 79.945312 22.074219 79.867188 22.238281 C 79.765625 22.460938 79.621094 22.625 79.414062 22.765625 C 79.050781 23.007812 78.699219 23.109375 78.023438 23.164062 C 77.832031 23.179688 77.472656 23.222656 77.226562 23.261719 C 76.5 23.375 75.753906 23.464844 75.25 23.5 C 74.992188 23.515625 74.601562 23.542969 74.382812 23.554688 C 73.9375 23.585938 72.527344 23.585938 72.089844 23.554688 Z M 77.144531 22.882812 C 77.371094 22.839844 77.628906 22.777344 77.894531 22.695312 C 78.488281 22.523438 78.890625 22.394531 79.089844 22.316406 C 79.210938 22.273438 79.328125 22.234375 79.355469 22.234375 C 79.417969 22.238281 78.734375 22.570312 78.667969 22.570312 C 78.660156 22.570312 78.566406 22.601562 78.46875 22.640625 C 78.367188 22.675781 78.191406 22.734375 78.078125 22.769531 C 77.773438 22.859375 77.765625 22.890625 78.050781 22.871094 C 78.707031 22.816406 79.195312 22.636719 79.464844 22.347656 C 79.5 22.308594 79.5625 22.207031 79.601562 22.121094 C 79.667969 21.988281 79.675781 21.929688 79.675781 21.699219 C 79.679688 21.222656 79.574219 20.980469 79.207031 20.617188 C 78.960938 20.371094 78.8125 20.273438 78.480469 20.136719 C 78.167969 20.007812 78.03125 19.976562 77.742188 19.972656 C 77.476562 19.96875 77.429688 19.976562 77.214844 20.058594 C 77.085938 20.105469 76.878906 20.183594 76.757812 20.226562 C 76.234375 20.414062 76.039062 20.640625 75.53125 21.660156 C 75.324219 22.074219 75.171875 22.316406 75.121094 22.316406 C 75.070312 22.316406 75.066406 22.109375 75.109375 21.945312 C 75.203125 21.597656 75.648438 20.742188 75.882812 20.460938 C 75.941406 20.390625 75.988281 20.324219 75.988281 20.3125 C 75.988281 20.289062 75.652344 20.191406 75.433594 20.148438 C 75.050781 20.082031 75.066406 20.078125 74.914062 20.214844 C 74.746094 20.371094 74.527344 20.484375 74.359375 20.507812 C 74.21875 20.527344 73.949219 20.441406 73.796875 20.328125 C 73.746094 20.289062 73.6875 20.265625 73.667969 20.273438 C 73.597656 20.300781 73.523438 20.605469 73.527344 20.882812 C 73.527344 21.191406 73.578125 21.382812 73.734375 21.699219 C 74 22.234375 74.695312 22.667969 75.542969 22.824219 C 75.71875 22.855469 75.90625 22.894531 75.960938 22.90625 C 76.09375 22.941406 76.9375 22.921875 77.144531 22.882812 Z M 75.039062 22.609375 C 74.996094 22.554688 75.039062 22.472656 75.113281 22.472656 C 75.210938 22.472656 75.191406 22.652344 75.09375 22.65625 C 75.085938 22.65625 75.058594 22.636719 75.039062 22.609375 Z M 78.027344 20.246094 C 77.996094 20.238281 77.964844 20.222656 77.964844 20.207031 C 77.964844 20.195312 78.007812 20.195312 78.054688 20.214844 C 78.203125 20.261719 78.191406 20.277344 78.027344 20.246094 Z M 77.621094 20.175781 C 77.640625 20.144531 77.875 20.144531 77.894531 20.175781 C 77.898438 20.1875 77.839844 20.199219 77.753906 20.199219 C 77.671875 20.199219 77.613281 20.191406 77.621094 20.175781 Z M 70.527344 22.644531 C 70.65625 22.578125 70.761719 22.5 70.886719 22.378906 C 71.042969 22.222656 71.261719 21.847656 71.351562 21.578125 C 71.414062 21.386719 71.40625 21.089844 71.339844 20.90625 C 71.113281 20.3125 70.5 19.496094 70.070312 19.210938 C 69.726562 18.984375 69.480469 18.964844 69.019531 19.121094 C 68.644531 19.25 68.621094 19.25 68.675781 19.148438 C 68.785156 18.9375 69.03125 18.765625 69.335938 18.679688 C 69.433594 18.648438 69.53125 18.621094 69.550781 18.617188 C 69.570312 18.609375 69.585938 18.558594 69.585938 18.480469 C 69.585938 18.371094 69.574219 18.351562 69.488281 18.296875 C 69.339844 18.203125 69.292969 18.074219 69.296875 17.789062 C 69.300781 17.65625 69.3125 17.496094 69.328125 17.429688 C 69.355469 17.3125 69.355469 17.304688 69.273438 17.253906 C 69.199219 17.210938 68.945312 17.140625 68.703125 17.101562 C 68.601562 17.085938 68.5625 17.121094 68.476562 17.3125 C 68.371094 17.546875 68.3125 17.785156 68.261719 18.203125 C 68.210938 18.621094 68.210938 18.816406 68.261719 19.238281 C 68.304688 19.574219 68.324219 19.703125 68.40625 20.082031 C 68.492188 20.5 68.644531 21 68.804688 21.390625 C 69.117188 22.15625 69.105469 22.136719 69.300781 22.320312 C 69.671875 22.667969 69.835938 22.746094 70.171875 22.730469 C 70.335938 22.722656 70.417969 22.703125 70.527344 22.644531 Z M 71.144531 21.21875 C 71.144531 21.171875 71.117188 21.0625 71.089844 20.976562 C 71.019531 20.773438 71.019531 20.761719 71.089844 20.882812 C 71.148438 20.972656 71.203125 21.304688 71.160156 21.304688 C 71.152344 21.304688 71.144531 21.265625 71.144531 21.21875 Z M 68.351562 19.375 C 68.320312 19.34375 68.328125 19.257812 68.359375 19.238281 C 68.414062 19.203125 68.527344 19.25 68.527344 19.304688 C 68.527344 19.375 68.402344 19.425781 68.351562 19.375 Z M 68.75 21.589844 C 68.75 21.574219 68.714844 21.476562 68.667969 21.371094 C 68.597656 21.203125 68.507812 20.921875 68.371094 20.460938 C 68.292969 20.1875 68.167969 19.472656 68.136719 19.105469 C 68.082031 18.5 68.152344 17.839844 68.320312 17.394531 C 68.402344 17.175781 68.402344 17.171875 68.335938 17.171875 C 68.269531 17.171875 68.207031 17.242188 68.152344 17.375 C 67.96875 17.8125 67.925781 19.179688 68.066406 19.875 C 68.21875 20.609375 68.417969 21.175781 68.660156 21.550781 C 68.699219 21.617188 68.75 21.636719 68.75 21.589844 Z M 74.554688 20.148438 C 74.617188 20.113281 74.75 20.007812 74.855469 19.914062 C 75.007812 19.777344 75.042969 19.730469 75.035156 19.675781 C 75.023438 19.566406 74.914062 19.570312 74.722656 19.6875 C 74.628906 19.742188 74.542969 19.78125 74.523438 19.773438 C 74.503906 19.769531 74.40625 19.753906 74.300781 19.742188 L 74.105469 19.722656 L 74.019531 19.828125 C 73.964844 19.890625 73.929688 19.960938 73.929688 20.003906 C 73.929688 20.097656 73.945312 20.125 74.039062 20.191406 C 74.136719 20.261719 74.402344 20.238281 74.554688 20.148438 Z M 69.867188 18.199219 C 69.921875 17.945312 69.851562 17.507812 69.75 17.445312 C 69.65625 17.382812 69.617188 17.4375 69.597656 17.664062 C 69.574219 17.9375 69.589844 18.066406 69.671875 18.191406 C 69.753906 18.320312 69.839844 18.324219 69.867188 18.199219 Z M 73.953125 16.277344 C 74.023438 16.253906 74.097656 16.21875 74.121094 16.191406 C 74.195312 16.121094 74.464844 15.953125 74.640625 15.871094 C 75.003906 15.703125 75.421875 15.539062 75.484375 15.539062 C 75.574219 15.539062 75.960938 15.300781 76.195312 15.097656 C 76.535156 14.808594 76.507812 14.820312 76.75 14.820312 C 76.96875 14.820312 76.972656 14.820312 77.050781 14.722656 C 77.09375 14.671875 77.128906 14.597656 77.128906 14.5625 C 77.128906 14.480469 77.207031 14.410156 77.382812 14.34375 C 77.570312 14.269531 77.632812 14.175781 77.632812 13.957031 C 77.632812 13.753906 77.652344 13.714844 77.867188 13.484375 C 77.960938 13.386719 78.09375 13.230469 78.160156 13.140625 C 78.269531 12.992188 78.28125 12.957031 78.308594 12.738281 C 78.328125 12.5625 78.328125 12.402344 78.304688 12.167969 C 78.269531 11.8125 78.222656 11.632812 78.101562 11.425781 C 78.011719 11.273438 78 11.1875 78.066406 11.160156 C 78.09375 11.148438 78.132812 11.171875 78.171875 11.222656 C 78.269531 11.34375 78.300781 11.292969 78.296875 11.015625 C 78.296875 10.636719 78.253906 10.164062 78.21875 10.128906 C 78.195312 10.105469 78.171875 10.105469 78.132812 10.132812 C 78.007812 10.210938 77.777344 10.125 77.691406 9.96875 C 77.621094 9.832031 77.675781 9.421875 77.804688 9.160156 C 77.839844 9.089844 77.941406 9.078125 77.992188 9.140625 C 78.042969 9.203125 78.105469 9.191406 78.105469 9.121094 C 78.105469 9.070312 77.96875 8.628906 77.878906 8.386719 C 77.84375 8.296875 77.78125 8.289062 77.601562 8.355469 C 77.449219 8.410156 77.066406 8.417969 76.839844 8.363281 C 76.75 8.34375 76.582031 8.28125 76.46875 8.222656 C 76.253906 8.113281 76.210938 8.109375 76.210938 8.195312 C 76.210938 8.222656 76.171875 8.285156 76.121094 8.335938 C 76.011719 8.445312 75.871094 8.453125 75.664062 8.355469 C 75.410156 8.234375 75.363281 8.066406 75.503906 7.769531 C 75.589844 7.589844 75.660156 7.546875 75.785156 7.605469 C 75.847656 7.632812 75.855469 7.632812 75.835938 7.585938 C 75.753906 7.394531 75.683594 7.171875 75.683594 7.113281 C 75.683594 7.074219 75.667969 7.015625 75.652344 6.988281 C 75.625 6.933594 75.617188 6.9375 75.480469 7.042969 C 75.207031 7.25 75.101562 7.285156 74.722656 7.28125 C 74.425781 7.28125 74.371094 7.269531 74.234375 7.207031 C 73.9375 7.066406 73.671875 6.785156 73.535156 6.472656 C 73.5 6.386719 73.457031 6.3125 73.4375 6.3125 C 73.421875 6.3125 73.347656 6.347656 73.269531 6.386719 C 72.851562 6.613281 72.402344 6.632812 72.035156 6.441406 C 71.75 6.289062 71.480469 5.761719 71.480469 5.351562 C 71.476562 5.261719 71.464844 5.183594 71.445312 5.167969 C 71.390625 5.125 70.972656 5.15625 70.800781 5.214844 C 70.617188 5.277344 70.449219 5.382812 70.28125 5.539062 C 70.167969 5.648438 70.058594 5.722656 70.019531 5.722656 C 69.980469 5.722656 70.007812 5.621094 70.074219 5.503906 C 70.113281 5.4375 70.136719 5.367188 70.125 5.355469 C 70.109375 5.34375 70.03125 5.339844 69.949219 5.351562 C 69.808594 5.371094 69.796875 5.378906 69.773438 5.457031 C 69.742188 5.589844 69.503906 5.820312 69.347656 5.875 C 69.144531 5.945312 69.011719 5.933594 68.929688 5.84375 C 68.890625 5.804688 68.859375 5.761719 68.859375 5.746094 C 68.859375 5.644531 68.410156 5.917969 68.164062 6.171875 C 67.972656 6.367188 67.726562 6.855469 67.621094 7.242188 C 67.578125 7.386719 67.523438 7.574219 67.496094 7.652344 C 67.46875 7.730469 67.410156 7.917969 67.371094 8.070312 C 67.332031 8.222656 67.273438 8.398438 67.246094 8.460938 L 67.191406 8.578125 L 67.195312 8.328125 C 67.199219 8.179688 67.191406 8.070312 67.175781 8.066406 C 67.136719 8.054688 66.988281 8.320312 66.929688 8.496094 C 66.804688 8.886719 66.785156 9.039062 66.785156 9.703125 C 66.785156 10.375 66.785156 10.347656 66.953125 11.222656 C 67.035156 11.65625 67.039062 11.632812 66.941406 11.460938 C 66.890625 11.375 66.800781 11.148438 66.734375 10.960938 C 66.671875 10.769531 66.605469 10.609375 66.589844 10.609375 C 66.523438 10.597656 66.484375 10.839844 66.472656 11.324219 C 66.457031 11.886719 66.480469 12.082031 66.609375 12.460938 C 66.835938 13.125 67.445312 13.929688 68.011719 14.304688 C 68.214844 14.4375 68.40625 14.527344 68.496094 14.527344 C 68.574219 14.527344 68.695312 14.664062 68.695312 14.757812 C 68.695312 14.910156 68.871094 15.195312 69.019531 15.285156 C 69.164062 15.371094 69.441406 15.4375 69.492188 15.394531 C 69.519531 15.371094 69.523438 15.351562 69.503906 15.332031 C 69.488281 15.316406 69.472656 15.265625 69.472656 15.222656 C 69.472656 15.125 69.554688 15.082031 69.597656 15.160156 C 69.667969 15.285156 70.097656 15.730469 70.292969 15.875 C 70.753906 16.21875 71.140625 16.289062 71.714844 16.128906 C 71.878906 16.082031 72.023438 16.066406 72.273438 16.0625 L 72.605469 16.058594 L 72.953125 16.207031 L 73.300781 16.351562 L 73.566406 16.335938 C 73.710938 16.328125 73.886719 16.300781 73.953125 16.277344 Z M 70.714844 15.652344 C 70.652344 15.605469 70.585938 15.539062 70.5625 15.503906 C 70.539062 15.46875 70.488281 15.410156 70.453125 15.375 C 70.375 15.300781 70.375 15.203125 70.449219 15.105469 C 70.542969 14.988281 70.601562 14.96875 70.753906 15.003906 C 70.867188 15.03125 70.910156 15.0625 71.03125 15.207031 C 71.144531 15.34375 71.171875 15.394531 71.171875 15.480469 C 71.171875 15.605469 71.15625 15.628906 71.035156 15.6875 C 70.902344 15.753906 70.839844 15.746094 70.714844 15.652344 Z M 73.449219 15.316406 C 73.34375 15.230469 73.308594 15.085938 73.347656 14.863281 C 73.382812 14.628906 73.40625 14.605469 73.578125 14.636719 C 73.679688 14.65625 73.742188 14.691406 73.832031 14.78125 C 73.949219 14.898438 73.957031 14.910156 73.957031 15.066406 C 73.957031 15.246094 73.898438 15.34375 73.78125 15.34375 C 73.746094 15.34375 73.675781 15.351562 73.621094 15.359375 C 73.546875 15.371094 73.507812 15.359375 73.449219 15.316406 Z M 75.804688 14.316406 C 75.761719 14.277344 75.710938 14.230469 75.691406 14.21875 C 75.613281 14.152344 75.617188 13.683594 75.695312 13.554688 C 75.753906 13.464844 75.921875 13.390625 75.984375 13.429688 C 76.039062 13.457031 76.132812 13.703125 76.167969 13.90625 C 76.195312 14.074219 76.027344 14.386719 75.90625 14.386719 C 75.894531 14.386719 75.847656 14.355469 75.804688 14.316406 Z M 72.453125 13.628906 C 72.269531 13.59375 71.890625 13.445312 71.691406 13.335938 C 71.480469 13.214844 71.195312 12.988281 71.046875 12.824219 L 70.933594 12.699219 L 70.816406 12.730469 C 70.664062 12.769531 70.511719 12.742188 70.488281 12.667969 C 70.464844 12.585938 70.488281 12.566406 70.640625 12.546875 C 70.835938 12.519531 70.9375 12.472656 71.140625 12.308594 C 71.234375 12.226562 71.320312 12.164062 71.328125 12.164062 C 71.332031 12.164062 71.339844 12.207031 71.339844 12.261719 C 71.339844 12.328125 71.308594 12.398438 71.238281 12.488281 L 71.140625 12.621094 L 71.230469 12.71875 C 71.414062 12.910156 71.804688 13.160156 72.089844 13.265625 C 72.597656 13.457031 73.234375 13.445312 73.683594 13.238281 C 73.84375 13.164062 74.183594 12.929688 74.222656 12.867188 C 74.230469 12.851562 74.207031 12.796875 74.167969 12.746094 C 74.070312 12.613281 74.023438 12.4375 74.0625 12.34375 C 74.113281 12.234375 74.179688 12.269531 74.242188 12.441406 C 74.328125 12.675781 74.4375 12.765625 74.714844 12.832031 C 74.898438 12.875 74.945312 12.898438 74.945312 12.9375 C 74.945312 13.035156 74.652344 13.058594 74.46875 12.972656 C 74.414062 12.949219 74.390625 12.964844 74.234375 13.132812 C 74.039062 13.339844 73.820312 13.484375 73.558594 13.574219 C 73.421875 13.621094 73.300781 13.632812 72.980469 13.640625 C 72.761719 13.648438 72.523438 13.640625 72.453125 13.628906 Z M 67.550781 13.332031 C 67.484375 13.292969 67.367188 13.238281 67.296875 13.207031 C 67.148438 13.144531 67.09375 13.074219 67.015625 12.84375 C 66.941406 12.625 66.914062 12.484375 66.941406 12.441406 C 66.972656 12.394531 66.976562 12.398438 67.03125 12.621094 C 67.054688 12.722656 67.105469 12.871094 67.140625 12.945312 C 67.195312 13.0625 67.226562 13.089844 67.410156 13.179688 C 67.609375 13.28125 67.714844 13.359375 67.6875 13.386719 C 67.683594 13.390625 67.621094 13.367188 67.550781 13.332031 Z M 69.433594 12.96875 C 69.289062 12.914062 69.265625 12.871094 69.277344 12.699219 C 69.285156 12.621094 69.371094 12.511719 69.449219 12.484375 C 69.535156 12.457031 69.804688 12.53125 69.878906 12.597656 C 69.972656 12.6875 69.976562 12.875 69.882812 12.933594 C 69.789062 13 69.5625 13.015625 69.433594 12.96875 Z M 77.964844 12.765625 C 77.964844 12.75 77.976562 12.726562 77.992188 12.710938 C 78.007812 12.695312 78.03125 12.574219 78.046875 12.445312 L 78.074219 12.207031 L 78.066406 12.429688 C 78.066406 12.59375 78.050781 12.675781 78.015625 12.726562 C 77.988281 12.765625 77.964844 12.78125 77.964844 12.765625 Z M 77.433594 12.476562 C 77.355469 12.394531 77.351562 12.386719 77.355469 12.089844 C 77.355469 11.730469 77.382812 11.578125 77.464844 11.511719 C 77.578125 11.417969 77.722656 11.492188 77.832031 11.695312 C 77.882812 11.792969 77.890625 11.851562 77.886719 12.03125 C 77.882812 12.285156 77.820312 12.433594 77.691406 12.507812 C 77.578125 12.578125 77.527344 12.570312 77.433594 12.476562 Z M 72.78125 12.34375 C 72.691406 12.304688 72.628906 12.230469 72.660156 12.199219 C 72.664062 12.191406 72.769531 12.175781 72.890625 12.160156 C 73.105469 12.132812 73.320312 12.058594 73.355469 12 C 73.417969 11.898438 73.207031 11.714844 73.035156 11.714844 C 72.855469 11.714844 72.8125 11.59375 72.96875 11.53125 C 73.054688 11.492188 73.078125 11.496094 73.210938 11.546875 C 73.355469 11.601562 73.5 11.722656 73.5625 11.847656 C 73.726562 12.167969 73.183594 12.511719 72.78125 12.34375 Z M 74.957031 11.722656 C 74.550781 11.527344 74.25 11.492188 74.003906 11.617188 L 73.863281 11.6875 L 73.808594 11.632812 C 73.757812 11.582031 73.753906 11.566406 73.789062 11.5 C 73.8125 11.460938 73.875 11.40625 73.925781 11.378906 C 74.019531 11.335938 74.027344 11.324219 74.035156 11.195312 C 74.054688 10.894531 73.964844 10.625 73.703125 10.210938 C 73.582031 10.015625 73.582031 10.007812 73.582031 9.777344 L 73.582031 9.542969 L 73.691406 9.445312 C 73.78125 9.367188 73.820312 9.351562 73.925781 9.351562 C 74.214844 9.351562 74.519531 9.585938 74.6875 9.945312 C 74.921875 10.433594 74.976562 10.882812 74.859375 11.351562 C 74.847656 11.410156 74.851562 11.429688 74.898438 11.445312 C 74.992188 11.476562 75.210938 11.699219 75.210938 11.765625 C 75.210938 11.800781 75.199219 11.828125 75.1875 11.824219 C 75.175781 11.824219 75.074219 11.78125 74.957031 11.722656 Z M 74.425781 10.078125 C 74.464844 10.011719 74.464844 9.996094 74.417969 9.929688 C 74.375 9.863281 74.355469 9.851562 74.277344 9.867188 C 74.195312 9.878906 74.1875 9.875 74.1875 9.808594 C 74.1875 9.710938 74.0625 9.605469 73.953125 9.605469 C 73.84375 9.605469 73.734375 9.714844 73.734375 9.828125 C 73.734375 10.019531 73.902344 10.128906 74.066406 10.042969 C 74.121094 10.019531 74.152344 10.011719 74.152344 10.035156 C 74.152344 10.050781 74.171875 10.085938 74.199219 10.117188 C 74.265625 10.191406 74.375 10.171875 74.425781 10.078125 Z M 70.789062 11.652344 C 70.683594 11.546875 70.839844 11.304688 71.144531 11.09375 C 71.214844 11.042969 71.222656 11.070312 70.957031 10.292969 C 70.757812 9.710938 70.738281 9.605469 70.78125 9.460938 C 70.824219 9.316406 70.929688 9.265625 71.1875 9.265625 L 71.375 9.265625 L 71.5625 9.457031 C 71.703125 9.605469 71.769531 9.699219 71.851562 9.882812 C 71.988281 10.191406 72.078125 10.558594 72.113281 10.941406 C 72.140625 11.207031 72.152344 11.25 72.214844 11.316406 C 72.300781 11.40625 72.308594 11.488281 72.230469 11.488281 C 72.203125 11.488281 72.050781 11.4375 71.890625 11.375 C 71.734375 11.316406 71.558594 11.265625 71.5 11.265625 C 71.335938 11.265625 71.152344 11.367188 71.042969 11.519531 C 70.925781 11.683594 70.855469 11.71875 70.789062 11.652344 Z M 71.511719 10.007812 C 71.621094 9.90625 71.523438 9.71875 71.382812 9.753906 C 71.273438 9.785156 71.242188 9.949219 71.332031 10.019531 C 71.394531 10.066406 71.449219 10.0625 71.511719 10.007812 Z M 71.222656 9.835938 C 71.410156 9.671875 71.234375 9.351562 71 9.433594 C 70.886719 9.472656 70.839844 9.539062 70.839844 9.660156 C 70.835938 9.855469 71.074219 9.964844 71.222656 9.835938 Z M 67.621094 11.484375 C 67.480469 11.402344 67.484375 11.253906 67.632812 11.097656 C 67.695312 11.03125 67.777344 10.917969 67.820312 10.839844 C 67.898438 10.699219 67.925781 10.683594 68.109375 10.667969 C 68.199219 10.660156 68.210938 10.667969 68.265625 10.785156 C 68.386719 11.03125 68.378906 11.160156 68.238281 11.320312 C 68.089844 11.488281 67.777344 11.570312 67.621094 11.484375 Z M 75.550781 10.449219 C 75.515625 10.433594 75.472656 10.390625 75.453125 10.347656 C 75.390625 10.207031 75.578125 10 75.765625 10 C 75.847656 10 75.984375 10.082031 76.003906 10.148438 C 76.035156 10.242188 75.960938 10.359375 75.839844 10.417969 C 75.710938 10.480469 75.648438 10.488281 75.550781 10.449219 Z M 70.011719 9.5625 C 69.976562 9.503906 69.96875 9.445312 69.980469 9.257812 C 70 8.980469 70.066406 8.835938 70.265625 8.652344 C 70.472656 8.464844 70.664062 8.386719 70.921875 8.386719 C 71.203125 8.382812 71.4375 8.496094 71.667969 8.746094 C 71.808594 8.898438 71.929688 9.125 71.867188 9.125 C 71.855469 9.125 71.710938 9.027344 71.546875 8.902344 C 71.210938 8.65625 71.023438 8.574219 70.847656 8.609375 C 70.683594 8.636719 70.523438 8.722656 70.398438 8.847656 C 70.242188 9.003906 70.1875 9.164062 70.203125 9.386719 C 70.210938 9.484375 70.210938 9.578125 70.203125 9.597656 C 70.183594 9.660156 70.0625 9.636719 70.011719 9.5625 Z M 73.035156 9.253906 C 72.933594 8.792969 73.3125 8.414062 73.886719 8.414062 C 74.113281 8.414062 74.332031 8.523438 74.503906 8.714844 C 74.703125 8.941406 74.792969 9.183594 74.671875 9.183594 C 74.652344 9.183594 74.539062 9.082031 74.421875 8.957031 C 74.136719 8.652344 73.96875 8.585938 73.691406 8.660156 C 73.410156 8.734375 73.226562 8.910156 73.15625 9.175781 C 73.09375 9.425781 73.074219 9.4375 73.035156 9.253906 Z M 67.6875 8.707031 C 67.617188 8.636719 67.609375 8.601562 67.609375 8.46875 C 67.609375 8.332031 67.617188 8.308594 67.679688 8.261719 C 67.722656 8.234375 67.820312 8.144531 67.902344 8.0625 C 68.015625 7.949219 68.066406 7.917969 68.136719 7.917969 C 68.28125 7.917969 68.332031 7.960938 68.332031 8.078125 C 68.328125 8.199219 68.273438 8.453125 68.21875 8.578125 C 68.144531 8.746094 68.085938 8.789062 67.921875 8.789062 C 67.792969 8.789062 67.757812 8.777344 67.6875 8.707031 Z M 70.515625 7.660156 C 70.449219 7.589844 70.429688 7.292969 70.472656 7.109375 C 70.542969 6.828125 70.761719 6.730469 70.921875 6.90625 C 71.015625 7.007812 71.046875 7.15625 71.003906 7.335938 C 70.945312 7.605469 70.847656 7.71875 70.667969 7.71875 C 70.601562 7.71875 70.550781 7.699219 70.515625 7.660156 Z M 67.914062 7.136719 C 67.914062 7.113281 67.957031 7 68.011719 6.886719 C 68.078125 6.746094 68.136719 6.660156 68.210938 6.605469 C 68.269531 6.5625 68.363281 6.484375 68.421875 6.429688 C 68.480469 6.375 68.535156 6.339844 68.546875 6.351562 C 68.585938 6.390625 68.480469 6.523438 68.324219 6.632812 C 68.1875 6.730469 68.152344 6.773438 68.0625 6.964844 C 67.964844 7.179688 67.914062 7.234375 67.914062 7.136719 Z M 72.167969 6.800781 C 72.1875 6.792969 72.214844 6.792969 72.222656 6.804688 C 72.230469 6.8125 72.214844 6.820312 72.1875 6.816406 C 72.152344 6.816406 72.148438 6.808594 72.167969 6.800781 Z M 71.792969 6.671875 C 71.707031 6.578125 71.636719 6.453125 71.664062 6.453125 C 71.679688 6.453125 71.714844 6.496094 71.742188 6.550781 C 71.800781 6.65625 71.863281 6.699219 71.992188 6.714844 C 72.058594 6.726562 72.054688 6.726562 71.964844 6.730469 C 71.878906 6.734375 71.835938 6.71875 71.792969 6.671875 Z M 64.117188 13.273438 C 64.140625 13.25 64.195312 13.234375 64.238281 13.234375 C 64.289062 13.234375 64.355469 13.199219 64.410156 13.152344 C 64.460938 13.109375 64.554688 13.039062 64.613281 12.996094 C 64.703125 12.9375 64.734375 12.890625 64.757812 12.789062 C 64.796875 12.640625 64.785156 12.601562 64.710938 12.640625 C 64.683594 12.65625 64.617188 12.671875 64.5625 12.671875 C 64.417969 12.671875 64.433594 12.609375 64.609375 12.476562 C 64.855469 12.292969 64.863281 12.273438 64.863281 12.015625 C 64.863281 11.886719 64.84375 11.640625 64.8125 11.460938 L 64.761719 11.136719 L 64.835938 10.855469 C 64.914062 10.558594 64.921875 10.4375 64.878906 10.324219 C 64.835938 10.210938 64.65625 10.027344 64.589844 10.027344 C 64.472656 10.027344 64.429688 10.121094 64.308594 10.59375 C 64.28125 10.699219 64.242188 10.796875 64.222656 10.816406 C 64.1875 10.84375 64.199219 10.871094 64.304688 10.96875 C 64.4375 11.09375 64.496094 11.242188 64.535156 11.519531 C 64.574219 11.820312 64.289062 12.113281 64.070312 11.996094 C 64.03125 11.972656 64 11.984375 63.925781 12.046875 C 63.777344 12.175781 63.675781 12.199219 63.53125 12.136719 C 63.34375 12.054688 63.191406 11.765625 63.25 11.609375 C 63.265625 11.570312 63.28125 11.59375 63.328125 11.703125 C 63.4375 11.957031 63.558594 12.042969 63.734375 11.984375 C 63.941406 11.914062 63.980469 11.664062 63.828125 11.359375 C 63.738281 11.179688 63.539062 11.011719 63.410156 11.011719 C 63.242188 11.011719 63.082031 11.207031 63.023438 11.492188 C 62.984375 11.6875 62.984375 11.695312 63.039062 11.753906 C 63.105469 11.824219 63.113281 11.882812 63.058594 11.882812 C 63.035156 11.882812 62.933594 11.84375 62.828125 11.796875 C 62.59375 11.6875 62.316406 11.65625 62.191406 11.722656 C 61.914062 11.867188 61.878906 12.183594 62.132812 12.289062 C 62.179688 12.308594 62.34375 12.335938 62.5 12.347656 C 62.863281 12.375 62.925781 12.414062 63.09375 12.730469 C 63.1875 12.902344 63.261719 12.953125 63.441406 12.953125 C 63.574219 12.953125 63.710938 12.902344 63.878906 12.796875 C 64.007812 12.710938 64.015625 12.710938 64.015625 12.78125 C 64.015625 12.839844 63.867188 13 63.789062 13.023438 C 63.683594 13.054688 63.75 13.179688 63.917969 13.269531 C 64.023438 13.328125 64.066406 13.328125 64.117188 13.273438 Z M 64.339844 11.71875 C 64.390625 11.640625 64.398438 11.601562 64.386719 11.46875 C 64.378906 11.378906 64.359375 11.292969 64.347656 11.28125 C 64.332031 11.265625 64.324219 11.230469 64.324219 11.203125 C 64.324219 11.175781 64.289062 11.121094 64.246094 11.082031 C 64.183594 11.023438 64.140625 11.011719 64.03125 11.011719 C 63.800781 11.011719 63.796875 11.027344 63.925781 11.296875 C 64.054688 11.554688 64.089844 11.71875 64.046875 11.832031 C 64.03125 11.871094 64.027344 11.914062 64.035156 11.921875 C 64.066406 11.953125 64.277344 11.8125 64.339844 11.71875 Z M 80.984375 11.039062 C 81.082031 11.003906 81.074219 10.96875 80.957031 10.898438 C 80.828125 10.816406 80.695312 10.628906 80.695312 10.527344 C 80.695312 10.46875 80.679688 10.449219 80.640625 10.449219 C 80.578125 10.449219 80.40625 10.261719 80.339844 10.121094 C 80.316406 10.070312 80.28125 10.03125 80.265625 10.035156 C 80.214844 10.050781 80.195312 10.234375 80.226562 10.386719 C 80.273438 10.628906 80.527344 11.023438 80.648438 11.046875 C 80.765625 11.070312 80.914062 11.066406 80.984375 11.039062 Z M 82.160156 10.660156 C 82.535156 10.449219 82.921875 9.929688 82.921875 9.632812 C 82.921875 9.515625 82.855469 9.363281 82.789062 9.324219 C 82.644531 9.25 82.285156 9.332031 82.023438 9.5 C 81.84375 9.617188 81.824219 9.640625 81.769531 9.804688 C 81.691406 10.03125 81.746094 10.070312 82.117188 10.046875 C 82.371094 10.027344 82.421875 10.039062 82.421875 10.109375 C 82.421875 10.207031 82.347656 10.230469 82.019531 10.234375 C 81.71875 10.238281 81.699219 10.234375 81.628906 10.167969 C 81.589844 10.132812 81.550781 10.058594 81.539062 10.003906 C 81.53125 9.945312 81.488281 9.875 81.445312 9.839844 C 81.367188 9.769531 81.277344 9.550781 81.28125 9.417969 C 81.28125 9.328125 81.328125 9.1875 81.398438 9.050781 C 81.5 8.863281 81.84375 8.628906 82.113281 8.566406 C 82.296875 8.527344 82.515625 8.34375 82.617188 8.148438 C 82.667969 8.050781 82.675781 8.003906 82.65625 7.894531 C 82.621094 7.644531 82.550781 7.632812 82.304688 7.835938 C 82.085938 8.015625 81.621094 8.496094 81.570312 8.59375 C 81.519531 8.691406 81.320312 8.871094 81.207031 8.917969 C 81.09375 8.964844 80.980469 8.929688 80.960938 8.839844 C 80.953125 8.804688 80.945312 8.628906 80.9375 8.449219 C 80.933594 8.179688 80.921875 8.117188 80.875 8.050781 C 80.796875 7.945312 80.683594 7.898438 80.597656 7.941406 C 80.394531 8.03125 80.375 8.320312 80.542969 8.734375 C 80.628906 8.949219 80.652344 9.03125 80.648438 9.183594 C 80.648438 9.394531 80.609375 9.558594 80.511719 9.753906 C 80.476562 9.828125 80.445312 9.910156 80.445312 9.929688 C 80.445312 9.984375 80.546875 10.195312 80.609375 10.265625 C 80.636719 10.296875 80.667969 10.347656 80.675781 10.378906 C 80.695312 10.433594 80.972656 10.660156 81.132812 10.746094 C 81.195312 10.78125 81.285156 10.789062 81.589844 10.777344 C 81.96875 10.765625 81.972656 10.765625 82.160156 10.660156 Z M 81.722656 9.5 C 81.886719 9.324219 82.035156 9.238281 82.316406 9.144531 L 82.492188 9.085938 L 82.5 8.925781 C 82.507812 8.734375 82.496094 8.726562 82.230469 8.757812 C 81.84375 8.808594 81.476562 9.125 81.476562 9.410156 C 81.472656 9.488281 81.527344 9.660156 81.550781 9.660156 C 81.558594 9.660156 81.632812 9.585938 81.722656 9.5 Z M 75.929688 5.195312 C 75.773438 5.171875 75.753906 5.109375 75.753906 4.683594 C 75.757812 4.265625 75.777344 4.195312 75.949219 4.035156 C 76.015625 3.96875 76.042969 3.964844 76.277344 3.964844 C 76.578125 3.96875 76.671875 4.011719 76.769531 4.183594 C 76.882812 4.386719 76.800781 4.660156 76.539062 4.941406 C 76.417969 5.074219 76.363281 5.109375 76.226562 5.148438 C 76.007812 5.210938 76.015625 5.210938 75.929688 5.195312 Z M 76.21875 4.949219 C 76.300781 4.914062 76.390625 4.847656 76.417969 4.808594 C 76.449219 4.769531 76.5 4.699219 76.539062 4.660156 C 76.605469 4.578125 76.640625 4.453125 76.625 4.339844 C 76.613281 4.253906 76.488281 4.195312 76.28125 4.179688 C 76.128906 4.171875 76.109375 4.175781 76.042969 4.246094 C 75.980469 4.316406 75.972656 4.34375 75.964844 4.671875 C 75.957031 5.011719 75.957031 5.019531 76.015625 5.019531 C 76.050781 5.019531 76.140625 4.988281 76.21875 4.949219 Z M 73.203125 4.992188 C 73.105469 4.953125 73.046875 4.839844 73.007812 4.617188 C 72.953125 4.289062 73.042969 4.050781 73.273438 3.949219 C 73.441406 3.871094 73.554688 3.878906 73.65625 3.980469 C 73.699219 4.027344 73.792969 4.101562 73.863281 4.148438 C 74.003906 4.25 74.074219 4.367188 74.078125 4.523438 C 74.082031 4.636719 74.015625 4.71875 73.828125 4.828125 C 73.785156 4.855469 73.714844 4.90625 73.671875 4.9375 C 73.585938 5.011719 73.324219 5.039062 73.203125 4.992188 Z M 73.652344 4.652344 C 73.757812 4.585938 73.84375 4.519531 73.84375 4.5 C 73.84375 4.480469 73.796875 4.40625 73.742188 4.335938 C 73.621094 4.183594 73.472656 4.136719 73.359375 4.214844 C 73.195312 4.324219 73.246094 4.765625 73.421875 4.765625 C 73.441406 4.765625 73.546875 4.714844 73.652344 4.652344 Z M 78.132812 4.832031 C 78.035156 4.765625 78.023438 4.738281 78.023438 4.625 C 78.023438 4.324219 78.199219 4.261719 78.441406 4.480469 C 78.546875 4.574219 78.554688 4.59375 78.539062 4.679688 C 78.5 4.847656 78.277344 4.929688 78.132812 4.832031 Z M 78.292969 4.648438 C 78.277344 4.597656 78.214844 4.585938 78.214844 4.636719 C 78.214844 4.660156 78.238281 4.683594 78.261719 4.683594 C 78.285156 4.683594 78.300781 4.667969 78.292969 4.648438 Z M 74.625 3.414062 C 74.535156 3.378906 74.460938 3.277344 74.457031 3.195312 C 74.457031 3.160156 74.496094 3.09375 74.542969 3.046875 C 74.617188 2.96875 74.636719 2.960938 74.746094 2.976562 C 74.894531 3.003906 75.015625 3.113281 75.015625 3.230469 C 75.011719 3.332031 74.992188 3.367188 74.910156 3.410156 C 74.839844 3.449219 74.71875 3.453125 74.625 3.414062 Z M 74.832031 3.25 C 74.847656 3.222656 74.777344 3.136719 74.738281 3.136719 C 74.726562 3.136719 74.699219 3.152344 74.683594 3.175781 C 74.65625 3.207031 74.660156 3.222656 74.699219 3.246094 C 74.761719 3.28125 74.8125 3.285156 74.832031 3.25 Z M 74.832031 3.25 "/></g></g></svg>